<svg viewBox="0 0 511.789 511.789">
    <path d="m491.895 235.895h-53.652c-9.493-85.002-77.278-152.642-162.348-161.906v-54.094c-1.056-26.536-38.953-26.516-40 0v54.094c-85.07 9.264-152.855 76.904-162.348 161.906h-53.652c-26.536 1.056-26.516 38.953 0 40h53.537c9.069 85.472 77.058 153.605 162.463 162.905v53.094c1.056 26.536 38.953 26.516 40 0v-53.094c85.404-9.3 153.393-77.434 162.463-162.906h53.537c26.536-1.056 26.515-38.953 0-39.999zm-216 162.599v-48.6c-1.056-26.536-38.953-26.516-40 0v48.6c-63.32-8.87-113.519-59.211-122.17-122.6h48.17c26.536-1.056 26.516-38.953 0-40h-48.029c9.04-62.918 59.042-112.777 122.029-121.6v47.6c1.056 26.536 38.953 26.516 40 0v-47.6c62.987 8.823 112.99 58.682 122.029 121.6h-48.029c-26.536 1.056-26.516 38.953 0 40h48.17c-8.652 63.389-58.85 113.731-122.17 122.6zm-20-117.599c-33.172-1.321-33.143-48.692 0-50 33.171 1.321 33.143 48.692 0 50z"/>
</svg>
