<svg width="24" height="24" viewBox="0 0 24 24" fill="none" xmlns="http://www.w3.org/2000/svg">
  <path d="M10.6 16.5993L17.65 9.54927L16.25 8.14927L10.6 13.7993L7.75 10.9493L6.35 12.3493L10.6 16.5993ZM12 21.9993C10.6167 21.9993 9.31667 21.7368 8.1 21.2118C6.88333 20.6868 5.825 19.9743 4.925 19.0743C4.025 18.1743 3.3125 17.1159 2.7875 15.8993C2.2625 14.6826 2 13.3826 2 11.9993C2 10.6159 2.2625 9.31593 2.7875 8.09927C3.3125 6.8826 4.025 5.82427 4.925 4.92427C5.825 4.02427 6.88333 3.31177 8.1 2.78677C9.31667 2.26177 10.6167 1.99927 12 1.99927C13.3833 1.99927 14.6833 2.26177 15.9 2.78677C17.1167 3.31177 18.175 4.02427 19.075 4.92427C19.975 5.82427 20.6875 6.8826 21.2125 8.09927C21.7375 9.31593 22 10.6159 22 11.9993C22 13.3826 21.7375 14.6826 21.2125 15.8993C20.6875 17.1159 19.975 18.1743 19.075 19.0743C18.175 19.9743 17.1167 20.6868 15.9 21.2118C14.6833 21.7368 13.3833 21.9993 12 21.9993Z" fill="#356A72"/>
</svg>