<svg viewBox="0 0 64 64">
    <path d="m60.75 3.25a2.994 2.994 0 0 1 0 4.24l-14.51 14.51h5.76a3 3 0 0 1 0 6h-14a2.006 2.006 0 0 1 -2-2v-14a3 3 0 0 1 6 0v5.76l14.51-14.51a3 3 0 0 1 4.24 0z"/>
    <path d="m60.75 56.51a3 3 0 0 1 -4.24 4.24l-14.51-14.51v5.76a3 3 0 0 1 -6 0v-14a2.006 2.006 0 0 1 2-2h14a3 3 0 0 1 0 6h-5.76z"/>
    <path d="m28 12v14a2.006 2.006 0 0 1 -2 2h-14a3 3 0 0 1 0-6h5.76l-14.51-14.51a3 3 0 0 1 4.24-4.24l14.51 14.51v-5.76a3 3 0 0 1 6 0z"/>
    <path d="m28 38v14a3 3 0 0 1 -6 0v-5.76l-14.51 14.51a3 3 0 1 1 -4.24-4.24l14.51-14.51h-5.76a3 3 0 0 1 0-6h14a2.006 2.006 0 0 1 2 2z"/>
</svg>
