<svg width="20" height="20" viewBox="0 0 20 20" fill="none" xmlns="http://www.w3.org/2000/svg">
<path d="M12.5 17.5L7.5 15.75L3.625 17.25C3.34722 17.3611 3.09028 17.3299 2.85417 17.1562C2.61806 16.9826 2.5 16.75 2.5 16.4583V4.79167C2.5 4.61111 2.55208 4.45139 2.65625 4.3125C2.76042 4.17361 2.90278 4.06944 3.08333 4L7.5 2.5L12.5 4.25L16.375 2.75C16.6528 2.63889 16.9097 2.67014 17.1458 2.84375C17.3819 3.01736 17.5 3.25 17.5 3.54167V15.2083C17.5 15.3889 17.4479 15.5486 17.3438 15.6875C17.2396 15.8264 17.0972 15.9306 16.9167 16L12.5 17.5ZM11.6667 15.4583V5.70833L8.33333 4.54167V14.2917L11.6667 15.4583ZM13.3333 15.4583L15.8333 14.625V4.75L13.3333 5.70833V15.4583ZM4.16667 15.25L6.66667 14.2917V4.54167L4.16667 5.375V15.25Z" fill="#4A4A4A"/>
</svg>
