<svg width="20" height="20" viewBox="0 0 20 20" fill="none" xmlns="http://www.w3.org/2000/svg">
<path d="M10 16.6673C9.54171 16.6673 9.14935 16.5041 8.82296 16.1777C8.49657 15.8513 8.33337 15.459 8.33337 15.0007C8.33337 14.5423 8.49657 14.15 8.82296 13.8236C9.14935 13.4972 9.54171 13.334 10 13.334C10.4584 13.334 10.8507 13.4972 11.1771 13.8236C11.5035 14.15 11.6667 14.5423 11.6667 15.0007C11.6667 15.459 11.5035 15.8513 11.1771 16.1777C10.8507 16.5041 10.4584 16.6673 10 16.6673ZM10 11.6673C9.54171 11.6673 9.14935 11.5041 8.82296 11.1777C8.49657 10.8513 8.33337 10.459 8.33337 10.0007C8.33337 9.54232 8.49657 9.14996 8.82296 8.82357C9.14935 8.49718 9.54171 8.33398 10 8.33398C10.4584 8.33398 10.8507 8.49718 11.1771 8.82357C11.5035 9.14996 11.6667 9.54232 11.6667 10.0007C11.6667 10.459 11.5035 10.8513 11.1771 11.1777C10.8507 11.5041 10.4584 11.6673 10 11.6673ZM10 6.66732C9.54171 6.66732 9.14935 6.50412 8.82296 6.17773C8.49657 5.85135 8.33337 5.45898 8.33337 5.00065C8.33337 4.54232 8.49657 4.14996 8.82296 3.82357C9.14935 3.49718 9.54171 3.33398 10 3.33398C10.4584 3.33398 10.8507 3.49718 11.1771 3.82357C11.5035 4.14996 11.6667 4.54232 11.6667 5.00065C11.6667 5.45898 11.5035 5.85135 11.1771 6.17773C10.8507 6.50412 10.4584 6.66732 10 6.66732Z" fill="black"/>
</svg>
