<svg viewBox="0 0 32 32">
  <path
    d="m29 2h-20a1 1 0 0 0 -1 1v5h-5a1 1 0 0 0 -1 1v20a1 1 0 0 0 1 1h20a1 1 0 0 0 1-1v-5h5a1 1 0 0 0 1-1v-20a1 1 0 0 0 -1-1zm-25 26v-18h4v13a1 1 0 0 0 1 1h13v4zm24-6h-4v-1a1 1 0 0 0 -2 0v1h-12v-12h1a1 1 0 0 0 0-2h-1v-4h18z"
  />
  <path
    d="m14.33 10h3.34a1 1 0 0 0 0-2h-3.34a1 1 0 1 0 0 2z"
  />
  <path
    d="m21 10h1v1a1 1 0 0 0 2 0v-2a1 1 0 0 0 -1-1h-2a1 1 0 0 0 0 2z"
  />
  <path
    d="m23 13.33a1 1 0 0 0 -1 1v3.34a1 1 0 0 0 2 0v-3.34a1 1 0 0 0 -1-1z"
  />
</svg>
