<svg xmlns="http://www.w3.org/2000/svg">
<defs>
<font id="CaviarDreams-Bold" horiz-adv-x="548" >
  <font-face 
    font-family="Caviar Dreams"
    font-weight="700"
    font-stretch="normal"
    units-per-em="2048"
    panose-1="2 11 8 2 2 2 4 2 5 4"
    ascent="1638"
    descent="-410"
    x-height="1029"
    cap-height="1600"
    bbox="-401 -584 2198 2009"
    underline-thickness="150"
    underline-position="-142"
    unicode-range="U+0020-U+FB05"
  />
<missing-glyph horiz-adv-x="1835" 
d="M942 291c0 14.667 -1.33301 22 -4 22h-21v-32h19v10h6zM1481 819c0 15.333 -2 23 -6 23h-21v-31h19v8h8zM1104 1268c5.33301 0 10 3.33301 14 10c6.66699 9.33301 10 22.333 10 39c-1.33301 14.667 -4.66602 27 -9.99902 37c-5.33301 6.66699 -10.666 10 -15.999 10
c-6.66699 0 -12.334 -3.33301 -17.001 -10c-6.66699 -8.66699 -10 -21 -10 -37c1.33301 -16.667 4.66602 -29 9.99902 -37c6 -8 12.333 -12 19 -12zM1456 930c8 0 14.334 3.33301 19.001 10c5.33301 8 8 21 8 39c0 14.667 -3.33301 27 -10 37
c-4.66699 6.66699 -10.334 10 -17.001 10s-12 -3.33301 -16 -10c-5.33301 -10 -8 -22.333 -8 -37c0 -16.667 3.33301 -29.667 10 -39c4 -6.66699 8.66699 -10 14 -10zM377.001 557c8 0 13.999 3.33301 17.999 10c5.33301 10 8 23 8 39c0 16.667 -3.33301 29 -10 37
c-4 6.66699 -9.33301 10 -16 10c-8 0 -14.333 -3.33301 -19 -10c-5.33301 -6.66699 -8 -19 -8 -37c0 -16 3.33301 -28.333 10 -37c4.66699 -8 10.334 -12 17.001 -12zM754 229c6.66699 10 9.99902 23 9.99902 39c0 16.667 -2.66699 29 -8 37
c-5.33301 6.66699 -11.666 10 -18.999 10c-6.66699 0 -12.667 -3.33301 -18 -10c-5.33301 -8 -8 -20.333 -8 -37c0 -17.333 2.66699 -30.333 8 -39c4 -6.66699 9.33301 -10 16 -10s13 3.33301 19 10zM400.999 811c0 13.333 -2 20 -6 20h-20v-30h18v10h8zM957.999 291v-41
h-22v10h-19v-35c0 -5.33301 5 -8 15 -8v-16h-64v16c8.66699 0 13 1.33301 13 4v92c0 2.66699 -4.33301 4 -13 4v17h101v-43h-11zM1294 315h-8v19h49v-19c-6.66699 0 -10.667 -2 -12 -6l-29 -51v-37c0 -2.66699 4.33301 -4 13 -4v-16h-60v16c8.66699 0 13 1.33301 13 4v37

<glyph glyph-name=".notdef" horiz-adv-x="1835" 
d="M942 291c0 14.667 -1.33301 22 -4 22h-21v-32h19v10h6zM1481 819c0 15.333 -2 23 -6 23h-21v-31h19v8h8zM1104 1268c5.33301 0 10 3.33301 14 10c6.66699 9.33301 10 22.333 10 39c-1.33301 14.667 -4.66602 27 -9.99902 37c-5.33301 6.66699 -10.666 10 -15.999 10
c-6.66699 0 -12.334 -3.33301 -17.001 -10c-6.66699 -8.66699 -10 -21 -10 -37c1.33301 -16.667 4.66602 -29 9.99902 -37c6 -8 12.333 -12 19 -12zM1456 930c8 0 14.334 3.33301 19.001 10c5.33301 8 8 21 8 39c0 14.667 -3.33301 27 -10 37
c-4.66699 6.66699 -10.334 10 -17.001 10s-12 -3.33301 -16 -10c-5.33301 -10 -8 -22.333 -8 -37c0 -16.667 3.33301 -29.667 10 -39c4 -6.66699 8.66699 -10 14 -10zM377.001 557c8 0 13.999 3.33301 17.999 10c5.33301 10 8 23 8 39c0 16.667 -3.33301 29 -10 37
c-4 6.66699 -9.33301 10 -16 10c-8 0 -14.333 -3.33301 -19 -10c-5.33301 -6.66699 -8 -19 -8 -37c0 -16 3.33301 -28.333 10 -37c4.66699 -8 10.334 -12 17.001 -12zM754 229c6.66699 10 9.99902 23 9.99902 39c0 16.667 -2.66699 29 -8 37
c-5.33301 6.66699 -11.666 10 -18.999 10c-6.66699 0 -12.667 -3.33301 -18 -10c-5.33301 -8 -8 -20.333 -8 -37c0 -17.333 2.66699 -30.333 8 -39c4 -6.66699 9.33301 -10 16 -10s13 3.33301 19 10zM400.999 811c0 13.333 -2 20 -6 20h-20v-30h18v10h8zM957.999 291v-41
h-22v10h-19v-35c0 -5.33301 5 -8 15 -8v-16h-64v16c8.66699 0 13 1.33301 13 4v92c0 2.66699 -4.33301 4 -13 4v17h101v-43h-11zM1294 315h-8v19h49v-19c-6.66699 0 -10.667 -2 -12 -6l-29 -51v-37c0 -2.66699 4.33301 -4 13 -4v-16h-60v16c8.66699 0 13 1.33301 13 4v37
l-29 51c-2.66699 4 -6.66699 6 -12 6v19h57v-19h-8l12 -26zM579.999 1366h-7v18h45v-18c-5.33301 0 -9.33301 -2 -12 -6l-24 -53v-37c0 -2.66699 4 -4 12 -4v-17h-64v17c10 0 15 1.33301 15 4v37l-31 53c-1.33301 4 -4 6 -8 6v18h53v-18h-8l16 -29zM394.999 1196h-8.00098
v18h47v-18c-5.33301 0 -8.66602 -2 -9.99902 -6l-29 -51v-37c0 -2.66699 4.33301 -4 13 -4v-19h-62v19c8 0 12 1.33301 12 4v37l-26 51c-2.66699 4 -7 6 -13 6v18h56v-18h-8l14 -29zM1497 819v-39h-24v8h-19v-32c0 -5.33301 4.66699 -8 14 -8v-19h-61v19
c8 0 12 1.33301 12 4v90c0 2.66699 -4 4 -12 4v18h100v-45h-10zM1475 485h-9.00098v19h50v-19c-7.33301 0 -11.666 -2 -12.999 -6l-28 -51v-37c0 -2.66699 4 -4 12 -4v-16h-60v16c8.66699 0 13 1.33301 13 4v37l-29 51c-2.66699 4 -6.66699 6 -12 6v19h55v-19h-6l12 -26z
M349.997 1319v-47c0 -2.66699 6.33301 -4 19 -4v-19h-56v19c7.33301 0 11 1.33301 11 4v82c0 8 -3.66699 12 -11 12v18h29l59 -69v47c0 2.66699 -5.33301 4 -16 4v18h55v-18c-6.66699 0 -10 -1.33301 -10 -4v-113h-18zM695.997 1384l43 -86l35 86h41v-18
c-6.66699 0 -10 -4 -10 -12v-82c0 -2.66699 3.33301 -4 10 -4v-19h-53v19c4 0 6 0.666992 6 2v30l-20 -51h-25l-27 54v-31c0 -2.66699 3 -4 9 -4v-19h-46v19c6 0 9 1.33301 9 4v82c0 8 -3 12 -9 12v18h37zM1167 1317c0 -19.333 -5.33203 -35.666 -15.999 -48.999
c-10.667 -14 -26.334 -21 -47.001 -21c-23.333 0 -40.333 7 -51 21c-11.333 13.333 -17 29.666 -17 48.999s5.66699 35 17 47c10.667 13.333 27 20 49 20s38.333 -6.66699 49 -20c10.667 -12 16 -27.667 16 -47zM1251 1319v-47c0 -2.66699 6.33301 -4 19 -4v-19h-58v19
c6 0 9 1.33301 9 4v82c0 8 -3 12 -9 12v18h31l57 -69v47c0 2.66699 -5.33301 4 -16 4v18h55v-18c-5.33301 0 -8 -1.33301 -8 -4v-113h-22zM1511 1384v-45h-26c0 15.333 -2 23 -6 23h-4v-90c0 -2.66699 4 -4 12 -4v-19h-60v19c8.66699 0 13 1.33301 13 4v90h-4
c-4.66699 0 -7 -7.66699 -7 -23h-26v45h108zM916.998 1309v-33c0 -5.33301 5 -8 15 -8v-19h-64v19c8.66699 0 13 1.33301 13 4v90c0 2.66699 -4.33301 4 -13 4v18h101v-45h-27c0 15.333 -1.33301 23 -4 23h-21v-33h19v8h22v-37h-22v9h-19zM1432 268v-47
c0 -2.66699 6 -4 18 -4v-16h-57v16c6.66699 0 10 1.33301 10 4v82c0 8 -3.33301 12 -10 12v19h30l58 -70v47c0 2.66699 -5.66699 4 -17 4v19h58v-19c-7.33301 0 -11 -1.33301 -11 -4v-110h-20zM1417 684l41 -86l37 86h41v-18c-5.33301 0 -8 -4.33301 -8 -13v-82
c0 -2.66699 2.66699 -4 8 -4v-16h-55v16c6.66699 0 10 0.666992 10 2v29l-25 -47h-22l-27 51v-31c0 -2.66699 2.66699 -4 8 -4v-16h-47v16c5.33301 0 8 1.33301 8 4v82c0 8.66699 -2.66699 13 -8 13v18h39zM1522 977c0 -19.333 -5.00195 -34.999 -15.002 -46.999
c-10.667 -14 -27.667 -21 -51 -21c-22 0 -37.667 6.33301 -47 19c-10.667 13.333 -16 29.666 -16 48.999c0 20.667 4.66699 37 14 49c10.667 14 26.334 21 47.001 21c24.667 0 42.334 -7 53.001 -21c10 -12 15 -28.333 15 -49zM1432 1157v-45c0 -2.66699 6 -4 18 -4v-18h-57
v18c6.66699 0 10 1.33301 10 4v82c0 8 -3.33301 12 -10 12v19h30l58 -72v49c0 2.66699 -5.66699 4 -17 4v19h58v-19c-7.33301 0 -11 -1.33301 -11 -4v-112h-20zM429.996 336.001v-43h-25c0 13.333 -2 20 -6 20h-4v-90c0 -2.66699 4.33301 -4 13 -4v-16h-62v16
c8 0 12 1.33301 12 4v90h-4c-4 0 -6 -6.66699 -6 -20h-24v43h106zM337.996 1034l41 -84l37 84h39v-16c-6 0 -9 -4.66699 -9 -14v-82c0 -2.66699 3 -4 9 -4v-19h-54v19c7.33301 0 11 1.33301 11 4v28l-25 -51h-25l-24 53v-30c0 -2.66699 2 -4 6 -4v-19h-45v19
c5.33301 0 8 1.33301 8 4v82c0 9.33301 -2.66699 14 -8 14v16h39zM439.996 606.001c0 -20.667 -4.00098 -37 -12.001 -49c-10.667 -12 -27.667 -18 -51 -18s-39 6 -47 18c-11.333 12 -17 28.333 -17 49s5 36.334 15 47.001c9.33301 14 25 21 47 21
c24.667 0 42.334 -7 53.001 -21c8 -10.667 12 -26.334 12 -47.001zM349.995 428.001v-45c0 -2.66699 6.33301 -4 19 -4v-19h-56v19c7.33301 0 11 1.33301 11 4v82c0 6.66699 -3.66699 10 -11 10v19h29l59 -70v47c0 2.66699 -5.33301 4 -16 4v19h55v-19
c-6.66699 0 -10 -1.33301 -10 -4v-111h-18zM1061 334.001l43 -84l37 84h39v-17c-6 0 -9 -4.66699 -9 -14v-82c0 -2.66699 3 -4 9 -4v-16h-54v16c6 0 9 1.33301 9 4v29l-23 -49h-22l-27 51v-31c0 -2.66699 2.66699 -4 8 -4v-16h-47v16c5.33301 0 8 1.33301 8 4v82
c0 9.33301 -2.66699 14 -8 14v17h37zM685.995 315.001c10.667 14 27.667 20.999 51 20.999c20.667 0 37 -7 49 -21c10 -10.667 15 -27 15 -49c0 -18.667 -5.66699 -35 -17 -49c-10.667 -10.667 -27 -16 -49 -16s-38.333 6 -49 18c-9.33301 12.667 -14 28.334 -14 47.001
c0 22 4.66699 38.333 14 49zM536.995 268v-47c0 -2.66699 6 -4 18 -4v-16h-55v16c5.33301 0 8 1.33301 8 4v82c0 9.33301 -2.66699 14 -8 14v17h28l60 -70v49c0 2.66699 -6.33301 4 -19 4v17h56v-17c-7.33301 0 -11 -1.33301 -11 -4v-112h-18zM417.995 811v-41h-25v8h-18
v-33c0 -5.33301 4.66699 -8 14 -8v-16h-61v16c8 0 12 1.33301 12 4v90c0 3.33301 -4 5 -12 5v18h100v-43h-10z" />
    <glyph glyph-name="space" unicode=" " horiz-adv-x="708" 
 />
    <glyph glyph-name="space" unicode="&#xa0;" horiz-adv-x="708" 
 />
    <glyph glyph-name="exclam" unicode="!" horiz-adv-x="541" 
d="M372.5 235c28.333 -28 42.5 -62 42.5 -102c0 -41.333 -14.167 -76 -42.5 -104s-62.5 -42 -102.5 -42c-39.333 0 -73.333 14 -102 42s-43 62.667 -43 104c0 40 14.333 74 43 102s62.667 42 102 42c40 0 74.167 -14 102.5 -42zM372 1600v-1145h-207v1145h207z" />
    <glyph glyph-name="quotedbl" unicode="&#x22;" horiz-adv-x="574" 
d="M25 920v677h207v-677h-207zM342 920v677h207v-677h-207z" />
    <glyph glyph-name="numbersign" unicode="#" horiz-adv-x="1705" 
d="M873 1033h84l102 410h211l-102 -410h411l-53 -207h-410l-22 -88h411l-53 -207h-410l-102 -411h-211l102 411h-84l-102 -411h-212l103 411h-411l53 207h410l22 88h-411l53 207h410l102 410h211zM905 826h-84l-22 -88h84z" />
    <glyph glyph-name="dollar" unicode="$" horiz-adv-x="958" 
d="M571 117l0.000976562 -117h-184v117c-79.333 14.667 -149.333 49 -210 103c-66 58.667 -108.333 143.667 -127 255l212 68c11.333 -97.333 34.333 -161.333 69 -192c17.333 -15.333 36 -27.666 56 -36.999v414c-76.667 28.667 -146.334 70.667 -209.001 126
c-82.667 72.667 -124 160.334 -124 263.001s41.667 191 125 265c60 53.333 129.333 87.333 208 102v116h184v-116c79.333 -14.667 149.333 -49 210 -103c66 -58.667 108.333 -143.667 127 -255l-212 -68c-11.333 97.333 -34.333 161.333 -69 192
c-17.333 15.333 -36 27.666 -56 36.999v-414c76.667 -28.667 146.334 -70.667 209.001 -126c82.667 -72.667 124 -160.334 124 -263.001s-41.333 -190.667 -124 -264c-60.667 -54 -130.334 -88.333 -209.001 -103zM387.001 946v341.001
c-19.333 -8.66699 -37.333 -20.334 -54 -35.001c-41.333 -36.667 -62 -81.667 -62 -135c0 -52 20 -96 60 -132c15.333 -13.333 34 -26.333 56 -39zM571.001 655.001l0.000976562 -341c19.333 8.66699 37.666 20.667 54.999 36c40.667 36 61 80.667 61 134
c0 52 -20 96 -60 132c-15.333 13.333 -34 26.333 -56 39z" />
    <glyph glyph-name="percent" unicode="%" horiz-adv-x="1263" 
d="M1176 1290l-918 -1311l-170 118l917 1310zM549.5 1164.5c53.667 -53.667 80.5 -118.5 80.5 -194.5s-26.833 -140.833 -80.5 -194.5s-118.5 -80.5 -194.5 -80.5s-140.833 26.833 -194.5 80.5s-80.5 118.5 -80.5 194.5s26.833 140.833 80.5 194.5s118.5 80.5 194.5 80.5
s140.833 -26.833 194.5 -80.5zM355 1040c-19.333 0 -35.833 -6.83301 -49.5 -20.5s-20.5 -30.167 -20.5 -49.5c0 -20 6.83301 -36.833 20.5 -50.5s30.167 -20.5 49.5 -20.5s36 6.83301 50 20.5s21 30.5 21 50.5c0 19.333 -7 35.833 -21 49.5s-30.667 20.5 -50 20.5z
M1103.5 611.5c53.667 -53.667 80.5 -118.5 80.5 -194.5c0 -76.667 -26.833 -141.834 -80.5 -195.501s-118.834 -80.5 -195.501 -80.5c-76 0 -140.833 26.833 -194.5 80.5s-80.5 118.834 -80.5 195.501c0 76 26.833 140.833 80.5 194.5s118.5 80.5 194.5 80.5
c76.667 0 141.834 -26.833 195.501 -80.5zM908 487c-19.333 0 -35.833 -6.83301 -49.5 -20.5s-20.5 -30.167 -20.5 -49.5c0 -20 6.83301 -36.833 20.5 -50.5s30.167 -20.5 49.5 -20.5s36 6.83301 50 20.5s21 30.5 21 50.5c0 19.333 -7 35.833 -21 49.5
s-30.667 20.5 -50 20.5z" />
    <glyph glyph-name="ampersand" unicode="&#x26;" horiz-adv-x="1340" 
d="M1240 621c6.66699 -24 10.0029 -47.3291 10.0029 -69.9961c0 -44.667 -11.667 -87 -35 -127c-36 -63.333 -94.667 -107 -176 -131c-14.667 -48.667 -52 -103 -112 -163c-97.333 -98 -215 -147 -353 -147c-137.333 0 -254.833 48.833 -352.5 146.5
s-146.5 215.5 -146.5 353.5c0 136.667 47.667 256 143 358c57.333 56 110 87 158 93c-103.333 104 -155 207.667 -155 311c0 102 36.5 189.667 109.5 263s161.167 110 264.5 110s191.666 -36.333 264.999 -109c41.333 -40 76 -103.667 104 -191l-188 -74
c-22.667 61.333 -43.334 101.333 -62.001 120c-32.667 32 -72.334 48 -119.001 48c-46 0 -85.333 -16.167 -118 -48.5s-49 -71.833 -49 -118.5c0 -47.333 17.167 -89.333 51.5 -126s66 -60.667 95 -72s88.167 -17.333 177.5 -18v-199l-122 -1
c-118 -23.333 -205.833 -66.5 -263.5 -129.5s-86.5 -135.167 -86.5 -216.5s28.667 -150.666 86 -207.999s126.666 -86 207.999 -86c80.667 0 167.334 47.333 260.001 142c-18.667 15.333 -51.667 47.666 -99 96.999c-17.333 16 -31 27.333 -41 34c-9.33301 6 -17 9 -23 9h-1
c-6.66699 -0.666992 -11.334 -4.33398 -14.001 -11.001c-1.33301 -2.66699 -2 -5.33398 -2 -8.00098c0 -4.66699 1.33301 -9.66699 4 -15l-170 -115c-14 20.667 -24.667 44 -32 70c-5.33301 20.667 -8 41 -8 61c0 38 10 74.667 30 110c31.333 54 76.666 89 135.999 105
c20.667 6 41.334 9 62.001 9c38 0 74.333 -10 109 -30c29.333 -16.667 62.833 -47.834 100.5 -93.501s72.834 -70.5 105.501 -74.5c4.66699 -0.666992 9 -1 13 -1c25.333 0 43.333 11.667 54 35c2.66699 6 4 12.333 4 19c0 21.333 -15.333 44.666 -46 69.999l102 177
c62 -36 102.667 -88.667 122 -158z" />
    <glyph glyph-name="quotesingle" unicode="'" horiz-adv-x="458" 
d="M125 920v677h207v-677h-207z" />
    <glyph glyph-name="parenleft" unicode="(" horiz-adv-x="788" 
d="M688 1524c-98 -45.333 -177.333 -106.001 -238 -182.001c-102.667 -129.333 -154 -310 -154 -542c0 -232.667 51.333 -413.334 154 -542.001c60.667 -76.667 140 -138.667 238 -186v-205c-169.333 58.667 -298 143.334 -386 254.001c-134.667 168 -202 394.333 -202 679
s67.333 511 202 679c88 110.667 216.667 195.334 386 254.001v-209z" />
    <glyph glyph-name="parenright" unicode=")" horiz-adv-x="788" 
d="M100 1733c169.333 -58.667 298 -143.333 386 -254c134.667 -168 202 -394.333 202 -679s-67.333 -511 -202 -679c-88 -110.667 -216.667 -195.334 -386 -254.001v205c98 47.333 177.333 109.333 238 186c102.667 128.667 154 309.334 154 542.001
c0 232 -51.333 412.667 -154 542c-60.667 76 -140 136.667 -238 182v209z" />
    <glyph glyph-name="asterisk" unicode="*" horiz-adv-x="932" 
d="M569 1428l144 110l119 -170l-186 -140l186 -139l-119 -170l-144 110v-169h-207v170l-145 -111l-119 170l186 139l-186 140l119 170l145 -111v170h207v-169z" />
    <glyph glyph-name="plus" unicode="+" horiz-adv-x="1112" 
d="M452 505h-327v207h327v327h208v-327h327v-207h-327v-328h-208v328z" />
    <glyph glyph-name="comma" unicode="," horiz-adv-x="537" 
d="M438 278l-231 -480h-197l128 480h300z" />
    <glyph glyph-name="hyphen" unicode="-" horiz-adv-x="919" 
d="M125 712h668v-207h-668v207z" />
    <glyph glyph-name="hyphen" unicode="&#xad;" horiz-adv-x="919" 
d="M125 712h668v-207h-668v207z" />
    <glyph glyph-name="period" unicode="." horiz-adv-x="490" 
d="M347.5 235c28.333 -28 42.5 -62 42.5 -102c0 -41.333 -14.167 -76 -42.5 -104s-62.5 -42 -102.5 -42c-39.333 0 -73.333 14 -102 42s-43 62.667 -43 104c0 40 14.333 74 43 102s62.667 42 102 42c40 0 74.167 -14 102.5 -42z" />
    <glyph glyph-name="slash" unicode="/" horiz-adv-x="855" 
d="M674 1600h231l-725 -1600h-230z" />
    <glyph glyph-name="zero" unicode="0" horiz-adv-x="1289" 
d="M1001 1032c0 98 -34.833 181.667 -104.5 251s-153.834 104 -252.501 104c-98 0 -181.833 -34.667 -251.5 -104s-104.5 -153 -104.5 -251v-489c0 -98.667 34.833 -182.667 104.5 -252s153.5 -104 251.5 -104c98.667 0 182.834 34.667 252.501 104s104.5 153.333 104.5 252
v489zM1213 543c0 -156.667 -55.5 -290.5 -166.5 -401.5s-245.167 -166.5 -402.5 -166.5c-156.667 0 -290.5 55.5 -401.5 166.5s-166.5 244.833 -166.5 401.5v489c0 156.667 55.5 290.5 166.5 401.5s244.833 166.5 401.5 166.5c157.333 0 291.5 -55.5 402.5 -166.5
s166.5 -244.833 166.5 -401.5v-489z" />
    <glyph glyph-name="one" unicode="1" horiz-adv-x="1427" 
d="M893 1600v-1600h-207v1330h-153l210 270h150z" />
    <glyph glyph-name="two" unicode="2" horiz-adv-x="1308" 
d="M372 504.5l277.999 207.499c76.667 57.333 145.167 119 205.5 185s90.5 139.333 90.5 220s-28.5 149.334 -85.5 206.001s-125.833 85 -206.5 85c-79.333 0 -147.666 -28.333 -204.999 -85c-48.667 -48.667 -79 -132.667 -91 -252l-207 75
c21.333 138.667 71 247.334 149 326.001c98 98.667 216 148 354 148c139.333 0 257.833 -49 355.5 -147s146.5 -216.667 146.5 -356c0 -137.333 -47.333 -257 -142 -359c-60 -64.667 -129.833 -126.834 -209.5 -186.501l-265.5 -199.5c-85.333 -63.333 -133 -118 -143 -164
h760v-208h-1003c37.333 255.333 110.333 423.5 219 504.5z" />
    <glyph glyph-name="three" unicode="3" horiz-adv-x="1308" 
d="M599 824l-124.998 3v205c90.667 1.33301 150.334 7.5 179.001 18.5s60 34.5 94 70.5s51 77.333 51 124c0 46 -16 84.833 -48 116.5s-71 47.5 -117 47.5c-45.333 0 -84 -15.667 -116 -47c-18 -18.667 -38.667 -59.334 -62 -122.001l-193 76
c28.667 90 63.667 154.667 105 194c74 73.333 162.667 110 266 110c105.333 0 194.666 -37 267.999 -111s110 -162 110 -264c0 -104 -61.667 -204.333 -185 -301c59.333 -4 121.666 -37.667 186.999 -101c95.333 -102.667 143 -222.667 143 -360
c0 -138.667 -48.833 -257.167 -146.5 -355.5s-216.167 -147.5 -355.5 -147.5c-138 0 -256 49.333 -354 148c-78 78.667 -127.667 187.667 -149 327l207 75c12 -120 42.333 -204.333 91 -253c57.333 -56.667 125.666 -85 204.999 -85c80.667 0 149.5 28.333 206.5 85
s85.5 125.334 85.5 206.001c0 81.333 -28.5 153 -85.5 215s-144.167 104 -261.5 126z" />
    <glyph glyph-name="four" unicode="4" horiz-adv-x="1350" 
d="M854 1600h181v-961h141v-207h-141v-432h-207v432h-655zM828 1133l-295 -494h295v494z" />
    <glyph glyph-name="five" unicode="5" horiz-adv-x="1314" 
d="M450 1168c37.333 8 76.3311 12 116.998 12c74.667 0 146.334 -12 215.001 -36c154 -52.667 268.667 -150 344 -292c47.333 -88 71 -178.667 71 -272c0 -58 -9 -116 -27 -174c-47.333 -154.667 -142 -270.334 -284 -347.001c-86.667 -46 -176.334 -69 -269.001 -69
c-58.667 0 -118 9.33301 -178 28c-124 38 -231.333 118.667 -322 242l146 162c74 -109.333 153.333 -176.666 238 -201.999c38.667 -12 76.334 -18 113.001 -18c58.667 0 116 14.667 172 44c91.333 48.667 152 122.667 182 222c12 38 18 75.667 18 113
c0 58 -15 115.333 -45 172c-49.333 92 -124 155.333 -224 190c-43.333 15.333 -91.333 23 -144 23c-71.333 0 -162.666 -17.667 -273.999 -53l-125 109l180 497v81h586v-207h-411z" />
    <glyph glyph-name="six" unicode="6" horiz-adv-x="1291" 
d="M292 543c0 -98.667 34.833 -182.667 104.5 -252s153.834 -104 252.501 -104c98 0 181.833 34.667 251.5 104s104.5 153.333 104.5 252s-34.833 182.667 -104.5 252s-153.5 104 -251.5 104c-98.667 0 -182.834 -34.667 -252.501 -104s-104.5 -153.333 -104.5 -252z
M412 987c59.333 64 157.667 95.999 295 95.999c138 0 252.667 -45.667 344 -137c110.667 -111.333 166 -245.666 166 -402.999c0 -156.667 -55.333 -290.5 -166 -401.5s-244.667 -166.5 -402 -166.5c-156.667 0 -290.667 55.333 -402 166
c-106.667 107.333 -160.334 256.333 -161.001 447v3c0 188.667 51 354.667 153 498c102.667 144 241.334 314.333 416.001 511h272c-242 -250.667 -413.667 -455 -515 -613z" />
    <glyph glyph-name="seven" unicode="7" horiz-adv-x="1304" 
d="M894.5 995.5c-165.667 -185.667 -293.831 -342.833 -384.498 -471.5s-139.334 -303.334 -146.001 -524.001h-211c8 272.667 63.333 480.834 166 624.501s225 295 367 454s218.333 263.833 229 314.5h-760v207h995c-4.66699 -217.333 -89.834 -418.833 -255.501 -604.5z
" />
    <glyph glyph-name="eight" unicode="8" horiz-adv-x="1294" 
d="M647 192c105.333 0 186.5 28.333 243.5 85s85.5 125.334 85.5 206.001c0 81.333 -28.333 152.333 -85 213c-56 61.333 -137.333 103 -244 125c-107.333 -22 -189 -63.667 -245 -125c-56 -60.667 -84 -131.667 -84 -213c0 -80.667 28.333 -149.334 85 -206.001
s138 -85 244 -85zM647 -20c-164 0 -294.999 49.167 -392.999 147.5s-147 216.833 -147 355.5c0 170.667 93.667 324.334 281 461.001c-90 96.667 -135 197 -135 301c0 102 36.5 190 109.5 264s162.167 111 267.5 111h33c105.333 0 194.666 -37 267.999 -111
s110 -162 110 -264c0 -104 -48.667 -203.333 -146 -298c194.667 -138.667 292 -293.334 292 -464.001c0 -138.667 -49 -257.167 -147 -355.5s-229 -147.5 -393 -147.5zM642.001 1408c-4.66699 0.666992 -8.66602 1 -11.999 1c-45.333 0 -84 -15.833 -116 -47.5
s-48 -70.5 -48 -116.5c0 -46.667 16.833 -88 50.5 -124s64.167 -59.333 91.5 -70c14.667 -5.33301 27.667 -9 39 -11c11.333 2 24.333 5.66699 39 11c26.667 10.667 57 34 91 70s51 77.333 51 124c0 46 -16 84.833 -48 116.5s-71 47.5 -117 47.5
c-2.66699 0 -6.33398 -0.333008 -11.001 -1h-10z" />
    <glyph glyph-name="nine" unicode="9" horiz-adv-x="1291" 
d="M1012 1057c0 98.667 -34.833 182.667 -104.5 252s-153.834 104 -252.501 104c-98 0 -181.833 -34.667 -251.5 -104s-104.5 -153.333 -104.5 -252s34.833 -182.667 104.5 -252s153.5 -104 251.5 -104c98.667 0 182.834 34.667 252.501 104s104.5 153.333 104.5 252z
M892 613c-59.333 -64 -157.667 -95.999 -295 -95.999c-138 0 -252.667 45.667 -344 137c-110.667 111.333 -166 245.666 -166 402.999c0 156.667 55.333 290.5 166 401.5s244.667 166.5 402 166.5c156.667 0 290.667 -55.333 402 -166
c106.667 -107.333 160.334 -256.333 161.001 -447v-3c0 -188.667 -51 -354.667 -153 -498c-102.667 -144 -241.334 -314.333 -416.001 -511h-272c242 250.667 413.667 455 515 613z" />
    <glyph glyph-name="colon" unicode=":" horiz-adv-x="541" 
d="M372.5 235c28.333 -28 42.5 -62 42.5 -102c0 -41.333 -14.167 -76 -42.5 -104s-62.5 -42 -102.5 -42c-39.333 0 -73.333 14 -102 42s-43 62.667 -43 104c0 40 14.333 74 43 102s62.667 42 102 42c40 0 74.167 -14 102.5 -42zM372.5 804c28.333 -28 42.5 -62 42.5 -102
c0 -41.333 -14.167 -76 -42.5 -104s-62.5 -42 -102.5 -42c-39.333 0 -73.333 14 -102 42s-43 62.667 -43 104c0 40 14.333 74 43 102s62.667 42 102 42c40 0 74.167 -14 102.5 -42z" />
    <glyph glyph-name="semicolon" unicode=";" horiz-adv-x="635" 
d="M511 278l-231 -480h-197l128 480h300zM388 804c28.667 -28 43 -62 43 -102c0 -41.333 -14.333 -76 -43 -104s-62.667 -42 -102 -42c-40 0 -74.167 14 -102.5 42s-42.5 62.667 -42.5 104c0 40 14.167 74 42.5 102s62.5 42 102.5 42c39.333 0 73.333 -14 102 -42z" />
    <glyph glyph-name="semicolon" unicode="&#x37e;" horiz-adv-x="635" 
d="M511 278l-231 -480h-197l128 480h300zM388 804c28.667 -28 43 -62 43 -102c0 -41.333 -14.333 -76 -43 -104s-62.667 -42 -102 -42c-40 0 -74.167 14 -102.5 42s-42.5 62.667 -42.5 104c0 40 14.167 74 42.5 102s62.5 42 102.5 42c39.333 0 73.333 -14 102 -42z" />
    <glyph glyph-name="less" unicode="&#x3c;" horiz-adv-x="1504" 
d="M1403 107l-1303 475l1303 474v-221l-697 -253l697 -254v-221z" />
    <glyph glyph-name="equal" unicode="=" horiz-adv-x="1112" 
d="M125 860h862v-208h-862v208zM125 564h862v-207h-862v207z" />
    <glyph glyph-name="greater" unicode="&#x3e;" horiz-adv-x="1504" 
d="M100 328l697 254l-697 253v221l1303 -474l-1303 -475v221z" />
    <glyph glyph-name="question" unicode="?" horiz-adv-x="1028" 
d="M127 1186c0 49.333 12 98.002 36 146.002c45.333 93.333 116.666 157 213.999 191c42.667 14.667 84.667 22 126 22c54.667 0 108.334 -12.667 161.001 -38c93.333 -44.667 157 -115.334 191 -212.001c14 -42 21 -83.667 21 -125c0 -55.333 -12.667 -109.333 -38 -162
c-42 -86.667 -110 -166.334 -204 -239.001c-64 -56.667 -112.667 -120 -146 -190c-20 -41.333 -30.333 -82.333 -31 -123h-206c0.666992 72 18 142.667 52 212c53.333 111.333 132.666 206.666 237.999 285.999c50.667 50 87.334 98 110.001 144c11.333 24.667 17 49 17 73
c0 18 -3 36.333 -9 55c-16 44 -44.667 76 -86 96c-24 11.333 -48 17 -72 17c-18 0 -36.667 -3.33301 -56 -10c-44 -15.333 -76 -43.666 -96 -84.999c-6 -12.667 -10.333 -31.667 -13 -57l-209 -68v67zM518 133.002c0 -41.333 -14.333 -76 -43 -104s-62.667 -42 -102 -42
c-40 0 -74.167 14 -102.5 42s-42.5 62.667 -42.5 104c0 40 14.167 74 42.5 102s62.5 42 102.5 42c39.333 0 73.333 -14 102 -42s43 -62 43 -102z" />
    <glyph glyph-name="at" unicode="@" horiz-adv-x="1643" 
d="M1013 515v108c-6.66699 30 -23.334 58.333 -50.001 85c-38.667 38.667 -85 58 -139 58s-100 -19.333 -138 -58s-57 -85 -57 -139c0 -54.667 19 -101 57 -139s84 -57 138 -57c54.667 0 101 19 139 57c26.667 26.667 43.334 55 50.001 85zM822 212
c-109.333 0 -202.833 32.3359 -280.5 97.0029s-116.5 151.667 -116.5 261c0 108.667 38.833 197 116.5 265s171.167 102 280.5 102c97.333 0 160.333 -24.667 189 -74v52h199l-2 -498v-3c0 -34.667 5.33301 -52 16 -52c9.33301 0 22.666 12 39.999 36
c38 54 57 136.667 57 248s-42.167 209 -126.5 293s-208.5 126 -372.5 126c-163.333 0 -286.833 -42 -370.5 -126s-125.5 -201.333 -125.5 -352s48.5 -274.5 145.5 -371.5s213.833 -145.5 350.5 -145.5c94 0 174.667 21 242 63l142 -149
c-128.667 -75.333 -256.667 -113 -384 -113c-191.333 0 -355.333 68.167 -492 204.5s-205 300.5 -205 492.5c0 191.333 68.333 355.166 205 491.499s300.667 204.5 492 204.5c192.667 0 356.834 -68.333 492.501 -205s203.5 -275.334 203.5 -416.001
s-36.333 -254.667 -109 -342c-60 -71.333 -126.333 -107 -199 -107c-16 0 -32.333 2 -49 6c-92.667 19.333 -142.667 50.666 -150 93.999c-35.333 -54.667 -98.333 -82 -189 -82z" />
    <glyph glyph-name="A" unicode="A" horiz-adv-x="1376" 
d="M825 773l-137 375l-136 -375h273zM744 1600l582 -1600h-220l-206 566h-424l-205 -566h-221l582 1600h112z" />
    <glyph glyph-name="B" unicode="B" horiz-adv-x="1126" 
d="M474 1600c92.667 0 172.001 -32.832 238.001 -98.499s99 -144.834 99 -237.501c0 -95.333 -48 -154.333 -144 -177c69.333 -10 148.166 -59.333 236.499 -148s132.5 -211.334 132.5 -368.001s-55 -292 -165 -406c-103.333 -107.333 -207 -161.666 -311 -162.999v-2h-410
v1600h324zM357.001 927.001v-719h203v3c42.667 2.66699 95.667 37 159 103c70 72 105 157.667 105 257c0 98 -34.833 181.833 -104.5 251.5s-153.5 104.5 -251.5 104.5h-111zM357.001 1393v-253h135c30.667 2.66699 57 14.334 79 35.001c24 22 36 51.667 36 89
s-12.5 68.166 -37.5 92.499s-56.833 36.5 -95.5 36.5h-117z" />
    <glyph glyph-name="C" unicode="C" horiz-adv-x="1642" 
d="M1388 381l155 -138.999c-189.333 -172.667 -389.666 -259 -600.999 -259c-226 0 -418.667 79.667 -578 239s-239 352 -239 578c0 225.333 79.667 418 239 578s352 240 578 240c211.333 0 411.666 -86.333 600.999 -259l-155 -141
c-142.667 126.667 -291.334 190 -446.001 190c-167.333 0 -310.5 -59.333 -429.5 -178s-178.5 -262 -178.5 -430c0 -168.667 59.5 -312.334 178.5 -431.001s262.167 -178 429.5 -178c154.667 0 303.334 63.333 446.001 190z" />
    <glyph glyph-name="D" unicode="D" horiz-adv-x="1250" 
d="M357 1389v-1179c164.667 0 299.667 53 405 159c118.667 118.667 178 262.334 178 431.001c0 168 -59.333 311.667 -178 431c-105.333 105.333 -240.333 158 -405 158zM302 1600c260 -1.33301 462.667 -75 608 -221c159.333 -160.667 239 -353.667 239 -579
c0 -226 -79.667 -419 -239 -579c-145.333 -146 -348 -219.667 -608 -221h-152v1600h152z" />
    <glyph glyph-name="E" unicode="E" horiz-adv-x="1137" 
d="M1012 1600v-207h-655v-489h655v-207h-655v-489h655v-208h-862v1600h862z" />
    <glyph glyph-name="F" unicode="F" horiz-adv-x="1045" 
d="M920 1600v-207h-563v-489h563v-207h-563v-697h-207v1600h770z" />
    <glyph glyph-name="G" unicode="G" horiz-adv-x="1668" 
d="M1507 219c-164.667 -157.333 -352.998 -235.999 -564.998 -235.999c-226 0 -418.667 79.667 -578 239s-239 352 -239 578c0 225.333 79.667 418 239 578s352 240 578 240c211.333 0 411.666 -86.333 600.999 -259l-155 -141c-142.667 126.667 -291.334 190 -446.001 190
c-167.333 0 -310.5 -59.333 -429.5 -178s-178.5 -262 -178.5 -430c0 -168.667 59.5 -312.334 178.5 -431.001s262.167 -178 429.5 -178c144 0 263.333 38 358 114v483h207v-569z" />
    <glyph glyph-name="H" unicode="H" horiz-adv-x="1208" 
d="M357 662v-662h-207v1600h207v-731h494v731h207v-1600h-207v662h-494z" />
    <glyph glyph-name="I" unicode="I" 
d="M377 1600v-1600h-207v1600h207z" />
    <glyph glyph-name="J" unicode="J" horiz-adv-x="937" 
d="M781 343c0 -110.667 -30.335 -196.668 -91.002 -258.001c-64.667 -65.333 -143 -98 -235 -98c-91.333 0 -169.166 32.5 -233.499 97.5s-96.5 151.5 -96.5 259.5l164 64c18.667 -101.333 42.334 -163.666 71.001 -186.999c21.333 -18 50 -27 86 -27h4
c38 0.666992 69.333 13 94 37c20 20.667 30 61 30 121v1248h207v-1257z" />
    <glyph glyph-name="K" unicode="K" horiz-adv-x="1206" 
d="M357 755v-755h-207v1600h207v-504l378 504h262l-491 -658l611 -942h-251l-495 772z" />
    <glyph glyph-name="L" unicode="L" horiz-adv-x="1019" 
d="M150 0v1600h207v-1392h572v-208h-779z" />
    <glyph glyph-name="M" unicode="M" horiz-adv-x="1812" 
d="M388 1600l519 -897l517 897h189v-1600h-207v1156l-499 -864l-501 864v-1156h-207v1600h189z" />
    <glyph glyph-name="N" unicode="N" horiz-adv-x="1357" 
d="M150 1600h189l660 -1142v1142h208v-1600h-181l-669 1156v-1156h-207v1600z" />
    <glyph glyph-name="O" unicode="O" horiz-adv-x="1889" 
d="M1523 1381c160 -160 240 -353 240 -579s-80 -419 -240 -579s-353 -240 -579 -240s-419 80 -579 240s-240 353 -240 579s80 419 240 579s353 240 579 240s419 -80 579 -240zM944 1412c-168.667 0 -312.5 -59.5 -431.5 -178.5s-178.5 -262.833 -178.5 -431.5
s59.667 -312.667 179 -432s263 -179 431 -179c168.667 0 312.5 59.667 431.5 179s178.5 263.333 178.5 432s-59.5 312.5 -178.5 431.5s-262.833 178.5 -431.5 178.5z" />
    <glyph glyph-name="P" unicode="P" horiz-adv-x="1145" 
d="M357 512l-0.000976562 -512h-207v1600h454c128.667 -17.333 237.334 -70.333 326.001 -159c106 -106.667 159 -234.667 159 -384c0 -150.667 -53 -279.167 -159 -385.5s-234 -159.5 -384 -159.5h-189zM356.999 1392v-672h189c92 0 170.833 32.833 236.5 98.5
s98.5 145.167 98.5 238.5c0 92.667 -32.833 171.667 -98.5 237s-144.5 98 -236.5 98h-189z" />
    <glyph glyph-name="Q" unicode="Q" horiz-adv-x="1889" 
d="M944 1412c-168.667 0 -312.5 -59.5 -431.5 -178.5s-178.5 -262.833 -178.5 -431.5s59.667 -312.667 179 -432s263 -179 431 -179c168.667 0 312.5 59.667 431.5 179s178.5 263.333 178.5 432s-59.5 312.5 -178.5 431.5s-262.833 178.5 -431.5 178.5zM1286 55
c15.333 -9.33301 31.335 -20 48.002 -32c46.667 -24.667 78.334 -39.667 95.001 -45c7.33301 -2 14.333 -3 21 -3c11.333 0 22.666 3.33301 33.999 10c17.333 10 28.666 24.667 33.999 44c2 6 4.33301 30.667 7 74h209c-4.66699 -65.333 -10 -108.666 -16 -129.999
c-21.333 -74 -65.666 -129.667 -132.999 -167c-42.667 -24.667 -87.334 -37 -134.001 -37c-26 0 -52 3.66699 -78 11c-42.667 11.333 -99.667 40 -171 86c-57.333 30 -97 48.333 -119 55c-12.667 3.33301 -24.667 5 -36 5c-20 0 -39.333 -5.33301 -58 -16
c-30.667 -17.333 -50.667 -43.333 -60 -78c-1.33301 -3.33301 -3.66602 -25.333 -6.99902 -66h-209c5.33301 63.333 10.666 104.666 15.999 123.999c11.333 40.667 28.666 76.667 51.999 108c-157.333 30 -296 105 -416 225c-160 160 -240 353 -240 579s80 419 240 579
s353 240 579 240s419 -80 579 -240s240 -353 240 -579s-80 -419 -240 -579c-72 -72 -151 -128 -237 -168z" />
    <glyph glyph-name="R" unicode="R" horiz-adv-x="1171" 
d="M357 1392v-672h189c92 0 170.833 32.833 236.5 98.5s98.5 145.167 98.5 238.5c0 92.667 -32.833 171.667 -98.5 237s-144.5 98 -236.5 98h-189zM546 512h-189.001v-512h-207v1600h454c128.667 -17.333 237.334 -70.333 326.001 -159c106 -106.667 159 -234.667 159 -384
c0 -150.667 -53 -279.334 -159 -386.001c-73.333 -73.333 -129.333 -114.666 -168 -123.999l355 -547h-251z" />
    <glyph glyph-name="S" unicode="S" horiz-adv-x="1101" 
d="M557 821c-113.333 38 -205.165 92.168 -275.498 162.501s-105.5 157.5 -105.5 261.5c0 102 36.5 189.667 109.5 263s161.5 110 265.5 110c102.667 0 190.667 -36.333 264 -109c41.333 -40 76 -103.667 104 -191l-188 -74c-22.667 61.333 -43.334 101.333 -62.001 120
c-32.667 32 -72 48 -118 48c-46.667 0 -86.334 -16.167 -119.001 -48.5s-49 -71.833 -49 -118.5s16.333 -86.334 49 -119.001c36.667 -36 87.334 -69 152.001 -99c125.333 -40.667 231.666 -104.667 318.999 -192c98 -96.667 147 -214 147 -352
s-48.833 -255.833 -146.5 -353.5s-215.167 -146.5 -352.5 -146.5c-138 0 -255.667 49 -353 147c-78 78 -127.333 185.667 -148 323l201 73c12.667 -118 43.667 -201.667 93 -251c57.333 -57.333 126.333 -86 207 -86s149.667 28.667 207 86s86 126.666 86 207.999
c0 80.667 -28.667 149.667 -86 207c-54.667 54.667 -121.667 98.334 -201 131.001z" />
    <glyph glyph-name="T" unicode="T" horiz-adv-x="1054" 
d="M631 1393v-1393h-208v1393h-373v207h954v-207h-373z" />
    <glyph glyph-name="U" unicode="U" horiz-adv-x="1388" 
d="M1030 1600l208 0.000976562v-1127c-18 -128.667 -71 -237.334 -159 -326.001c-106.667 -106.667 -235 -160 -385 -160s-278.167 53.167 -384.5 159.5s-159.5 234.5 -159.5 384.5v1069h208v-1069c0 -92 32.833 -170.833 98.5 -236.5s144.834 -98.5 237.501 -98.5
c93.333 0 172.666 32.667 237.999 98s98 144.333 98 237v1069z" />
    <glyph glyph-name="V" unicode="V" horiz-adv-x="1376" 
d="M631 0l-581 1600h220l417 -1147l418 1147h221l-583 -1600h-112z" />
    <glyph glyph-name="W" unicode="W" horiz-adv-x="1686" 
d="M739 299l0.00292969 1301h207v-1301c6.66699 -11.333 18 -25.333 34 -42c43.333 -41.333 94.666 -62 153.999 -62s110.666 21.167 153.999 63.5s65 93.166 65 152.499v1189h208v-1197c-2.66699 -112.667 -44.334 -209.334 -125.001 -290.001
c-83.333 -84 -184 -126 -302 -126c-117.333 0 -214.333 41.333 -291 124c-77.333 -82.667 -174.666 -124 -291.999 -124c-118 0 -218.333 42 -301 126c-81.333 80 -123 176.667 -125 290v1197h207v-1189c0 -59.333 21.667 -110.166 65 -152.499s94.666 -63.5 153.999 -63.5
c60 0 111.333 20.667 154 62c16.667 16.667 28 30.667 34 42z" />
    <glyph glyph-name="X" unicode="X" horiz-adv-x="1347" 
d="M50 0l503 873l-419 727h238l300 -521l302 521h238l-421 -727l505 -873h-238l-386 667l-384 -667h-238z" />
    <glyph glyph-name="Y" unicode="Y" horiz-adv-x="1414" 
d="M603 642l-553 958h238l418 -724l419 724h239l-554 -958v-642h-207v642z" />
    <glyph glyph-name="Z" unicode="Z" horiz-adv-x="1463" 
d="M954 1393h-758v207h1116l-805 -1392h760v-208h-1117z" />
    <glyph glyph-name="bracketleft" unicode="[" horiz-adv-x="659" 
d="M332 -138h202v-207h-409v1941h409v-207h-202v-1527z" />
    <glyph glyph-name="backslash" unicode="\" horiz-adv-x="853" 
d="M903 0h-230l-723 1596h231z" />
    <glyph glyph-name="bracketright" unicode="]" horiz-adv-x="659" 
d="M327 1389h-202v207h409v-1941h-409v207h202v1527z" />
    <glyph glyph-name="asciicircum" unicode="^" horiz-adv-x="1078" 
d="M623 1596l355 -615h-239l-199 345l-200 -345h-240l356 615h167z" />
    <glyph glyph-name="underscore" unicode="_" horiz-adv-x="1094" 
d="M25 96h1044v-206h-1044v206z" />
    <glyph glyph-name="grave" unicode="`" horiz-adv-x="669" 
d="M569 1128h-197l-272 279h252z" />
    <glyph glyph-name="a" unicode="a" horiz-adv-x="1401" 
d="M1042 466v151.998c-12 64.667 -44 123.334 -96 176.001c-70 69.333 -154 104 -252 104c-98.667 0 -182.834 -34.667 -252.501 -104s-104.5 -153.333 -104.5 -252c0 -98 34.833 -181.833 104.5 -251.5s153.834 -104.5 252.501 -104.5c98 0 182 34.667 252 104
c52 52.667 84 111.334 96 176.001zM1042 956.998v72h208v-1030h-208v129c-100 -103.333 -216 -155 -348 -155c-157.333 0 -291.5 55.5 -402.5 166.5s-166.5 245.167 -166.5 402.5s55.5 291.5 166.5 402.5s245.167 166.5 402.5 166.5c132 0 248 -51.333 348 -154z" />
    <glyph glyph-name="b" unicode="b" horiz-adv-x="1400" 
d="M357 623v-161.001c12.667 -62.667 44.667 -119.667 96 -171c70 -69.333 154.333 -104 253 -104s182.834 34.667 252.501 104s104.5 153.333 104.5 252c0 98 -34.833 182 -104.5 252s-153.834 105 -252.501 105s-183 -35 -253 -105
c-51.333 -51.333 -83.333 -108.666 -96 -171.999zM357 127.999v-128.002h-207v1600h207v-642c100 103.333 216.333 155 349 155c157.333 0 291.5 -55.667 402.5 -167s166.5 -245.666 166.5 -402.999s-55.5 -291.666 -166.5 -402.999s-245.167 -167 -402.5 -167
c-132.667 0 -249 51.667 -349 155z" />
    <glyph glyph-name="c" unicode="c" horiz-adv-x="1262" 
d="M965 353l206.999 -73.9961c-50.667 -70 -87.334 -116.333 -110.001 -139c-111.333 -111.333 -245.666 -167 -402.999 -167c-156.667 0 -290.667 55.667 -402 167s-167 245.666 -167 402.999s55.667 291.666 167 402.999s245.333 167 402 167
c157.333 0 291.666 -55.667 402.999 -167c22.667 -22.667 59.334 -68.334 110.001 -137.001l-207 -76c-26.667 32.667 -44.667 53.667 -54 63c-69.333 69.333 -153.333 104 -252 104c-98 0 -181.833 -34.833 -251.5 -104.5s-104.5 -153.834 -104.5 -252.501
c0 -98 34.833 -181.833 104.5 -251.5s153.5 -104.5 251.5 -104.5c98.667 0 183 34.667 253 104c8.66699 9.33301 26.334 30 53.001 62z" />
    <glyph glyph-name="d" unicode="d" horiz-adv-x="1401" 
d="M1043 466v152.999c-12 64.667 -44.333 123.334 -97 176.001c-69.333 70 -153.333 105 -252 105s-182.834 -35 -252.501 -105s-104.5 -154 -104.5 -252c0 -98.667 34.833 -182.667 104.5 -252s153.834 -104 252.501 -104s182.667 34.667 252 104
c52.667 52.667 85 111 97 175zM1043 957.999v642.002h208v-1600h-208v128c-100 -103.333 -216.333 -155 -349 -155c-157.333 0 -291.5 55.667 -402.5 167s-166.5 245.666 -166.5 402.999s55.5 291.666 166.5 402.999s245.167 167 402.5 167c132.667 0 249 -51.667 349 -155z
" />
    <glyph glyph-name="e" unicode="e" horiz-adv-x="1262" 
d="M470 233c34.667 -30.667 97.666 -45.998 188.999 -45.998c98.667 0 183 34.667 253 104c8.66699 9.33301 26.334 30 53.001 62l207 -74c-50.667 -70 -87.334 -116.333 -110.001 -139c-111.333 -111.333 -245.666 -167 -402.999 -167c-156.667 0 -290.667 55.667 -402 167
s-167 245.666 -167 402.999s55.667 291.666 167 402.999s245.333 167 402 167c134.667 0 252.667 -40.667 354 -122c16.667 -14 33 -29 49 -45c6.66699 -6.66699 25.667 -27.667 57 -63l-104 -105zM815.999 873.002c-23.333 18 -75.667 27.001 -157 27.001
c-98 0 -181.833 -34.833 -251.5 -104.5s-104.5 -153.834 -104.5 -252.501c0 -80.667 9 -133 27 -157z" />
    <glyph glyph-name="f" unicode="f" horiz-adv-x="626" 
d="M390 823l-0.00195312 -823.999h-208v824h-92v207h92v185c4.66699 85.333 37.334 158.666 98.001 219.999c62.667 58.667 135.334 88 218.001 88c41.333 0 104 -14.333 188 -43l-69 -196c-58.667 24.667 -95.667 37 -111 37c-28 0 -55 -11.667 -81 -35
c-22 -22 -33.667 -48.333 -35 -79v-177h185v-207h-185z" />
    <glyph glyph-name="g" unicode="g" horiz-adv-x="1405" 
d="M1042 623c-12.667 63.333 -44.667 120.668 -96 172.001c-69.333 70 -153.333 105 -252 105s-182.834 -35 -252.501 -105s-104.5 -154 -104.5 -252c0 -98.667 34.833 -182.834 104.5 -252.501s153.834 -104.5 252.501 -104.5s182.667 34.667 252 104
c51.333 51.333 83.333 108 96 170v163zM1043 958.002l-0.00195312 71h208v-765c0 -200 -54.333 -354.333 -163 -463c-111.333 -98 -245.666 -147 -402.999 -147s-291.666 49 -402.999 147c-22.667 22.667 -59 68.667 -109 138l206 74c26.667 -32 44.667 -52.667 54 -62
c70 -69.333 154 -104 252 -104c164.667 0 278.667 108 342 324c-64.667 -125.333 -175.667 -188 -333 -188s-291.5 54 -402.5 162s-166.5 240.667 -166.5 398s55.5 291.5 166.5 402.5s245.167 166.5 402.5 166.5c132.667 0 249 -51.333 349 -154z" />
    <glyph glyph-name="h" unicode="h" horiz-adv-x="1125" 
d="M150 1600l208.001 0.000976562v-682c58 111.333 142 167 252 167s197.833 -39.5 263.5 -118.5s99.5 -178.167 101.5 -297.5v-669h-207v661c0 59.333 -16.833 110.166 -50.5 152.499s-86.834 63.5 -159.501 63.5c-86 0 -152.667 -46 -200 -138v-739h-208v1600z" />
    <glyph glyph-name="i" unicode="i" horiz-adv-x="541" 
d="M374 1029v-1029h-207v1029h207zM373 1410c28.667 -28 43 -62.333 43 -103s-14.333 -75 -43 -103s-63 -42 -103 -42c-39.333 0 -73.333 14 -102 42s-43 62.333 -43 103s14.333 75 43 103s62.667 42 102 42c40 0 74.333 -14 103 -42z" />
    <glyph glyph-name="j" unicode="j" horiz-adv-x="561" 
d="M49 -10c74.667 8 112 31.334 112 70.001v969h207v-967c0 -168.667 -106.333 -261.334 -319 -278.001v206zM367 1410c28.667 -28 43 -62.333 43 -103s-14.333 -75 -43 -103s-63 -42 -103 -42c-39.333 0 -73.333 14 -102 42s-43 62.333 -43 103s14.333 75 43 103
s62.667 42 102 42c40 0 74.333 -14 103 -42z" />
    <glyph glyph-name="k" unicode="k" horiz-adv-x="944" 
d="M785 1029l-279 -344l388 -685h-247l-280 513l-9 -11v-502h-208v1415h208v-582l160 196h267z" />
    <glyph glyph-name="l" unicode="l" horiz-adv-x="508" 
d="M358 1601v-1601h-208v1601h208z" />
    <glyph glyph-name="m" unicode="m" horiz-adv-x="1418" 
d="M150 1029l207 0.000976562v-96c40 100.667 117 151 231 151c113.333 0 177 -57.333 191 -172c32.667 114.667 122.667 172 270 172c145.333 0 218 -88.333 218 -265v-819h-208v724c0 101.333 -41 152 -123 152c-34 0 -63.333 -12 -88 -36s-37 -104.667 -37 -242v-598
h-207l1 724c0 101.333 -41.333 152 -124 152c-34 0 -63.333 -12 -88 -36c-21.333 -20.667 -33.333 -75.334 -36 -164.001v-676h-207v1029z" />
    <glyph glyph-name="n" unicode="n" horiz-adv-x="1139" 
d="M358 753l-0.000976562 -752.998h-208v1029h208v-120c43.333 117.333 130.333 176 261 176c111.333 0 199.833 -39.5 265.5 -118.5s99.5 -178.167 101.5 -297.5v-669h-207v661c0 59.333 -21.667 110.166 -65 152.499s-95 63.5 -155 63.5
c-59.333 0 -110.666 -20.667 -153.999 -62c-24 -24.667 -39.667 -45.334 -47 -62.001z" />
    <glyph glyph-name="o" unicode="o" horiz-adv-x="1318" 
d="M659 1113c157.333 0 291.5 -55.667 402.5 -167s166.5 -245.666 166.5 -402.999s-55.5 -291.666 -166.5 -402.999s-245.167 -167 -402.5 -167c-156.667 0 -290.667 55.667 -402 167s-167 245.666 -167 402.999s55.667 291.666 167 402.999s245.333 167 402 167zM406.5 795
c-69.667 -70 -104.5 -154 -104.5 -252c0 -98.667 34.833 -182.667 104.5 -252s153.834 -104 252.501 -104s182.834 34.667 252.501 104s104.5 153.333 104.5 252c0 98 -34.833 182 -104.5 252s-153.834 105 -252.501 105s-182.834 -35 -252.501 -105z" />
    <glyph glyph-name="p" unicode="p" horiz-adv-x="1375" 
d="M357 623v-161.003c12.667 -63.333 45 -120.666 97 -171.999c69.333 -69.333 153.333 -104 252 -104s182.834 34.833 252.501 104.5s104.5 153.834 104.5 252.501c0 98 -34.833 182 -104.5 252s-153.834 105 -252.501 105s-182.667 -35 -252 -105
c-52 -51.333 -84.333 -108.666 -97 -171.999zM357 127.997v-474.001h-207v1375h207v-93c100 117.333 216.333 176 349 176c157.333 0 291.5 -55.5 402.5 -166.5s166.5 -245.167 166.5 -402.5s-55.5 -291.666 -166.5 -402.999s-245.167 -167 -402.5 -167
c-132.667 0 -249 51.667 -349 155z" />
    <glyph glyph-name="q" unicode="q" horiz-adv-x="1376" 
d="M1018 466v152.999c-12 64.667 -44.333 123.334 -97 176.001c-69.333 70 -153.333 105 -252 105s-182.834 -35 -252.501 -105s-104.5 -154 -104.5 -252c0 -98.667 34.833 -182.834 104.5 -252.501s153.834 -104.5 252.501 -104.5s182.667 34.667 252 104
c52.667 52.667 85 111.334 97 176.001zM1018 957.999v71.001h208v-1375h-208v474c-100 -103.333 -216.333 -155 -349 -155c-157.333 0 -291.5 55.667 -402.5 167s-166.5 245.666 -166.5 402.999s55.5 291.5 166.5 402.5s245.167 166.5 402.5 166.5
c132.667 0 249 -51.333 349 -154z" />
    <glyph glyph-name="r" unicode="r" horiz-adv-x="693" 
d="M357 890c77.333 104.667 172.333 159.667 285 165v-215c-75.333 -4 -135.333 -28.333 -180 -73c-67.333 -66.667 -102.333 -146 -105 -238v-529h-207v1029h207v-139z" />
    <glyph glyph-name="s" unicode="s" horiz-adv-x="882" 
d="M358 221c24.667 -24 54.002 -36.0029 88.002 -36.0029s63.167 12 87.5 36s36.5 53.667 36.5 89c0 34 -12 63 -36 87c-16.667 16.667 -52.334 42.334 -107.001 77.001c-74.667 40.667 -127.667 76.667 -159 108c-54.667 54.667 -82 120.334 -82 197.001
c0 77.333 27.333 143.5 82 198.5s120.667 82.5 198 82.5s141.666 -26 192.999 -78c36.667 -36.667 60 -77.667 70 -123l-201 -58c-4.66699 16.667 -9.33398 27.667 -14.001 33c-12 12 -28 18 -48 18s-37.167 -7.16699 -51.5 -21.5s-21.5 -31.5 -21.5 -51.5s7 -37 21 -51
c12.667 -12 41.334 -32.333 86.001 -61c82.667 -45.333 142.667 -86.666 180 -123.999c64.667 -65.333 97 -143 97 -233c0 -92 -32.167 -170.5 -96.5 -235.5s-142.5 -97.5 -234.5 -97.5c-91.333 0 -169.333 32.667 -234 98c-44.667 44.667 -74 100.334 -88 167.001l206 44
c6 -30.667 15.333 -52.334 28 -65.001z" />
    <glyph glyph-name="t" unicode="t" horiz-adv-x="758" 
d="M275 1029v386h207v-386h185v-207h-185v-822h-207v822h-185v207h185z" />
    <glyph glyph-name="u" unicode="u" horiz-adv-x="1162" 
d="M586 -14c-130 0 -234.667 39.667 -314 119s-120 178.666 -122 297.999v626h208v-618c0 -59.333 21.667 -110.333 65 -153s97.333 -64 162 -64c59.333 0 110.833 21.167 154.5 63.5s65.5 93.5 65.5 153.5v618h207v-626c-2 -119.333 -42.333 -218.666 -121 -297.999
c-79.333 -79.333 -181 -119 -305 -119z" />
    <glyph glyph-name="v" unicode="v" horiz-adv-x="1188" 
d="M541 0l-491 1029h234l309 -668l310 668h234l-492 -1029h-104z" />
    <glyph glyph-name="w" unicode="w" horiz-adv-x="1418" 
d="M604 305l-0.00195312 724h207v-707c0 -36.667 12.333 -67.167 37 -91.5s54 -36.5 88 -36.5c82 0 123 51 123 153v682h208v-721c-3.33301 -88 -35.666 -162.667 -96.999 -224c-64.667 -65.333 -142.667 -98 -234 -98c-92 0 -167.667 32 -227 96
c-60.667 -64 -136.667 -96 -228 -96c-92 0 -170.333 32.667 -235 98c-61.333 61.333 -93.333 136 -96 224v721h207v-682c0 -102 41.333 -153 124 -153c34 0 63.333 12 88 36c20.667 20.667 32.334 45.667 35.001 75z" />
    <glyph glyph-name="x" unicode="x" horiz-adv-x="1031" 
d="M906 1029l-272 -470l322 -559h-239l-201 346l-200 -346h-241l323 559l-271 470h239l150 -257l149 257h241z" />
    <glyph glyph-name="y" unicode="y" horiz-adv-x="1139" 
d="M403 -346h-219l274 575l-383 800h233l261 -563l261 563h232z" />
    <glyph glyph-name="z" unicode="z" horiz-adv-x="1125" 
d="M618 822h-423v207h780l-469 -821h459v-208h-815z" />
    <glyph glyph-name="braceleft" unicode="{" horiz-adv-x="941" 
d="M125 749l163 -0.00195312c55.333 35.333 92 84.333 110 147c10 38.667 15 80 15 124c0 24 -1.66699 48.333 -5 73c-8.66699 46.667 -13 91.334 -13 134.001c0 46.667 5.33301 90.667 16 132c23.333 85.333 74 150 152 194c49.333 28.667 101.333 43 156 43
c14.667 0 47 -4 97 -12v-195c-56 9.33301 -87.667 14 -95 14c-21.333 0 -42.333 -5.66699 -63 -17c-30.667 -17.333 -50.667 -43.333 -60 -78c-7.33301 -28.667 -11 -61.667 -11 -99c0 -16.667 0.666992 -33 2 -49c10 -48.667 15 -97.667 15 -147
c0 -57.333 -7 -113.333 -21 -168c-32 -113.333 -71 -187.333 -117 -222c46 -31.333 85 -103.666 117 -216.999c14 -54.667 21 -110.667 21 -168c0 -49.333 -5 -98.333 -15 -147c-1.33301 -16 -2 -32.333 -2 -49c0 -37.333 3.66699 -70.333 11 -99
c9.33301 -34 29.333 -59.667 60 -77c22 -12 43.667 -18 65 -18c7.33301 0 38.333 3.33301 93 10v-191c-50 -8 -82.333 -12 -97 -12c-54.667 0 -106.667 14.333 -156 43c-78 44 -128.667 109 -152 195c-10.667 41.333 -16 85.333 -16 132c0 42.667 4.33301 87 13 133
c3.33301 24.667 5 49 5 73c0 44 -5 85.333 -15 124c-18 62.667 -54.667 111.667 -110 147h-163v247z" />
    <glyph glyph-name="bar" unicode="|" horiz-adv-x="507" 
d="M357 1596v-1941h-207v1941h207z" />
    <glyph glyph-name="braceright" unicode="}" horiz-adv-x="941" 
d="M816 502l-163 0.00195312c-56 -35.333 -92.667 -84.333 -110 -147c-10 -38.667 -15 -80 -15 -124c0 -24 1.33301 -48.333 4 -73c9.33301 -46 14 -90.333 14 -133c0 -46.667 -5.66699 -90.667 -17 -132c-22.667 -86 -73 -151 -151 -195
c-49.333 -28.667 -101.333 -43 -156 -43c-14.667 0 -47 4 -97 12v191c54 -6.66699 84.667 -10 92 -10c22 0 44 6 66 18c30.667 17.333 50.334 43 59.001 77c8 28.667 12 61.667 12 99c0 16.667 -0.666992 33 -2 49c-10 48.667 -15 97.667 -15 147c0 57.333 7 113.333 21 168
c31.333 113.333 70.333 185.666 117 216.999c-46.667 34.667 -85.667 108.667 -117 222c-14 54.667 -21 110.667 -21 168c0 49.333 5 98.333 15 147c1.33301 16 2 32.333 2 49c0 37.333 -4 70.333 -12 99c-8.66699 34.667 -28.334 60.667 -59.001 78
c-20.667 11.333 -41.667 17 -63 17c-7.33301 0 -39 -4.66699 -95 -14v195c50 8 82.333 12 97 12c54.667 0 106.667 -14.333 156 -43c78 -44 128.333 -108.667 151 -194c11.333 -41.333 17 -85.333 17 -132c0 -42.667 -4.33301 -87.334 -13 -134.001
c-3.33301 -24.667 -5 -49 -5 -73c0 -44 5 -85.333 15 -124c17.333 -62.667 54 -111.667 110 -147h163v-247z" />
    <glyph glyph-name="asciitilde" unicode="~" horiz-adv-x="1326" 
d="M692 908c106 -61.333 179.335 -92.002 220.002 -92.002h9c27.333 8.66699 46.666 27.334 57.999 56.001c6 15.333 9 55.333 9 120l213 -33c-6.66699 -74 -17 -129 -31 -165c-35.333 -86 -95.666 -143.333 -180.999 -172c-22 -6.66699 -45.667 -10 -71 -10
c-75.333 0 -171 33 -287 99c-106.667 61.333 -180.334 92 -221.001 92h-7c-27.333 -8.66699 -47 -27 -59 -55c-6 -17.333 -10 -57.666 -12 -120.999l-207 33c3.33301 73.333 12.333 128.333 27 165c35.333 86 96.333 143.333 183 172c21.333 6.66699 44.666 10 69.999 10
c76 0 171.667 -33 287 -99z" />
    <glyph glyph-name="exclamdown" unicode="&#xa1;" horiz-adv-x="541" 
d="M167.5 781c-28.333 28 -42.5 62 -42.5 102c0 41.333 14.167 76 42.5 104s62.5 42 102.5 42c39.333 0 73.333 -14 102 -42s43 -62.667 43 -104c0 -40 -14.333 -74 -43 -102s-62.667 -42 -102 -42c-40 0 -74.167 14 -102.5 42zM168 -584v1145h207v-1145h-207z" />
    <glyph glyph-name="cent" unicode="&#xa2;" horiz-adv-x="1110" 
d="M639 773c28.667 0.666992 68.666 26.665 119.999 77.998c6.66699 6.66699 23.334 26 50.001 58l199 -73c-50.667 -68 -85 -111.333 -103 -130c-91.333 -91.333 -180 -137.666 -266 -138.999v-142h-207v158c-59.333 10.667 -124 51.334 -194 122.001
c-92.667 92 -139 203.333 -139 334c0 130 46.333 241.333 139 334c70 70 134.667 110.667 194 122v158h207v-142c86 -1.33301 174.667 -47.666 266 -138.999c18 -18.667 52.667 -61.334 104 -128.001l-199 -75c-27.333 32.667 -44.333 52.667 -51 60
c-50.667 50 -90.667 75.333 -120 76v-532zM432.999 1278c-85.333 -58.667 -128 -138.333 -128 -239c0 -93.333 42.333 -174 127 -242z" />
    <glyph glyph-name="sterling" unicode="&#xa3;" horiz-adv-x="1214" 
d="M575 509c0 -151.333 -40.666 -268.667 -121.999 -352c54 34.667 113.333 52 178 52c17.333 0 35.333 -1.33301 54 -4c85.333 -12 152.666 -18 201.999 -18c44 0 106.667 10.333 188 31l39 -204c-92.667 -22.667 -168.334 -34 -227.001 -34
c-59.333 0 -119.666 7 -180.999 21c-56 12 -104.667 18 -146 18c-34.667 0 -63.667 -4 -87 -12c-61.333 -22 -135.333 -55 -222 -99l-151 179c104 92 164.667 148.667 182 170c56.667 67.333 85.667 152 87 254h-219v206h173c-0.666992 2 -14.334 29.333 -41.001 82
c-72.667 117.333 -113.667 230.666 -123 339.999c-1.33301 13.333 -2 27 -2 41c0 100 33 189.667 99 269c74 88 170 137.667 288 149c13.333 0.666992 26.333 1 39 1c100 0 190 -33 270 -99c88.667 -76 138.334 -171.667 149.001 -287c2.66699 -16 4 -31.667 4 -47
c0 -47.333 -16 -108 -48 -182l-193 65c20.667 59.333 31 101.333 31 126c0 7.33301 -0.333008 14.333 -1 21c-5.33301 58 -30.666 106 -75.999 144c-40 33.333 -85 50 -135 50c-7.33301 0 -14.333 -0.333008 -21 -1c-58.667 -4.66699 -107 -29.667 -145 -75
c-33.333 -40 -50 -84.667 -50 -134c0 -8 0.333008 -15.667 1 -23c5.33301 -61.333 26.666 -131.666 63.999 -210.999c55.333 -88 91 -164.333 107 -229h194v-206z" />
    <glyph glyph-name="currency" unicode="&#xa4;" horiz-adv-x="1214" 
d="M378 1491c49.333 40 125.666 60 228.999 60c104 0 180.333 -20 229 -60l132 132l146 -147l-132 -132c40.667 -48.667 61 -125 61 -229c0 -103.333 -20.333 -179.333 -61 -228l132 -132l-146 -147l-132 132c-48.667 -40 -125 -60 -229 -60
c-103.333 0 -179.666 20 -228.999 60l-131 -132l-147 147l132 132c-40 48.667 -60 124.667 -60 228c0 104 20 180.333 60 229l-132 132l147 147zM744 1299c-39.333 30 -85.002 45.001 -137.002 45.001s-97.333 -15 -136 -45c-9.33301 -6.66699 -17.666 -13.667 -24.999 -21
c-8 -8 -15.333 -16.667 -22 -26c-30.667 -39.333 -46 -85 -46 -137s15.333 -97.333 46 -136c6 -8.66699 13.333 -17 22 -25c8 -8.66699 16.333 -16 25 -22c38.667 -30 84 -45 136 -45s97.667 15 137 45c8.66699 6.66699 17 14 25 22c8 7.33301 15 15.666 21 24.999
c30.667 38.667 46 84 46 136s-15.333 97.667 -46 137c-6.66699 9.33301 -13.667 18 -21 26c-7.33301 6.66699 -15.666 13.667 -24.999 21z" />
    <glyph glyph-name="yen" unicode="&#xa5;" horiz-adv-x="1414" 
d="M535 760l-485 840h238l418 -724l419 724h239l-486 -840h260v-208h-328v-88h328v-207h-328v-257h-207v257h-327v207h327v88h-327v208h259z" />
    <glyph glyph-name="brokenbar" unicode="&#xa6;" horiz-adv-x="507" 
d="M357 1596v-905h-207v905h207zM357 560v-905h-207v905h207z" />
    <glyph glyph-name="section" unicode="&#xa7;" horiz-adv-x="1205" 
d="M894 497h0.999023c3.33301 0 5 38 5 114c0 80.667 -28.333 149.667 -85 207c-55.333 54.667 -122.666 98.334 -201.999 131.001c-112.667 37.333 -202.667 90 -270 158l-31 13h-1c-4 0 -6 -38.333 -6 -115c0 -80.667 28.667 -149.334 86 -206.001
c54.667 -55.333 121.667 -99 201 -131c112.667 -38 203 -90.667 271 -158zM232.999 1371c0 102 36.498 189.499 109.498 262.499s161.167 109.5 264.5 109.5s191.333 -36.333 264 -109c41.333 -39.333 76 -102.666 104 -189.999l-188 -74
c-22.667 61.333 -43 101.333 -61 120c-32.667 32 -72.334 48 -119.001 48c-46 0 -85.333 -16.167 -118 -48.5s-49 -71.833 -49 -118.5c0 -46 16.333 -85.333 49 -118c36.667 -36 87.334 -69 152.001 -99c124.667 -40.667 230.667 -104.667 318 -192
c97.333 -96.667 146 -213.667 146 -351c0 -138 -44.333 -260 -133 -366c0 -101.333 -36.333 -188.666 -109 -261.999s-161 -110 -265 -110c-102.667 0 -190.667 36.333 -264 109c-41.333 39.333 -75.666 102.666 -102.999 189.999l187 74
c22.667 -61.333 43.334 -101.333 62.001 -120c32.667 -32 72 -48 118 -48s85.333 16.167 118 48.5s49 71.833 49 118.5c0 46 -16.333 85.333 -49 118c-36 36 -86.667 69 -152 99c-124.667 40.667 -230.667 104.667 -318 192c-97.333 96.667 -146 213.667 -146 351
c0 138 44.333 260 133 366z" />
    <glyph glyph-name="dieresis" unicode="&#xa8;" horiz-adv-x="716" 
d="M272 1396c28.667 -28 43 -62 43 -102c0 -40.667 -14.333 -75 -43 -103s-62.667 -42 -102 -42c-40 0 -74.167 14 -102.5 42s-42.5 62.333 -42.5 103c0 40 14.167 74 42.5 102s62.5 42 102.5 42c39.333 0 73.333 -14 102 -42zM648 1396c28.667 -28 43 -62 43 -102
c0 -40.667 -14.333 -75 -43 -103s-62.667 -42 -102 -42c-40 0 -74.167 14 -102.5 42s-42.5 62.333 -42.5 103c0 40 14.167 74 42.5 102s62.5 42 102.5 42c39.333 0 73.333 -14 102 -42z" />
    <glyph glyph-name="copyright" unicode="&#xa9;" horiz-adv-x="1433" 
d="M893 542l181.001 -66.001c-46 -64 -76.333 -103.333 -91 -118c-71.333 -72 -157.666 -108 -258.999 -108s-187.666 35.833 -258.999 107.5s-107 158.167 -107 259.5c0 100.667 35.667 186.834 107 258.501s157.666 107.5 258.999 107.5s187.666 -35.667 258.999 -107
c14.667 -14.667 45 -54 91 -118l-181 -67c-24.667 31.333 -39.334 49.333 -44.001 54c-34 34 -75.667 51 -125 51s-91.5 -17.5 -126.5 -52.5s-52.5 -77.167 -52.5 -126.5s17.5 -91.5 52.5 -126.5s77.167 -52.5 126.5 -52.5s91.333 17.333 126 52
c4.66699 4.66699 19 22 43 52zM1148 1052c120 -120 180 -265 180 -435s-60 -315 -180 -435s-264.667 -180 -434 -180c-170 0 -315 60 -435 180s-180 265 -180 435s60 315 180 435s265 180 435 180c169.333 0 314 -60 434 -180zM714.001 1042
c-118 0 -218.5 -41.5 -301.5 -124.5s-124.5 -183.167 -124.5 -300.5s41.5 -217.666 124.5 -300.999s183.5 -125 301.5 -125c117.333 0 217.5 41.667 300.5 125s124.5 183.666 124.5 300.999s-41.5 217.5 -124.5 300.5s-183.167 124.5 -300.5 124.5z" />
    <glyph glyph-name="ordfeminine" unicode="&#xaa;" horiz-adv-x="1019" 
d="M730 1213v91.001c-8 38.667 -29 74 -63 106c-46 41.333 -101.333 62 -166 62c-65.333 0 -121 -20.833 -167 -62.5s-69 -91.834 -69 -150.501c0 -59.333 23 -109.833 69 -151.5s101.667 -62.5 167 -62.5c64.667 0 120 20.667 166 62c34 32 55 67.333 63 106zM730 1508
v42.999h138v-618h-138v77c-66 -62 -142.333 -93 -229 -93c-104 0 -192.667 33.333 -266 100s-110 147.334 -110 242.001c0 94 36.667 174.333 110 241s162 100 266 100c86.667 0 163 -30.667 229 -92zM956 1347h157v-707h-779v157h622v550z" />
    <glyph glyph-name="guillemotleft" unicode="&#xab;" horiz-adv-x="1222" 
d="M100 489l543 581v-278l-283 -303l283 -304v-280zM578 489l543 581v-278l-283 -303l283 -304v-280z" />
    <glyph glyph-name="registered" unicode="&#xae;" horiz-adv-x="1208" 
d="M809 831c2.66699 4 11.667 13.332 27 27.999c64 64.667 96 142 96 232c0 91.333 -32 169 -96 233l-14 14c47.333 -53.333 71 -116.333 71 -189c0 -80 -28 -148 -84 -204c-29.333 -29.333 -44 -46.666 -44 -51.999c0 -0.666992 1 -1 3 -1h2zM562 1261v-223.001h44
c30.667 0 57 10.833 79 32.5s33 47.834 33 78.501c0 31.333 -11 57.833 -33 79.5s-48.333 32.5 -79 32.5h-44zM562 764.998c14 -1.33301 28.334 -2 43.001 -2c19.333 0 32.666 -0.333008 39.999 -1l-64 99h-19v-96zM387.001 1338
c-5.33301 -4.66699 -10.333 -9.33203 -15 -13.999c-64 -64 -96 -141.667 -96 -233c0 -90 32 -167.333 96 -232c4.66699 -4.66699 9.66699 -9.33398 15 -14.001v493zM605.001 587c-140 0 -259.168 49.333 -357.501 148s-147.5 217.334 -147.5 356.001
c0 139.333 49.167 258.333 147.5 357s217.5 148 357.5 148c138 0 256.333 -49.333 355 -148s148 -217.667 148 -357c0 -138.667 -49.333 -257.334 -148 -356.001c-34.667 -34.667 -82.667 -68 -144 -100s-131.666 -48 -210.999 -48z" />
    <glyph glyph-name="macron" unicode="&#xaf;" horiz-adv-x="717" 
d="M75 1437h567v-207h-567v207z" />
    <glyph glyph-name="degree" unicode="&#xb0;" horiz-adv-x="849" 
d="M619 1515.5c53.333 -53.667 80 -118.5 80 -194.5s-26.667 -140.667 -80 -194s-118 -80 -194 -80s-140.833 26.667 -194.5 80s-80.5 118 -80.5 194s26.833 140.833 80.5 194.5s118.5 80.5 194.5 80.5s140.667 -26.833 194 -80.5zM425 1407c-24 0 -44.333 -8.33301 -61 -25
s-25 -37 -25 -61c0 -23.333 8.33301 -43.333 25 -60s37 -25 61 -25c23.333 0 43.333 8.33301 60 25s25 36.667 25 60c0 24 -8.33301 44.333 -25 61s-36.667 25 -60 25z" />
    <glyph glyph-name="plusminus" unicode="&#xb1;" horiz-adv-x="1110" 
d="M452 207v296h-327v207h327v327h206v-327h327v-207h-327v-296h327v-207h-860v207h327z" />
    <glyph glyph-name="uni00B2" unicode="&#xb2;" horiz-adv-x="979" 
d="M259.5 907c89.667 71.333 158.833 124 207.5 158s90.5 68.667 125.5 104s52.5 72.666 52.5 111.999c0 38.667 -14.833 71.667 -44.5 99s-65.5 41 -107.5 41s-78 -13.667 -108 -41c-25.333 -23.333 -43.333 -81 -54 -173l-205 69c18 108.667 55 189 111 241
c70.667 66 156 99 256 99s185.333 -32.667 256 -98s106 -144.333 106 -237c0 -91.333 -34.333 -170.666 -103 -237.999c-40 -40.667 -113 -85.667 -219 -135s-160.333 -95 -163 -137h485v-193h-730c0 148 44.833 257.667 134.5 329z" />
    <glyph glyph-name="uni00B3" unicode="&#xb3;" horiz-adv-x="979" 
d="M452 1122l-113 2v90l118 1c28 10 50.333 23.167 67 39.5s25 50.5 25 102.5c0 18.667 -6.83301 34.167 -20.5 46.5s-30.5 18.5 -50.5 18.5c-52.667 0 -84.334 -37.333 -95.001 -112l-190 70c26.667 79.333 55.667 133 87 161c55.333 50 121.333 75 198 75
c78.667 0 145.334 -25.5 200.001 -76.5s82 -111.833 82 -182.5c0 -90.667 -45.333 -146 -136 -166c64.667 -14 119.167 -43 163.5 -87s66.5 -111.667 66.5 -203c0 -92 -35.333 -170.833 -106 -236.5s-156 -98.5 -256 -98.5c-99.333 0 -184.666 33 -255.999 99
c-56 52 -93 132.667 -111 242l206 69c10.667 -92.667 28.667 -150.667 54 -174c30 -27.333 65.667 -41 107 -41c42.667 0 78.667 13.667 108 41s44 60.333 44 99c0 40 -15.333 83.833 -46 131.5s-79.334 77.5 -146.001 89.5z" />
    <glyph glyph-name="acute" unicode="&#xb4;" horiz-adv-x="669" 
d="M317 1407h252l-272 -279h-197z" />
    <glyph glyph-name="mu" unicode="&#xb5;" horiz-adv-x="1110" 
d="M755 81c-60 -58 -129.331 -87 -207.998 -87c-114.667 0 -178 22.333 -190 67v-404h-207v1372h207v-720c5.33301 -12 17.333 -27.333 36 -46c43.333 -41.333 94.666 -62 153.999 -62s110.666 21.333 153.999 64c28 27.333 46 55.333 54 84v680h205v-1027h-205v79z" />
    <glyph glyph-name="paragraph" unicode="&#xb6;" horiz-adv-x="1222" 
d="M878 1474v-1799h-207v919h-78c-149.333 0 -277 53 -383 159s-159 234 -159 384s53 278 159 384c88 88 196.667 141 326 159h15v1h646v-207h-41v-1799h-207v1799h-71z" />
    <glyph glyph-name="periodcentered" unicode="&#xb7;" horiz-adv-x="708" 
d="M310.366 887.744c24.083 -23.7998 36.124 -52.6992 36.124 -86.6982c0 -35.1318 -12.041 -64.5977 -36.124 -88.3975s-53.124 -35.6992 -87.123 -35.6992c-33.4326 0 -62.332 11.8994 -86.6982 35.6992s-36.5488 53.2656 -36.5488 88.3975
c0 33.999 12.1826 62.8984 36.5488 86.6982s53.2656 35.6992 86.6982 35.6992c33.999 0 63.04 -11.8994 87.123 -35.6992z" />
    <glyph glyph-name="periodcentered" unicode="&#x2219;" horiz-adv-x="708" 
d="M310.366 887.744c24.083 -23.7998 36.124 -52.6992 36.124 -86.6982c0 -35.1318 -12.041 -64.5977 -36.124 -88.3975s-53.124 -35.6992 -87.123 -35.6992c-33.4326 0 -62.332 11.8994 -86.6982 35.6992s-36.5488 53.2656 -36.5488 88.3975
c0 33.999 12.1826 62.8984 36.5488 86.6982s53.2656 35.6992 86.6982 35.6992c33.999 0 63.04 -11.8994 87.123 -35.6992z" />
    <glyph glyph-name="cedilla" unicode="&#xb8;" horiz-adv-x="418" 
d="M311 17l-22.998 -61.0029c49.333 -25.333 81 -55 95 -89c2.66699 -9.33301 5 -18.333 7 -27s3 -17.334 3 -26.001c0 -28.667 -10.333 -55.667 -31 -81c-32.667 -39.333 -80.667 -63.666 -144 -72.999c-12.667 -2 -27.334 -3 -44.001 -3c-38.667 0 -88.334 5 -149.001 15
l35 126c38 -17.333 69 -26 93 -26c4 0 7.66699 0.333008 11 1c20.667 2.66699 34 14.334 40 35.001c2 4.66699 3 9.66699 3 15c0 2.66699 -0.333008 5.33398 -1 8.00098c-4 18.667 -34.667 37.334 -92 56.001l48 130h149z" />
    <glyph glyph-name="uni00B9" unicode="&#xb9;" horiz-adv-x="1081" 
d="M713 1596v-1026h-208v796h-137l194 230h151z" />
    <glyph glyph-name="ordmasculine" unicode="&#xba;" horiz-adv-x="931" 
d="M466 1600c103.333 0 191.666 -33.333 264.999 -100s110 -147.334 110 -242.001s-36.667 -175.334 -110 -242.001s-161.666 -100 -264.999 -100c-104 0 -192.667 33.333 -266 100s-110 147.334 -110 242.001s36.667 175.334 110 242.001s162 100 266 100zM299 1409
c-46 -42 -69 -92.333 -69 -151c0 -59.333 23 -109.833 69 -151.5s101.667 -62.5 167 -62.5c64.667 0 120 20.833 166 62.5s69 92.167 69 151.5c0 58.667 -23 109 -69 151s-101.333 63 -166 63c-65.333 0 -121 -21 -167 -63zM956 1347h157v-707h-779v157h622v550z" />
    <glyph glyph-name="guillemotright" unicode="&#xbb;" horiz-adv-x="1222" 
d="M100 -95v280l283 304l-283 303v278l543 -581zM578 -95v280l283 304l-283 303v278l543 -581z" />
    <glyph glyph-name="questiondown" unicode="&#xbf;" horiz-adv-x="1028" 
d="M876 -170c0 -49.333 -12 -98.002 -36 -146.002c-45.333 -93.333 -116.666 -157 -213.999 -191c-42.667 -14.667 -84.667 -22 -126 -22c-54.667 0 -108.334 12.667 -161.001 38c-93.333 44.667 -157 115.334 -191 212.001c-14 42 -21 83.667 -21 125
c0 55.333 12.667 109.333 38 162c42 86.667 110 166.334 204 239.001c64 56.667 112.667 120 146 190c20 41.333 30.333 82.333 31 123h206c-0.666992 -72 -18 -142.667 -52 -212c-53.333 -111.333 -132.666 -206.666 -237.999 -285.999
c-50.667 -50 -87.334 -98 -110.001 -144c-11.333 -24.667 -17 -49 -17 -73c0 -18 3 -36.333 9 -55c16 -44 44.667 -76 86 -96c24 -11.333 48 -17 72 -17c18 0 36.667 3.33301 56 10c44 15.333 76 43.666 96 84.999c6 12.667 10.333 31.667 13 57l209 68v-67zM485 882.998
c0 41.333 14.333 76 43 104s62.667 42 102 42c40 0 74.167 -14 102.5 -42s42.5 -62.667 42.5 -104c0 -40 -14.167 -74 -42.5 -102s-62.5 -42 -102.5 -42c-39.333 0 -73.333 14 -102 42s-43 62 -43 102z" />
    <glyph glyph-name="Agrave" unicode="&#xc0;" horiz-adv-x="1376" 
d="M825 773l-137 375l-136 -375h273zM744 1600l582 -1600h-220l-206 566h-424l-205 -566h-221l582 1600h112zM844 1699h-197l-272 279h252z" />
    <glyph glyph-name="Aacute" unicode="&#xc1;" horiz-adv-x="1376" 
d="M825 773l-137 375l-136 -375h273zM744 1600l582 -1600h-220l-206 566h-424l-205 -566h-221l582 1600h112zM749 1978h252l-272 -279h-197z" />
    <glyph glyph-name="Acircumflex" unicode="&#xc2;" horiz-adv-x="1376" 
d="M825 773l-137 375l-136 -375h273zM744 1600l582 -1600h-220l-206 566h-424l-205 -566h-221l582 1600h112zM778 1749l-92 82l-89 -82h-219l233 238h147l241 -238h-221z" />
    <glyph glyph-name="Atilde" unicode="&#xc3;" horiz-adv-x="1376" 
d="M825 773l-137 375l-136 -375h273zM744 1600l582 -1600h-220l-206 566h-424l-205 -566h-221l582 1600h112zM801 1888l0.00195312 -1c20 0 30 13 30 39c0 17.333 -4.33301 40.333 -13 69h186c-25.333 -146.667 -74.333 -230.667 -147 -252
c-18.667 -5.33301 -37.334 -8 -56.001 -8c-49.333 0 -93.833 19 -133.5 57s-68.834 57 -87.501 57h-4c-20 -1.33301 -30 -14.333 -30 -39c0 -16.667 4.66699 -38.667 14 -66h-187c26 146.667 75.667 230.667 149 252c18.667 5.33301 37.334 8 56.001 8
c48.667 0 93.667 -19.333 135 -58s70.666 -58 87.999 -58z" />
    <glyph glyph-name="Adieresis" unicode="&#xc4;" horiz-adv-x="1376" 
d="M825 773l-137 375l-136 -375h273zM744 1600l582 -1600h-220l-206 566h-424l-205 -566h-221l582 1600h112zM602 1967c28.667 -28 43 -62 43 -102c0 -40.667 -14.333 -75 -43 -103s-62.667 -42 -102 -42c-40 0 -74.167 14 -102.5 42s-42.5 62.333 -42.5 103
c0 40 14.167 74 42.5 102s62.5 42 102.5 42c39.333 0 73.333 -14 102 -42zM978 1967c28.667 -28 43 -62 43 -102c0 -40.667 -14.333 -75 -43 -103s-62.667 -42 -102 -42c-40 0 -74.167 14 -102.5 42s-42.5 62.333 -42.5 103c0 40 14.167 74 42.5 102s62.5 42 102.5 42
c39.333 0 73.333 -14 102 -42z" />
    <glyph glyph-name="Aring" unicode="&#xc5;" horiz-adv-x="1376" 
d="M825 773l-137 375l-136 -375h273zM691 1738c14.667 0 27.334 5.16699 38.001 15.5s16 23.166 16 38.499c0 18.667 -5.33301 33.167 -16 43.5s-23.334 15.5 -38.001 15.5c-18.667 0 -33.167 -5.16699 -43.5 -15.5s-15.5 -24.833 -15.5 -43.5
c0 -15.333 5.16699 -28.166 15.5 -38.499s24.833 -15.5 43.5 -15.5zM747 1592l579 -1592h-220l-206 566h-424l-205 -566h-221l579 1592c-33.333 9.33301 -63 27.333 -89 54c-41.333 41.333 -62 90.666 -62 147.999c0 58 20.5 107.667 61.5 149s90.833 62 149.5 62
c58 0 107.5 -20.667 148.5 -62s61.5 -91 61.5 -149c0 -57.333 -20.333 -106.666 -61 -147.999c-26.667 -26.667 -57 -44.667 -91 -54z" />
    <glyph glyph-name="AE" unicode="&#xc6;" horiz-adv-x="1715" 
d="M1591 1600v-207h-655v-489h655v-207h-655v-489h655v-208h-862v566h-194l-242 -566h-253l689 1548v52h862zM729 1028l-110 -255h110v255z" />
    <glyph glyph-name="Ccedilla" unicode="&#xc7;" horiz-adv-x="1642" 
d="M780 -2c-157.333 29.333 -295.998 103.998 -415.998 223.998c-159.333 159.333 -239 352 -239 578c0 225.333 79.667 418 239 578s352 240 578 240c211.333 0 411.666 -86.333 600.999 -259l-155 -141c-142.667 126.667 -291.334 190 -446.001 190
c-167.333 0 -310.5 -59.333 -429.5 -178s-178.5 -262 -178.5 -430c0 -168.667 59.5 -312.334 178.5 -431.001s262.167 -178 429.5 -178c154.667 0 303.334 63.333 446.001 190l155 -139c-189.333 -172.667 -389.666 -259 -600.999 -259h-19l-10 -27
c49.333 -25.333 81 -55 95 -89c2.66699 -9.33301 5 -18.333 7 -27s3 -17.334 3 -26.001c0 -28.667 -10.333 -55.667 -31 -81c-32.667 -39.333 -80.667 -63.666 -144 -72.999c-12.667 -2 -27.334 -3 -44.001 -3c-38.667 0 -88.334 5 -149.001 15l35 126
c38 -17.333 69 -26 93 -26c4 0 7.66699 0.333008 11 1c20.667 2.66699 34 14.334 40 35.001c2 4.66699 3 9.66699 3 15c0 2.66699 -0.333008 5.33398 -1 8.00098c-4 18.667 -34.667 37.334 -92 56.001z" />
    <glyph glyph-name="Egrave" unicode="&#xc8;" horiz-adv-x="1137" 
d="M1012 1600v-207h-655v-489h655v-207h-655v-489h655v-208h-862v1600h862zM737 1699h-197l-272 279h252z" />
    <glyph glyph-name="Eacute" unicode="&#xc9;" horiz-adv-x="1137" 
d="M1012 1600v-207h-655v-489h655v-207h-655v-489h655v-208h-862v1600h862zM642 1978h252l-272 -279h-197z" />
    <glyph glyph-name="Ecircumflex" unicode="&#xca;" horiz-adv-x="1137" 
d="M1012 1600v-207h-655v-489h655v-207h-655v-489h655v-208h-862v1600h862zM671 1749l-92 82l-89 -82h-219l233 238h147l241 -238h-221z" />
    <glyph glyph-name="Edieresis" unicode="&#xcb;" horiz-adv-x="1137" 
d="M1012 1600v-207h-655v-489h655v-207h-655v-489h655v-208h-862v1600h862zM495 1967c28.667 -28 43 -62 43 -102c0 -40.667 -14.333 -75 -43 -103s-62.667 -42 -102 -42c-40 0 -74.167 14 -102.5 42s-42.5 62.333 -42.5 103c0 40 14.167 74 42.5 102s62.5 42 102.5 42
c39.333 0 73.333 -14 102 -42zM871 1967c28.667 -28 43 -62 43 -102c0 -40.667 -14.333 -75 -43 -103s-62.667 -42 -102 -42c-40 0 -74.167 14 -102.5 42s-42.5 62.333 -42.5 103c0 40 14.167 74 42.5 102s62.5 42 102.5 42c39.333 0 73.333 -14 102 -42z" />
    <glyph glyph-name="Igrave" unicode="&#xcc;" 
d="M377 1600v-1600h-207v1600h207zM430 1699h-197l-272 279h252z" />
    <glyph glyph-name="Iacute" unicode="&#xcd;" 
d="M377 1600v-1600h-207v1600h207zM334 1978h252l-272 -279h-197z" />
    <glyph glyph-name="Icircumflex" unicode="&#xce;" 
d="M377 1600v-1600h-207v1600h207zM363 1749l-92 82l-89 -82h-219l233 238h147l241 -238h-221z" />
    <glyph glyph-name="Idieresis" unicode="&#xcf;" 
d="M378 1600v-1600h-207v1600h207zM188 1967c28.667 -28 43 -62 43 -102c0 -40.667 -14.333 -75 -43 -103s-62.667 -42 -102 -42c-40 0 -74.167 14 -102.5 42s-42.5 62.333 -42.5 103c0 40 14.167 74 42.5 102s62.5 42 102.5 42c39.333 0 73.333 -14 102 -42zM564 1967
c28.667 -28 43 -62 43 -102c0 -40.667 -14.333 -75 -43 -103s-62.667 -42 -102 -42c-40 0 -74.167 14 -102.5 42s-42.5 62.333 -42.5 103c0 40 14.167 74 42.5 102s62.5 42 102.5 42c39.333 0 73.333 -14 102 -42z" />
    <glyph glyph-name="Eth" unicode="&#xd0;" horiz-adv-x="1250" 
d="M150 903v697h152c260 -1.33301 462.667 -75 608 -221c159.333 -160.667 239 -353.667 239 -579c0 -226 -79.667 -419 -239 -579c-145.333 -146 -348 -219.667 -608 -221h-152v697h-190v206h190zM357 903l347 -0.000976562v-206h-347v-487c164.667 0 299.667 53 405 159
c118.667 118.667 178 262.334 178 431.001c0 168 -59.333 311.667 -178 431c-105.333 105.333 -240.333 158 -405 158v-486z" />
    <glyph glyph-name="Ntilde" unicode="&#xd1;" horiz-adv-x="1357" 
d="M150 1600h189l660 -1142v1142h208v-1600h-181l-669 1156v-1156h-207v1600zM791 1888l0.00195312 -1c20 0 30 13 30 39c0 17.333 -4.33301 40.333 -13 69h186c-25.333 -146.667 -74.333 -230.667 -147 -252c-18.667 -5.33301 -37.334 -8 -56.001 -8
c-49.333 0 -93.833 19 -133.5 57s-68.834 57 -87.501 57h-4c-20 -1.33301 -30 -14.333 -30 -39c0 -16.667 4.66699 -38.667 14 -66h-187c26 146.667 75.667 230.667 149 252c18.667 5.33301 37.334 8 56.001 8c48.667 0 93.667 -19.333 135 -58s70.666 -58 87.999 -58z" />
    <glyph glyph-name="Ograve" unicode="&#xd2;" horiz-adv-x="1889" 
d="M1523 1381c160 -160 240 -353 240 -579s-80 -419 -240 -579s-353 -240 -579 -240s-419 80 -579 240s-240 353 -240 579s80 419 240 579s353 240 579 240s419 -80 579 -240zM944 1412c-168.667 0 -312.5 -59.5 -431.5 -178.5s-178.5 -262.833 -178.5 -431.5
s59.667 -312.667 179 -432s263 -179 431 -179c168.667 0 312.5 59.667 431.5 179s178.5 263.333 178.5 432s-59.5 312.5 -178.5 431.5s-262.833 178.5 -431.5 178.5zM1100 1699h-197l-272 279h252z" />
    <glyph glyph-name="Oacute" unicode="&#xd3;" horiz-adv-x="1889" 
d="M1523 1381c160 -160 240 -353 240 -579s-80 -419 -240 -579s-353 -240 -579 -240s-419 80 -579 240s-240 353 -240 579s80 419 240 579s353 240 579 240s419 -80 579 -240zM944 1412c-168.667 0 -312.5 -59.5 -431.5 -178.5s-178.5 -262.833 -178.5 -431.5
s59.667 -312.667 179 -432s263 -179 431 -179c168.667 0 312.5 59.667 431.5 179s178.5 263.333 178.5 432s-59.5 312.5 -178.5 431.5s-262.833 178.5 -431.5 178.5zM1005 1978h252l-272 -279h-197z" />
    <glyph glyph-name="Ocircumflex" unicode="&#xd4;" horiz-adv-x="1889" 
d="M1523 1381c160 -160 240 -353 240 -579s-80 -419 -240 -579s-353 -240 -579 -240s-419 80 -579 240s-240 353 -240 579s80 419 240 579s353 240 579 240s419 -80 579 -240zM944 1412c-168.667 0 -312.5 -59.5 -431.5 -178.5s-178.5 -262.833 -178.5 -431.5
s59.667 -312.667 179 -432s263 -179 431 -179c168.667 0 312.5 59.667 431.5 179s178.5 263.333 178.5 432s-59.5 312.5 -178.5 431.5s-262.833 178.5 -431.5 178.5zM1034 1749l-92 82l-89 -82h-219l233 238h147l241 -238h-221z" />
    <glyph glyph-name="Otilde" unicode="&#xd5;" horiz-adv-x="1889" 
d="M1523 1381c160 -160 240 -353 240 -579s-80 -419 -240 -579s-353 -240 -579 -240s-419 80 -579 240s-240 353 -240 579s80 419 240 579s353 240 579 240s419 -80 579 -240zM944 1412c-168.667 0 -312.5 -59.5 -431.5 -178.5s-178.5 -262.833 -178.5 -431.5
s59.667 -312.667 179 -432s263 -179 431 -179c168.667 0 312.5 59.667 431.5 179s178.5 263.333 178.5 432s-59.5 312.5 -178.5 431.5s-262.833 178.5 -431.5 178.5zM1057 1888l0.00195312 -1c20 0 30 13 30 39c0 17.333 -4.33301 40.333 -13 69h186
c-25.333 -146.667 -74.333 -230.667 -147 -252c-18.667 -5.33301 -37.334 -8 -56.001 -8c-49.333 0 -93.833 19 -133.5 57s-68.834 57 -87.501 57h-4c-20 -1.33301 -30 -14.333 -30 -39c0 -16.667 4.66699 -38.667 14 -66h-187c26 146.667 75.667 230.667 149 252
c18.667 5.33301 37.334 8 56.001 8c48.667 0 93.667 -19.333 135 -58s70.666 -58 87.999 -58z" />
    <glyph glyph-name="Odieresis" unicode="&#xd6;" horiz-adv-x="1889" 
d="M1523 1381c160 -160 240 -353 240 -579s-80 -419 -240 -579s-353 -240 -579 -240s-419 80 -579 240s-240 353 -240 579s80 419 240 579s353 240 579 240s419 -80 579 -240zM944 1412c-168.667 0 -312.5 -59.5 -431.5 -178.5s-178.5 -262.833 -178.5 -431.5
s59.667 -312.667 179 -432s263 -179 431 -179c168.667 0 312.5 59.667 431.5 179s178.5 263.333 178.5 432s-59.5 312.5 -178.5 431.5s-262.833 178.5 -431.5 178.5zM858 1967c28.667 -28 43 -62 43 -102c0 -40.667 -14.333 -75 -43 -103s-62.667 -42 -102 -42
c-40 0 -74.167 14 -102.5 42s-42.5 62.333 -42.5 103c0 40 14.167 74 42.5 102s62.5 42 102.5 42c39.333 0 73.333 -14 102 -42zM1234 1967c28.667 -28 43 -62 43 -102c0 -40.667 -14.333 -75 -43 -103s-62.667 -42 -102 -42c-40 0 -74.167 14 -102.5 42
s-42.5 62.333 -42.5 103c0 40 14.167 74 42.5 102s62.5 42 102.5 42c39.333 0 73.333 -14 102 -42z" />
    <glyph glyph-name="multiply" unicode="&#xd7;" horiz-adv-x="1177" 
d="M588 461l-231 -231l-147 147l231 231l-231 232l147 147l231 -232l232 232l145 -148l-231 -231l231 -231l-145 -147z" />
    <glyph glyph-name="Oslash" unicode="&#xd8;" horiz-adv-x="1889" 
d="M1106 1396c-27.333 10.667 -81.333 16 -162 16c-168.667 0 -312.5 -59.5 -431.5 -178.5s-178.5 -262.833 -178.5 -431.5s59.667 -312.667 179 -432c43.333 -43.333 70.333 -68 81 -74zM781 208c28 -11.333 82.332 -17 162.999 -17c168.667 0 312.5 59.667 431.5 179
s178.5 263.333 178.5 432s-59.333 312.667 -178 432c-43.333 43.333 -70.666 68 -81.999 74zM1383 1498c34 -18.667 81 -57.333 141 -116c159.333 -160.667 239 -354 239 -580s-80 -419 -240 -579s-353 -240 -579 -240c-109.333 0 -193 11.667 -251 35l-80 -173l-189 88
l81 173c-34 18.667 -80.667 57.667 -140 117c-160 160 -240 353 -240 579s80 419 240 579s353 240 579 240c109.333 0 193 -11.667 251 -35l81 173l188 -88z" />
    <glyph glyph-name="Ugrave" unicode="&#xd9;" horiz-adv-x="1388" 
d="M1030 1600l208 0.000976562v-1127c-18 -128.667 -71 -237.334 -159 -326.001c-106.667 -106.667 -235 -160 -385 -160s-278.167 53.167 -384.5 159.5s-159.5 234.5 -159.5 384.5v1069h208v-1069c0 -92 32.833 -170.833 98.5 -236.5s144.834 -98.5 237.501 -98.5
c93.333 0 172.666 32.667 237.999 98s98 144.333 98 237v1069zM850 1699h-197l-272 279h252z" />
    <glyph glyph-name="Uacute" unicode="&#xda;" horiz-adv-x="1388" 
d="M1030 1600l208 0.000976562v-1127c-18 -128.667 -71 -237.334 -159 -326.001c-106.667 -106.667 -235 -160 -385 -160s-278.167 53.167 -384.5 159.5s-159.5 234.5 -159.5 384.5v1069h208v-1069c0 -92 32.833 -170.833 98.5 -236.5s144.834 -98.5 237.501 -98.5
c93.333 0 172.666 32.667 237.999 98s98 144.333 98 237v1069zM755 1978h252l-272 -279h-197z" />
    <glyph glyph-name="Ucircumflex" unicode="&#xdb;" horiz-adv-x="1388" 
d="M1030 1600l208 0.000976562v-1127c-18 -128.667 -71 -237.334 -159 -326.001c-106.667 -106.667 -235 -160 -385 -160s-278.167 53.167 -384.5 159.5s-159.5 234.5 -159.5 384.5v1069h208v-1069c0 -92 32.833 -170.833 98.5 -236.5s144.834 -98.5 237.501 -98.5
c93.333 0 172.666 32.667 237.999 98s98 144.333 98 237v1069zM784 1749l-92 82l-89 -82h-219l233 238h147l241 -238h-221z" />
    <glyph glyph-name="Udieresis" unicode="&#xdc;" horiz-adv-x="1388" 
d="M1030 1600l208 0.000976562v-1127c-18 -128.667 -71 -237.334 -159 -326.001c-106.667 -106.667 -235 -160 -385 -160s-278.167 53.167 -384.5 159.5s-159.5 234.5 -159.5 384.5v1069h208v-1069c0 -92 32.833 -170.833 98.5 -236.5s144.834 -98.5 237.501 -98.5
c93.333 0 172.666 32.667 237.999 98s98 144.333 98 237v1069zM608 1967c28.667 -28 43 -62 43 -102c0 -40.667 -14.333 -75 -43 -103s-62.667 -42 -102 -42c-40 0 -74.167 14 -102.5 42s-42.5 62.333 -42.5 103c0 40 14.167 74 42.5 102s62.5 42 102.5 42
c39.333 0 73.333 -14 102 -42zM984 1967c28.667 -28 43 -62 43 -102c0 -40.667 -14.333 -75 -43 -103s-62.667 -42 -102 -42c-40 0 -74.167 14 -102.5 42s-42.5 62.333 -42.5 103c0 40 14.167 74 42.5 102s62.5 42 102.5 42c39.333 0 73.333 -14 102 -42z" />
    <glyph glyph-name="Yacute" unicode="&#xdd;" horiz-adv-x="1414" 
d="M603 642l-553 958h238l418 -724l419 724h239l-554 -958v-642h-207v642zM768 1978h252l-272 -279h-197z" />
    <glyph glyph-name="Thorn" unicode="&#xde;" horiz-adv-x="1180" 
d="M357 1345h246.999c128.667 -18 237.334 -71.333 326.001 -160c106 -106 159 -234 159 -384c0 -150.667 -53 -279 -159 -385s-234 -159 -384 -159h-189v-257h-207v1600h207v-255zM356.999 465l189 -0.000976562c92 0 170.833 32.833 236.5 98.5s98.5 144.834 98.5 237.501
s-32.833 171.667 -98.5 237s-144.5 98 -236.5 98h-189v-671z" />
    <glyph glyph-name="germandbls" unicode="&#xdf;" horiz-adv-x="1142" 
d="M469 1607l15.999 -0.000976562c89.333 0 166 -26 230 -78c70 -58 108 -143.333 114 -256v-17c0 -109.333 -15.333 -173.333 -46 -192c170 -68 259.667 -232 269 -492c0 -157.333 -55 -293 -165 -407c-104 -107.333 -207.667 -161.666 -311 -162.999v-2h-78v208h78v3
c42.667 2.66699 95.667 37 159 103c70 72 105 157.667 105 257c0 98 -34.833 181.833 -104.5 251.5s-151.5 104.5 -245.5 104.5v210c43.333 5.33301 76.333 18.5 99 39.5s34 49.833 34 86.5c0 38.667 -12 71.667 -36 99c-20 22.667 -51 34 -93 34h-9
c-46 -1.33301 -79.667 -14.833 -101 -40.5s-33.666 -68.167 -36.999 -127.5v-1228h-207v1246c7.33301 115.333 39.5 203.5 96.5 264.5s134.5 93.167 232.5 96.5z" />
    <glyph glyph-name="agrave" unicode="&#xe0;" horiz-adv-x="1401" 
d="M1042 466v151.998c-12 64.667 -44 123.334 -96 176.001c-70 69.333 -154 104 -252 104c-98.667 0 -182.834 -34.667 -252.501 -104s-104.5 -153.333 -104.5 -252c0 -98 34.833 -181.833 104.5 -251.5s153.834 -104.5 252.501 -104.5c98 0 182 34.667 252 104
c52 52.667 84 111.334 96 176.001zM1042 956.998v72h208v-1030h-208v129c-100 -103.333 -216 -155 -348 -155c-157.333 0 -291.5 55.5 -402.5 166.5s-166.5 245.167 -166.5 402.5s55.5 291.5 166.5 402.5s245.167 166.5 402.5 166.5c132 0 248 -51.333 348 -154zM844 1128
h-197l-272 279h252z" />
    <glyph glyph-name="aacute" unicode="&#xe1;" horiz-adv-x="1401" 
d="M1042 466v151.998c-12 64.667 -44 123.334 -96 176.001c-70 69.333 -154 104 -252 104c-98.667 0 -182.834 -34.667 -252.501 -104s-104.5 -153.333 -104.5 -252c0 -98 34.833 -181.833 104.5 -251.5s153.834 -104.5 252.501 -104.5c98 0 182 34.667 252 104
c52 52.667 84 111.334 96 176.001zM1042 956.998v72h208v-1030h-208v129c-100 -103.333 -216 -155 -348 -155c-157.333 0 -291.5 55.5 -402.5 166.5s-166.5 245.167 -166.5 402.5s55.5 291.5 166.5 402.5s245.167 166.5 402.5 166.5c132 0 248 -51.333 348 -154zM748 1407
h252l-272 -279h-197z" />
    <glyph glyph-name="acircumflex" unicode="&#xe2;" horiz-adv-x="1401" 
d="M1042 466v151.998c-12 64.667 -44 123.334 -96 176.001c-70 69.333 -154 104 -252 104c-98.667 0 -182.834 -34.667 -252.501 -104s-104.5 -153.333 -104.5 -252c0 -98 34.833 -181.833 104.5 -251.5s153.834 -104.5 252.501 -104.5c98 0 182 34.667 252 104
c52 52.667 84 111.334 96 176.001zM1042 956.998v72h208v-1030h-208v129c-100 -103.333 -216 -155 -348 -155c-157.333 0 -291.5 55.5 -402.5 166.5s-166.5 245.167 -166.5 402.5s55.5 291.5 166.5 402.5s245.167 166.5 402.5 166.5c132 0 248 -51.333 348 -154zM777 1178
l-92 82l-89 -82h-219l233 238h147l241 -238h-221z" />
    <glyph glyph-name="atilde" unicode="&#xe3;" horiz-adv-x="1401" 
d="M1042 466v151.998c-12 64.667 -44 123.334 -96 176.001c-70 69.333 -154 104 -252 104c-98.667 0 -182.834 -34.667 -252.501 -104s-104.5 -153.333 -104.5 -252c0 -98 34.833 -181.833 104.5 -251.5s153.834 -104.5 252.501 -104.5c98 0 182 34.667 252 104
c52 52.667 84 111.334 96 176.001zM1042 956.998v72h208v-1030h-208v129c-100 -103.333 -216 -155 -348 -155c-157.333 0 -291.5 55.5 -402.5 166.5s-166.5 245.167 -166.5 402.5s55.5 291.5 166.5 402.5s245.167 166.5 402.5 166.5c132 0 248 -51.333 348 -154zM800 1317
l0.00195312 -1c20 0 30 13 30 39c0 17.333 -4.33301 40.333 -13 69h186c-25.333 -146.667 -74.333 -230.667 -147 -252c-18.667 -5.33301 -37.334 -8 -56.001 -8c-49.333 0 -93.833 19 -133.5 57s-68.834 57 -87.501 57h-4c-20 -1.33301 -30 -14.333 -30 -39
c0 -16.667 4.66699 -38.667 14 -66h-187c26 146.667 75.667 230.667 149 252c18.667 5.33301 37.334 8 56.001 8c48.667 0 93.667 -19.333 135 -58s70.666 -58 87.999 -58z" />
    <glyph glyph-name="adieresis" unicode="&#xe4;" horiz-adv-x="1401" 
d="M1042 466v151.998c-12 64.667 -44 123.334 -96 176.001c-70 69.333 -154 104 -252 104c-98.667 0 -182.834 -34.667 -252.501 -104s-104.5 -153.333 -104.5 -252c0 -98 34.833 -181.833 104.5 -251.5s153.834 -104.5 252.501 -104.5c98 0 182 34.667 252 104
c52 52.667 84 111.334 96 176.001zM1042 956.998v72h208v-1030h-208v129c-100 -103.333 -216 -155 -348 -155c-157.333 0 -291.5 55.5 -402.5 166.5s-166.5 245.167 -166.5 402.5s55.5 291.5 166.5 402.5s245.167 166.5 402.5 166.5c132 0 248 -51.333 348 -154zM602 1396
c28.667 -28 43 -62 43 -102c0 -40.667 -14.333 -75 -43 -103s-62.667 -42 -102 -42c-40 0 -74.167 14 -102.5 42s-42.5 62.333 -42.5 103c0 40 14.167 74 42.5 102s62.5 42 102.5 42c39.333 0 73.333 -14 102 -42zM978 1396c28.667 -28 43 -62 43 -102
c0 -40.667 -14.333 -75 -43 -103s-62.667 -42 -102 -42c-40 0 -74.167 14 -102.5 42s-42.5 62.333 -42.5 103c0 40 14.167 74 42.5 102s62.5 42 102.5 42c39.333 0 73.333 -14 102 -42z" />
    <glyph glyph-name="aring" unicode="&#xe5;" horiz-adv-x="1401" 
d="M1042 466v151.998c-12 64.667 -44 123.334 -96 176.001c-70 69.333 -154 104 -252 104c-98.667 0 -182.834 -34.667 -252.501 -104s-104.5 -153.333 -104.5 -252c0 -98 34.833 -181.833 104.5 -251.5s153.834 -104.5 252.501 -104.5c98 0 182 34.667 252 104
c52 52.667 84 111.334 96 176.001zM690 1199c14.667 0 27.334 5.16699 38.001 15.5s16 23.166 16 38.499c0 18.667 -5.33301 33.167 -16 43.5s-23.334 15.5 -38.001 15.5c-18.667 0 -33.167 -5.16699 -43.5 -15.5s-15.5 -24.833 -15.5 -43.5
c0 -15.333 5.16699 -28.166 15.5 -38.499s24.833 -15.5 43.5 -15.5zM822 1094c80.667 -23.333 154 -68.999 220 -136.999v72h208v-1030h-208v129c-100 -103.333 -216 -155 -348 -155c-157.333 0 -291.5 55.5 -402.5 166.5s-166.5 245.167 -166.5 402.5
s55.667 291.666 167 402.999c75.333 75.333 162 125 260 149c-4.66699 4 -9 8.33301 -13 13c-41.333 41.333 -62 90.666 -62 147.999c0 58 20.5 107.667 61.5 149s90.833 62 149.5 62c58 0 107.5 -20.667 148.5 -62s61.5 -91 61.5 -149
c0 -57.333 -20.333 -106.666 -61 -147.999z" />
    <glyph glyph-name="ae" unicode="&#xe6;" horiz-adv-x="2142" 
d="M972 714c-16 28.667 -36.667 55.667 -62 81c-69.333 69.333 -153.333 104 -252 104c-98 0 -181.833 -34.667 -251.5 -104s-104.5 -153.333 -104.5 -252s34.833 -182.667 104.5 -252s153.5 -104 251.5 -104c98.667 0 182.667 35 252 105c26 25.333 46.667 52 62 80
c18 31.333 30 63 36 95v152c-6 32 -18 63.667 -36 95zM1804 736l-58.999 59c-69.333 69.333 -153.333 104 -252 104s-182.667 -34.667 -252 -104c-14.667 -14.667 -23.334 -24 -26.001 -28v-31h589zM1008 992v38h207c37.333 54.667 130 82 278 82
c157.333 0 291.666 -55.667 402.999 -167c98.667 -99.333 150.667 -238.333 156 -417l-837 1v-210c2.66699 -4 11 -13 25 -27c70 -70 154.333 -105 253 -105s182.667 35 252 105c12.667 12.667 33.667 37 63 73l202 -71c-39.333 -65.333 -77.333 -116.333 -114 -153
c-111.333 -110.667 -245.666 -166 -402.999 -166c-148 0 -240.667 17.333 -278 52v-27h-207v95c-100 -80 -216.667 -120 -350 -120c-156.667 0 -290.5 55.5 -401.5 166.5s-166.5 244.833 -166.5 401.5c0 157.333 55.5 291.5 166.5 402.5s244.833 166.5 401.5 166.5
c133.333 0 250 -40 350 -120z" />
    <glyph glyph-name="ccedilla" unicode="&#xe7;" horiz-adv-x="1262" 
d="M570 -21c-119.333 18 -223.665 71.668 -312.998 161.001c-111.333 111.333 -167 245.666 -167 402.999s55.667 291.666 167 402.999s245.333 167 402 167c157.333 0 291.666 -55.667 402.999 -167c22.667 -22.667 59.334 -68.334 110.001 -137.001l-207 -76
c-26.667 32.667 -44.667 53.667 -54 63c-69.333 69.333 -153.333 104 -252 104c-98 0 -181.833 -34.833 -251.5 -104.5s-104.5 -153.834 -104.5 -252.501c0 -98 34.833 -181.833 104.5 -251.5s153.5 -104.5 251.5 -104.5c98.667 0 183 34.667 253 104
c8.66699 9.33301 26.334 30 53.001 62l207 -74c-50.667 -70 -87.334 -116.333 -110.001 -139c-97.333 -97.333 -212.333 -152 -345 -164l-7 -20c49.333 -25.333 81 -55 95 -89c2.66699 -9.33301 5 -18.333 7 -27s3 -17.334 3 -26.001c0 -28.667 -10.333 -55.667 -31 -81
c-32.667 -39.333 -80.667 -63.666 -144 -72.999c-12.667 -2 -27.334 -3 -44.001 -3c-38.667 0 -88.334 5 -149.001 15l35 126c38 -17.333 69 -26 93 -26c4 0 7.66699 0.333008 11 1c20.667 2.66699 34 14.334 40 35.001c2 4.66699 3 9.66699 3 15
c0 2.66699 -0.333008 5.33398 -1 8.00098c-4 18.667 -34.667 37.334 -92 56.001z" />
    <glyph glyph-name="egrave" unicode="&#xe8;" horiz-adv-x="1262" 
d="M470 233c34.667 -30.667 97.666 -45.998 188.999 -45.998c98.667 0 183 34.667 253 104c8.66699 9.33301 26.334 30 53.001 62l207 -74c-50.667 -70 -87.334 -116.333 -110.001 -139c-111.333 -111.333 -245.666 -167 -402.999 -167c-156.667 0 -290.667 55.667 -402 167
s-167 245.666 -167 402.999s55.667 291.666 167 402.999s245.333 167 402 167c134.667 0 252.667 -40.667 354 -122c16.667 -14 33 -29 49 -45c6.66699 -6.66699 25.667 -27.667 57 -63l-104 -105zM815.999 873.002c-23.333 18 -75.667 27.001 -157 27.001
c-98 0 -181.833 -34.833 -251.5 -104.5s-104.5 -153.834 -104.5 -252.501c0 -80.667 9 -133 27 -157zM786.998 1128h-197l-272 279h252z" />
    <glyph glyph-name="eacute" unicode="&#xe9;" horiz-adv-x="1262" 
d="M470 233c34.667 -30.667 97.666 -45.998 188.999 -45.998c98.667 0 183 34.667 253 104c8.66699 9.33301 26.334 30 53.001 62l207 -74c-50.667 -70 -87.334 -116.333 -110.001 -139c-111.333 -111.333 -245.666 -167 -402.999 -167c-156.667 0 -290.667 55.667 -402 167
s-167 245.666 -167 402.999s55.667 291.666 167 402.999s245.333 167 402 167c134.667 0 252.667 -40.667 354 -122c16.667 -14 33 -29 49 -45c6.66699 -6.66699 25.667 -27.667 57 -63l-104 -105zM815.999 873.002c-23.333 18 -75.667 27.001 -157 27.001
c-98 0 -181.833 -34.833 -251.5 -104.5s-104.5 -153.834 -104.5 -252.501c0 -80.667 9 -133 27 -157zM691.998 1407h252l-272 -279h-197z" />
    <glyph glyph-name="ecircumflex" unicode="&#xea;" horiz-adv-x="1262" 
d="M470 233c34.667 -30.667 97.666 -45.998 188.999 -45.998c98.667 0 183 34.667 253 104c8.66699 9.33301 26.334 30 53.001 62l207 -74c-50.667 -70 -87.334 -116.333 -110.001 -139c-111.333 -111.333 -245.666 -167 -402.999 -167c-156.667 0 -290.667 55.667 -402 167
s-167 245.666 -167 402.999s55.667 291.666 167 402.999s245.333 167 402 167c134.667 0 252.667 -40.667 354 -122c16.667 -14 33 -29 49 -45c6.66699 -6.66699 25.667 -27.667 57 -63l-104 -105zM815.999 873.002c-23.333 18 -75.667 27.001 -157 27.001
c-98 0 -181.833 -34.833 -251.5 -104.5s-104.5 -153.834 -104.5 -252.501c0 -80.667 9 -133 27 -157zM720.998 1178l-92 82l-89 -82h-219l233 238h147l241 -238h-221z" />
    <glyph glyph-name="edieresis" unicode="&#xeb;" horiz-adv-x="1262" 
d="M470 233c34.667 -30.667 97.666 -45.998 188.999 -45.998c98.667 0 183 34.667 253 104c8.66699 9.33301 26.334 30 53.001 62l207 -74c-50.667 -70 -87.334 -116.333 -110.001 -139c-111.333 -111.333 -245.666 -167 -402.999 -167c-156.667 0 -290.667 55.667 -402 167
s-167 245.666 -167 402.999s55.667 291.666 167 402.999s245.333 167 402 167c134.667 0 252.667 -40.667 354 -122c16.667 -14 33 -29 49 -45c6.66699 -6.66699 25.667 -27.667 57 -63l-104 -105zM815.999 873.002c-23.333 18 -75.667 27.001 -157 27.001
c-98 0 -181.833 -34.833 -251.5 -104.5s-104.5 -153.834 -104.5 -252.501c0 -80.667 9 -133 27 -157zM544.998 1396c28.667 -28 43 -62 43 -102c0 -40.667 -14.333 -75 -43 -103s-62.667 -42 -102 -42c-40 0 -74.167 14 -102.5 42s-42.5 62.333 -42.5 103
c0 40 14.167 74 42.5 102s62.5 42 102.5 42c39.333 0 73.333 -14 102 -42zM920.998 1396c28.667 -28 43 -62 43 -102c0 -40.667 -14.333 -75 -43 -103s-62.667 -42 -102 -42c-40 0 -74.167 14 -102.5 42s-42.5 62.333 -42.5 103c0 40 14.167 74 42.5 102s62.5 42 102.5 42
c39.333 0 73.333 -14 102 -42z" />
    <glyph glyph-name="igrave" unicode="&#xec;" 
d="M377 1030v-1030h-207v1030h207zM430 1128h-197l-272 279h252z" />
    <glyph glyph-name="iacute" unicode="&#xed;" 
d="M377 1030v-1030h-207v1030h207zM334 1407h252l-272 -279h-197z" />
    <glyph glyph-name="icircumflex" unicode="&#xee;" 
d="M377 1030v-1030h-207v1030h207zM363 1178l-92 82l-89 -82h-219l233 238h147l241 -238h-221z" />
    <glyph glyph-name="idieresis" unicode="&#xef;" 
d="M378 1030v-1030h-207v1030h207zM188 1396c28.667 -28 43 -62 43 -102c0 -40.667 -14.333 -75 -43 -103s-62.667 -42 -102 -42c-40 0 -74.167 14 -102.5 42s-42.5 62.333 -42.5 103c0 40 14.167 74 42.5 102s62.5 42 102.5 42c39.333 0 73.333 -14 102 -42zM564 1396
c28.667 -28 43 -62 43 -102c0 -40.667 -14.333 -75 -43 -103s-62.667 -42 -102 -42c-40 0 -74.167 14 -102.5 42s-42.5 62.333 -42.5 103c0 40 14.167 74 42.5 102s62.5 42 102.5 42c39.333 0 73.333 -14 102 -42z" />
    <glyph glyph-name="eth" unicode="&#xf0;" horiz-adv-x="1318" 
d="M302 543c0 -98.667 34.833 -182.667 104.5 -252s153.834 -104 252.501 -104s182.834 34.667 252.501 104s104.5 153.333 104.5 252c0 98 -34.833 182 -104.5 252s-153.834 105 -252.501 105s-182.834 -35 -252.501 -105s-104.5 -154 -104.5 -252zM1228 543
c0 -157.333 -55.499 -291.666 -166.499 -402.999s-245.167 -167 -402.5 -167c-156.667 0 -290.667 55.667 -402 167s-167 245.666 -167 402.999s55.667 291.666 167 402.999s245.333 167 402 167c11.333 0 22.666 -0.333008 33.999 -1l-166 184l-124 -88h-257l282 198
l-182 194h252l80 -88l135 88h252l-293 -201l341 -409c16.667 -14 33 -28.667 49 -44c42 -42 76 -87.667 102 -137l1 -1c42 -79.333 63 -167.666 63 -264.999z" />
    <glyph glyph-name="ntilde" unicode="&#xf1;" horiz-adv-x="1139" 
d="M358 753l-0.000976562 -752.998h-208v1029h208v-120c43.333 117.333 130.333 176 261 176c111.333 0 199.833 -39.5 265.5 -118.5s99.5 -178.167 101.5 -297.5v-669h-207v661c0 59.333 -21.667 110.166 -65 152.499s-95 63.5 -155 63.5
c-59.333 0 -110.666 -20.667 -153.999 -62c-24 -24.667 -39.667 -45.334 -47 -62.001zM680.999 1317l0.00195312 -1c20 0 30 13 30 39c0 17.333 -4.33301 40.333 -13 69h186c-25.333 -146.667 -74.333 -230.667 -147 -252c-18.667 -5.33301 -37.334 -8 -56.001 -8
c-49.333 0 -93.833 19 -133.5 57s-68.834 57 -87.501 57h-4c-20 -1.33301 -30 -14.333 -30 -39c0 -16.667 4.66699 -38.667 14 -66h-187c26 146.667 75.667 230.667 149 252c18.667 5.33301 37.334 8 56.001 8c48.667 0 93.667 -19.333 135 -58s70.666 -58 87.999 -58z" />
    <glyph glyph-name="ograve" unicode="&#xf2;" horiz-adv-x="1318" 
d="M659 1113c157.333 0 291.5 -55.667 402.5 -167s166.5 -245.666 166.5 -402.999s-55.5 -291.666 -166.5 -402.999s-245.167 -167 -402.5 -167c-156.667 0 -290.667 55.667 -402 167s-167 245.666 -167 402.999s55.667 291.666 167 402.999s245.333 167 402 167zM406.5 795
c-69.667 -70 -104.5 -154 -104.5 -252c0 -98.667 34.833 -182.667 104.5 -252s153.834 -104 252.501 -104s182.834 34.667 252.501 104s104.5 153.333 104.5 252c0 98 -34.833 182 -104.5 252s-153.834 105 -252.501 105s-182.834 -35 -252.501 -105zM815 1128h-197
l-272 279h252z" />
    <glyph glyph-name="oacute" unicode="&#xf3;" horiz-adv-x="1318" 
d="M659 1113c157.333 0 291.5 -55.667 402.5 -167s166.5 -245.666 166.5 -402.999s-55.5 -291.666 -166.5 -402.999s-245.167 -167 -402.5 -167c-156.667 0 -290.667 55.667 -402 167s-167 245.666 -167 402.999s55.667 291.666 167 402.999s245.333 167 402 167zM406.5 795
c-69.667 -70 -104.5 -154 -104.5 -252c0 -98.667 34.833 -182.667 104.5 -252s153.834 -104 252.501 -104s182.834 34.667 252.501 104s104.5 153.333 104.5 252c0 98 -34.833 182 -104.5 252s-153.834 105 -252.501 105s-182.834 -35 -252.501 -105zM720 1407h252
l-272 -279h-197z" />
    <glyph glyph-name="ocircumflex" unicode="&#xf4;" horiz-adv-x="1318" 
d="M659 1113c157.333 0 291.5 -55.667 402.5 -167s166.5 -245.666 166.5 -402.999s-55.5 -291.666 -166.5 -402.999s-245.167 -167 -402.5 -167c-156.667 0 -290.667 55.667 -402 167s-167 245.666 -167 402.999s55.667 291.666 167 402.999s245.333 167 402 167zM406.5 795
c-69.667 -70 -104.5 -154 -104.5 -252c0 -98.667 34.833 -182.667 104.5 -252s153.834 -104 252.501 -104s182.834 34.667 252.501 104s104.5 153.333 104.5 252c0 98 -34.833 182 -104.5 252s-153.834 105 -252.501 105s-182.834 -35 -252.501 -105zM749 1178l-92 82
l-89 -82h-219l233 238h147l241 -238h-221z" />
    <glyph glyph-name="otilde" unicode="&#xf5;" horiz-adv-x="1318" 
d="M659 1113c157.333 0 291.5 -55.667 402.5 -167s166.5 -245.666 166.5 -402.999s-55.5 -291.666 -166.5 -402.999s-245.167 -167 -402.5 -167c-156.667 0 -290.667 55.667 -402 167s-167 245.666 -167 402.999s55.667 291.666 167 402.999s245.333 167 402 167zM406.5 795
c-69.667 -70 -104.5 -154 -104.5 -252c0 -98.667 34.833 -182.667 104.5 -252s153.834 -104 252.501 -104s182.834 34.667 252.501 104s104.5 153.333 104.5 252c0 98 -34.833 182 -104.5 252s-153.834 105 -252.501 105s-182.834 -35 -252.501 -105zM772 1317
l0.00195312 -1c20 0 30 13 30 39c0 17.333 -4.33301 40.333 -13 69h186c-25.333 -146.667 -74.333 -230.667 -147 -252c-18.667 -5.33301 -37.334 -8 -56.001 -8c-49.333 0 -93.833 19 -133.5 57s-68.834 57 -87.501 57h-4c-20 -1.33301 -30 -14.333 -30 -39
c0 -16.667 4.66699 -38.667 14 -66h-187c26 146.667 75.667 230.667 149 252c18.667 5.33301 37.334 8 56.001 8c48.667 0 93.667 -19.333 135 -58s70.666 -58 87.999 -58z" />
    <glyph glyph-name="odieresis" unicode="&#xf6;" horiz-adv-x="1318" 
d="M659 1113c157.333 0 291.5 -55.667 402.5 -167s166.5 -245.666 166.5 -402.999s-55.5 -291.666 -166.5 -402.999s-245.167 -167 -402.5 -167c-156.667 0 -290.667 55.667 -402 167s-167 245.666 -167 402.999s55.667 291.666 167 402.999s245.333 167 402 167zM406.5 795
c-69.667 -70 -104.5 -154 -104.5 -252c0 -98.667 34.833 -182.667 104.5 -252s153.834 -104 252.501 -104s182.834 34.667 252.501 104s104.5 153.333 104.5 252c0 98 -34.833 182 -104.5 252s-153.834 105 -252.501 105s-182.834 -35 -252.501 -105zM573 1396
c28.667 -28 43 -62 43 -102c0 -40.667 -14.333 -75 -43 -103s-62.667 -42 -102 -42c-40 0 -74.167 14 -102.5 42s-42.5 62.333 -42.5 103c0 40 14.167 74 42.5 102s62.5 42 102.5 42c39.333 0 73.333 -14 102 -42zM949 1396c28.667 -28 43 -62 43 -102
c0 -40.667 -14.333 -75 -43 -103s-62.667 -42 -102 -42c-40 0 -74.167 14 -102.5 42s-42.5 62.333 -42.5 103c0 40 14.167 74 42.5 102s62.5 42 102.5 42c39.333 0 73.333 -14 102 -42z" />
    <glyph glyph-name="divide" unicode="&#xf7;" horiz-adv-x="1112" 
d="M125 732h862v-207h-862v207zM658.5 1015c28.333 -28 42.5 -62 42.5 -102c0 -40.667 -14.167 -75 -42.5 -103s-62.5 -42 -102.5 -42s-74.167 14 -102.5 42s-42.5 62.333 -42.5 103c0 40 14.167 74 42.5 102s62.5 42 102.5 42s74.167 -14 102.5 -42zM658.5 446
c28.333 -28 42.5 -62 42.5 -102c0 -40.667 -14.167 -75 -42.5 -103s-62.5 -42 -102.5 -42s-74.167 14 -102.5 42s-42.5 62.333 -42.5 103c0 40 14.167 74 42.5 102s62.5 42 102.5 42s74.167 -14 102.5 -42z" />
    <glyph glyph-name="oslash" unicode="&#xf8;" horiz-adv-x="1317" 
d="M744 898c-3.33301 1.33301 -32 2.00098 -86 2.00098c-98 0 -181.833 -34.833 -251.5 -104.5s-104.5 -153.5 -104.5 -251.5c0 -98.667 31 -182.334 93 -251.001zM573 190.001c3.33301 -1.33301 31.666 -2 84.999 -2c98.667 0 182.834 34.667 252.501 104
s104.5 153.333 104.5 252c0 98 -35 182 -105 252zM294 105.001l-37 37c-111.333 111.333 -167 245.333 -167 402c0 157.333 55.5 291.5 166.5 402.5s244.833 166.5 401.5 166.5c89.333 0 154 -9.66699 194 -29l113 197l184 -95l-125 -202l37 -38
c110.667 -110.667 166 -244.667 166 -402c0 -156.667 -55.5 -290.667 -166.5 -402s-245.167 -167 -402.5 -167c-88.667 0 -152.667 9.66699 -192 29l-114 -196l-185 89z" />
    <glyph glyph-name="ugrave" unicode="&#xf9;" horiz-adv-x="1162" 
d="M586 -14c-130 0 -234.667 39.667 -314 119s-120 178.666 -122 297.999v626h208v-618c0 -59.333 21.667 -110.333 65 -153s97.333 -64 162 -64c59.333 0 110.833 21.167 154.5 63.5s65.5 93.5 65.5 153.5v618h207v-626c-2 -119.333 -42.333 -218.666 -121 -297.999
c-79.333 -79.333 -181 -119 -305 -119zM737 1128h-197l-272 279h252z" />
    <glyph glyph-name="uacute" unicode="&#xfa;" horiz-adv-x="1162" 
d="M586 -14c-130 0 -234.667 39.667 -314 119s-120 178.666 -122 297.999v626h208v-618c0 -59.333 21.667 -110.333 65 -153s97.333 -64 162 -64c59.333 0 110.833 21.167 154.5 63.5s65.5 93.5 65.5 153.5v618h207v-626c-2 -119.333 -42.333 -218.666 -121 -297.999
c-79.333 -79.333 -181 -119 -305 -119zM642 1407h252l-272 -279h-197z" />
    <glyph glyph-name="ucircumflex" unicode="&#xfb;" horiz-adv-x="1162" 
d="M586 -14c-130 0 -234.667 39.667 -314 119s-120 178.666 -122 297.999v626h208v-618c0 -59.333 21.667 -110.333 65 -153s97.333 -64 162 -64c59.333 0 110.833 21.167 154.5 63.5s65.5 93.5 65.5 153.5v618h207v-626c-2 -119.333 -42.333 -218.666 -121 -297.999
c-79.333 -79.333 -181 -119 -305 -119zM671 1178l-92 82l-89 -82h-219l233 238h147l241 -238h-221z" />
    <glyph glyph-name="udieresis" unicode="&#xfc;" horiz-adv-x="1162" 
d="M586 -14c-130 0 -234.667 39.667 -314 119s-120 178.666 -122 297.999v626h208v-618c0 -59.333 21.667 -110.333 65 -153s97.333 -64 162 -64c59.333 0 110.833 21.167 154.5 63.5s65.5 93.5 65.5 153.5v618h207v-626c-2 -119.333 -42.333 -218.666 -121 -297.999
c-79.333 -79.333 -181 -119 -305 -119zM495 1396c28.667 -28 43 -62 43 -102c0 -40.667 -14.333 -75 -43 -103s-62.667 -42 -102 -42c-40 0 -74.167 14 -102.5 42s-42.5 62.333 -42.5 103c0 40 14.167 74 42.5 102s62.5 42 102.5 42c39.333 0 73.333 -14 102 -42zM871 1396
c28.667 -28 43 -62 43 -102c0 -40.667 -14.333 -75 -43 -103s-62.667 -42 -102 -42c-40 0 -74.167 14 -102.5 42s-42.5 62.333 -42.5 103c0 40 14.167 74 42.5 102s62.5 42 102.5 42c39.333 0 73.333 -14 102 -42z" />
    <glyph glyph-name="yacute" unicode="&#xfd;" horiz-adv-x="1139" 
d="M403 -346h-219l274 575l-383 800h233l261 -563l261 563h232zM629 1407h252l-272 -279h-197z" />
    <glyph glyph-name="thorn" unicode="&#xfe;" horiz-adv-x="1374" 
d="M357 462c12.667 -62.667 44.667 -119.669 96 -171.002c70 -70 154 -105 252 -105c98.667 0 182.834 34.833 252.501 104.5s104.5 153.834 104.5 252.501s-34.833 182.667 -104.5 252s-153.834 104 -252.501 104c-98 0 -182 -34.667 -252 -104
c-51.333 -51.333 -83.333 -108.666 -96 -171.999v-161zM357 157.998v-503h-207v1945h207v-679c100 126.667 216 190 348 190c157.333 0 291.5 -55.333 402.5 -166s166.5 -244.667 166.5 -402c0 -156.667 -55.333 -290.5 -166 -401.5s-245 -166.5 -403 -166.5
c-132.667 0 -248.667 61 -348 183z" />
    <glyph glyph-name="ydieresis" unicode="&#xff;" horiz-adv-x="1139" 
d="M403 -346h-219l274 575l-383 800h233l261 -563l261 563h232zM483 1396c28.667 -28 43 -62 43 -102c0 -40.667 -14.333 -75 -43 -103s-62.667 -42 -102 -42c-40 0 -74.167 14 -102.5 42s-42.5 62.333 -42.5 103c0 40 14.167 74 42.5 102s62.5 42 102.5 42
c39.333 0 73.333 -14 102 -42zM859 1396c28.667 -28 43 -62 43 -102c0 -40.667 -14.333 -75 -43 -103s-62.667 -42 -102 -42c-40 0 -74.167 14 -102.5 42s-42.5 62.333 -42.5 103c0 40 14.167 74 42.5 102s62.5 42 102.5 42c39.333 0 73.333 -14 102 -42z" />
    <glyph glyph-name="Amacron" unicode="&#x100;" horiz-adv-x="1376" 
d="M825 773l-137 375l-136 -375h273zM744 1600l582 -1600h-220l-206 566h-424l-205 -566h-221l582 1600h112zM405 2008h567v-207h-567v207z" />
    <glyph glyph-name="amacron" unicode="&#x101;" horiz-adv-x="1401" 
d="M1042 466v151.998c-12 64.667 -44 123.334 -96 176.001c-70 69.333 -154 104 -252 104c-98.667 0 -182.834 -34.667 -252.501 -104s-104.5 -153.333 -104.5 -252c0 -98 34.833 -181.833 104.5 -251.5s153.834 -104.5 252.501 -104.5c98 0 182 34.667 252 104
c52 52.667 84 111.334 96 176.001zM1042 956.998v72h208v-1030h-208v129c-100 -103.333 -216 -155 -348 -155c-157.333 0 -291.5 55.5 -402.5 166.5s-166.5 245.167 -166.5 402.5s55.5 291.5 166.5 402.5s245.167 166.5 402.5 166.5c132 0 248 -51.333 348 -154zM404 1437
h567v-207h-567v207z" />
    <glyph glyph-name="Abreve" unicode="&#x102;" horiz-adv-x="1376" 
d="M825 773l-137 375l-136 -375h273zM744 1600l582 -1600h-220l-206 566h-424l-205 -566h-221l582 1600h112zM600 1984c7.33301 -41.333 16.001 -66.999 26.001 -76.999c17.333 -17.333 38.333 -26 63 -26c24 0 44.667 9 62 27c10 9.33301 18.333 34.666 25 75.999h190
c-14.667 -82 -41.334 -142.667 -80.001 -182c-54 -54.667 -119.667 -82 -197 -82c-78 0 -144 27.333 -198 82c-42 42 -68.667 102.667 -80 182h189z" />
    <glyph glyph-name="abreve" unicode="&#x103;" horiz-adv-x="1401" 
d="M1042 466v151.998c-12 64.667 -44 123.334 -96 176.001c-70 69.333 -154 104 -252 104c-98.667 0 -182.834 -34.667 -252.501 -104s-104.5 -153.333 -104.5 -252c0 -98 34.833 -181.833 104.5 -251.5s153.834 -104.5 252.501 -104.5c98 0 182 34.667 252 104
c52 52.667 84 111.334 96 176.001zM1042 956.998v72h208v-1030h-208v129c-100 -103.333 -216 -155 -348 -155c-157.333 0 -291.5 55.5 -402.5 166.5s-166.5 245.167 -166.5 402.5s55.5 291.5 166.5 402.5s245.167 166.5 402.5 166.5c132 0 248 -51.333 348 -154zM599 1413
c7.33301 -41.333 16.001 -66.999 26.001 -76.999c17.333 -17.333 38.333 -26 63 -26c24 0 44.667 9 62 27c10 9.33301 18.333 34.666 25 75.999h190c-14.667 -82 -41.334 -142.667 -80.001 -182c-54 -54.667 -119.667 -82 -197 -82c-78 0 -144 27.333 -198 82
c-42 42 -68.667 102.667 -80 182h189z" />
    <glyph glyph-name="Aogonek" unicode="&#x104;" horiz-adv-x="1376" 
d="M825 773l-137 375l-136 -375h273zM1079 75l-179.001 491.001h-424l-205 -566h-221l582 1600h112l582 -1600h-155c-34 -47.333 -51 -87 -51 -119c0 -10.667 2 -20.334 6 -29.001c10 -24.667 25.333 -37 46 -37c24.667 0 56.667 17 96 51l58 -153
c-81.333 -33.333 -143 -50 -185 -50c-63.333 0 -114.666 22 -153.999 66c-32 36 -48 79.333 -48 130c0 11.333 0.666992 23 2 35c9.33301 64 55.333 124.333 138 181z" />
    <glyph glyph-name="aogonek" unicode="&#x105;" horiz-adv-x="1401" 
d="M1042 466v151.998c-12 64.667 -44 123.334 -96 176.001c-70 69.333 -154 104 -252 104c-98.667 0 -182.834 -34.667 -252.501 -104s-104.5 -153.333 -104.5 -252c0 -98 34.833 -181.833 104.5 -251.5s153.834 -104.5 252.501 -104.5c98 0 182 34.667 252 104
c52 52.667 84 111.334 96 176.001zM1042 59.998l-0.000976562 68c-100 -103.333 -216 -155 -348 -155c-157.333 0 -291.5 55.5 -402.5 166.5s-166.5 245.167 -166.5 402.5s55.5 291.5 166.5 402.5s245.167 166.5 402.5 166.5c132 0 248 -51.333 348 -154v72h208v-1030h-95
c-34 -47.333 -51 -86.666 -51 -117.999c0 -10.667 2 -20.334 6 -29.001c10 -24.667 25.333 -37 46 -37c24.667 0 56.667 17 96 51l58 -153c-81.333 -33.333 -143 -50 -185 -50c-63.333 0 -114.666 22 -153.999 66c-32 36 -48 79.333 -48 130c0 11.333 0.666992 23 2 35
c8.66699 58.667 47.667 114 117 166z" />
    <glyph glyph-name="Cacute" unicode="&#x106;" horiz-adv-x="1642" 
d="M1388 381l155 -138.999c-189.333 -172.667 -389.666 -259 -600.999 -259c-226 0 -418.667 79.667 -578 239s-239 352 -239 578c0 225.333 79.667 418 239 578s352 240 578 240c211.333 0 411.666 -86.333 600.999 -259l-155 -141
c-142.667 126.667 -291.334 190 -446.001 190c-167.333 0 -310.5 -59.333 -429.5 -178s-178.5 -262 -178.5 -430c0 -168.667 59.5 -312.334 178.5 -431.001s262.167 -178 429.5 -178c154.667 0 303.334 63.333 446.001 190zM895 1978h252l-272 -279h-197z" />
    <glyph glyph-name="cacute" unicode="&#x107;" horiz-adv-x="1262" 
d="M965 353l206.999 -73.9961c-50.667 -70 -87.334 -116.333 -110.001 -139c-111.333 -111.333 -245.666 -167 -402.999 -167c-156.667 0 -290.667 55.667 -402 167s-167 245.666 -167 402.999s55.667 291.666 167 402.999s245.333 167 402 167
c157.333 0 291.666 -55.667 402.999 -167c22.667 -22.667 59.334 -68.334 110.001 -137.001l-207 -76c-26.667 32.667 -44.667 53.667 -54 63c-69.333 69.333 -153.333 104 -252 104c-98 0 -181.833 -34.833 -251.5 -104.5s-104.5 -153.834 -104.5 -252.501
c0 -98 34.833 -181.833 104.5 -251.5s153.5 -104.5 251.5 -104.5c98.667 0 183 34.667 253 104c8.66699 9.33301 26.334 30 53.001 62zM691.999 1407h252l-272 -279h-197z" />
    <glyph glyph-name="Ccircumflex" unicode="&#x108;" horiz-adv-x="1642" 
d="M1388 381l155 -138.999c-189.333 -172.667 -389.666 -259 -600.999 -259c-226 0 -418.667 79.667 -578 239s-239 352 -239 578c0 225.333 79.667 418 239 578s352 240 578 240c211.333 0 411.666 -86.333 600.999 -259l-155 -141
c-142.667 126.667 -291.334 190 -446.001 190c-167.333 0 -310.5 -59.333 -429.5 -178s-178.5 -262 -178.5 -430c0 -168.667 59.5 -312.334 178.5 -431.001s262.167 -178 429.5 -178c154.667 0 303.334 63.333 446.001 190zM924 1749l-92 82l-89 -82h-219l233 238h147
l241 -238h-221z" />
    <glyph glyph-name="ccircumflex" unicode="&#x109;" horiz-adv-x="1262" 
d="M965 353l206.999 -73.9961c-50.667 -70 -87.334 -116.333 -110.001 -139c-111.333 -111.333 -245.666 -167 -402.999 -167c-156.667 0 -290.667 55.667 -402 167s-167 245.666 -167 402.999s55.667 291.666 167 402.999s245.333 167 402 167
c157.333 0 291.666 -55.667 402.999 -167c22.667 -22.667 59.334 -68.334 110.001 -137.001l-207 -76c-26.667 32.667 -44.667 53.667 -54 63c-69.333 69.333 -153.333 104 -252 104c-98 0 -181.833 -34.833 -251.5 -104.5s-104.5 -153.834 -104.5 -252.501
c0 -98 34.833 -181.833 104.5 -251.5s153.5 -104.5 251.5 -104.5c98.667 0 183 34.667 253 104c8.66699 9.33301 26.334 30 53.001 62zM720.999 1178l-92 82l-89 -82h-219l233 238h147l241 -238h-221z" />
    <glyph glyph-name="Cdotaccent" unicode="&#x10a;" horiz-adv-x="1642" 
d="M1388 381l155 -138.999c-189.333 -172.667 -389.666 -259 -600.999 -259c-226 0 -418.667 79.667 -578 239s-239 352 -239 578c0 225.333 79.667 418 239 578s352 240 578 240c211.333 0 411.666 -86.333 600.999 -259l-155 -141
c-142.667 126.667 -291.334 190 -446.001 190c-167.333 0 -310.5 -59.333 -429.5 -178s-178.5 -262 -178.5 -430c0 -168.667 59.5 -312.334 178.5 -431.001s262.167 -178 429.5 -178c154.667 0 303.334 63.333 446.001 190zM928 1969c26 -25.333 39 -56.666 39 -93.999
s-13 -68.666 -39 -93.999s-57 -38 -93 -38c-36.667 0 -68 12.667 -94 38s-39 56.666 -39 93.999s13 68.666 39 93.999s57.333 38 94 38c36 0 67 -12.667 93 -38z" />
    <glyph glyph-name="cdotaccent" unicode="&#x10b;" horiz-adv-x="1262" 
d="M965 353l206.999 -73.9961c-50.667 -70 -87.334 -116.333 -110.001 -139c-111.333 -111.333 -245.666 -167 -402.999 -167c-156.667 0 -290.667 55.667 -402 167s-167 245.666 -167 402.999s55.667 291.666 167 402.999s245.333 167 402 167
c157.333 0 291.666 -55.667 402.999 -167c22.667 -22.667 59.334 -68.334 110.001 -137.001l-207 -76c-26.667 32.667 -44.667 53.667 -54 63c-69.333 69.333 -153.333 104 -252 104c-98 0 -181.833 -34.833 -251.5 -104.5s-104.5 -153.834 -104.5 -252.501
c0 -98 34.833 -181.833 104.5 -251.5s153.5 -104.5 251.5 -104.5c98.667 0 183 34.667 253 104c8.66699 9.33301 26.334 30 53.001 62zM724.999 1398c26 -25.333 39 -56.666 39 -93.999s-13 -68.666 -39 -93.999s-57 -38 -93 -38c-36.667 0 -68 12.667 -94 38
s-39 56.666 -39 93.999s13 68.666 39 93.999s57.333 38 94 38c36 0 67 -12.667 93 -38z" />
    <glyph glyph-name="Ccaron" unicode="&#x10c;" horiz-adv-x="1642" 
d="M1388 381l155 -138.999c-189.333 -172.667 -389.666 -259 -600.999 -259c-226 0 -418.667 79.667 -578 239s-239 352 -239 578c0 225.333 79.667 418 239 578s352 240 578 240c211.333 0 411.666 -86.333 600.999 -259l-155 -141
c-142.667 126.667 -291.334 190 -446.001 190c-167.333 0 -310.5 -59.333 -429.5 -178s-178.5 -262 -178.5 -430c0 -168.667 59.5 -312.334 178.5 -431.001s262.167 -178 429.5 -178c154.667 0 303.334 63.333 446.001 190zM1145 1987l-241 -238h-147l-233 238h219l89 -82
l92 82h221z" />
    <glyph glyph-name="ccaron" unicode="&#x10d;" horiz-adv-x="1262" 
d="M965 353l206.999 -73.9961c-50.667 -70 -87.334 -116.333 -110.001 -139c-111.333 -111.333 -245.666 -167 -402.999 -167c-156.667 0 -290.667 55.667 -402 167s-167 245.666 -167 402.999s55.667 291.666 167 402.999s245.333 167 402 167
c157.333 0 291.666 -55.667 402.999 -167c22.667 -22.667 59.334 -68.334 110.001 -137.001l-207 -76c-26.667 32.667 -44.667 53.667 -54 63c-69.333 69.333 -153.333 104 -252 104c-98 0 -181.833 -34.833 -251.5 -104.5s-104.5 -153.834 -104.5 -252.501
c0 -98 34.833 -181.833 104.5 -251.5s153.5 -104.5 251.5 -104.5c98.667 0 183 34.667 253 104c8.66699 9.33301 26.334 30 53.001 62zM941.999 1416l-241 -238h-147l-233 238h219l89 -82l92 82h221z" />
    <glyph glyph-name="Dcaron" unicode="&#x10e;" horiz-adv-x="1250" 
d="M357 1389v-1179c164.667 0 299.667 53 405 159c118.667 118.667 178 262.334 178 431.001c0 168 -59.333 311.667 -178 431c-105.333 105.333 -240.333 158 -405 158zM302 1600c260 -1.33301 462.667 -75 608 -221c159.333 -160.667 239 -353.667 239 -579
c0 -226 -79.667 -419 -239 -579c-145.333 -146 -348 -219.667 -608 -221h-152v1600h152zM960 1987l-241 -238h-147l-233 238h219l89 -82l92 82h221z" />
    <glyph glyph-name="dcaron" unicode="&#x10f;" horiz-adv-x="1619" 
d="M1043 466v152.999c-12 64.667 -44.333 123.334 -97 176.001c-69.333 70 -153.333 105 -252 105s-182.834 -35 -252.501 -105s-104.5 -154 -104.5 -252c0 -98.667 34.833 -182.667 104.5 -252s153.834 -104 252.501 -104s182.667 34.667 252 104
c52.667 52.667 85 111 97 175zM1043 957.999v642.002h208v-1600h-208v128c-100 -103.333 -216.333 -155 -349 -155c-157.333 0 -291.5 55.667 -402.5 167s-166.5 245.666 -166.5 402.999s55.5 291.666 166.5 402.999s245.167 167 402.5 167c132.667 0 249 -51.667 349 -155z
M1361 1363c-28 28 -42 62.333 -42 103c0 40 14.167 74 42.5 102s62.5 42 102.5 42c39.333 0 73.333 -14 102 -42s43 -62 43 -102c0 -21.333 -4 -42 -12 -62l-108 -219h-189z" />
    <glyph glyph-name="Dcroat" unicode="&#x110;" horiz-adv-x="1250" 
d="M150 903v697h152c260 -1.33301 462.667 -75 608 -221c159.333 -160.667 239 -353.667 239 -579c0 -226 -79.667 -419 -239 -579c-145.333 -146 -348 -219.667 -608 -221h-152v697h-190v206h190zM357 903l347 -0.000976562v-206h-347v-487c164.667 0 299.667 53 405 159
c118.667 118.667 178 262.334 178 431.001c0 168 -59.333 311.667 -178 431c-105.333 105.333 -240.333 158 -405 158v-486z" />
    <glyph glyph-name="dcroat" unicode="&#x111;" horiz-adv-x="1401" 
d="M1043 466v152.999c-12 64.667 -44.333 123.334 -97 176.001c-69.333 70 -153.333 105 -252 105s-182.834 -35 -252.501 -105s-104.5 -154 -104.5 -252c0 -98.667 34.833 -182.667 104.5 -252s153.834 -104 252.501 -104s182.667 34.667 252 104
c52.667 52.667 85 111 97 175zM1251 1225v-1225h-208v128c-100 -103.333 -216.333 -155 -349 -155c-157.333 0 -291.5 55.667 -402.5 167s-166.5 245.666 -166.5 402.999s55.5 291.666 166.5 402.999s245.167 167 402.5 167c132.667 0 249 -51.667 349 -155v267h-466v206
h466v169h208v-169h170v-206h-170z" />
    <glyph glyph-name="Emacron" unicode="&#x112;" horiz-adv-x="1137" 
d="M1012 1600v-207h-655v-489h655v-207h-655v-489h655v-208h-862v1600h862zM298 2008h567v-207h-567v207z" />
    <glyph glyph-name="emacron" unicode="&#x113;" horiz-adv-x="1262" 
d="M470 233c34.667 -30.667 97.666 -45.998 188.999 -45.998c98.667 0 183 34.667 253 104c8.66699 9.33301 26.334 30 53.001 62l207 -74c-50.667 -70 -87.334 -116.333 -110.001 -139c-111.333 -111.333 -245.666 -167 -402.999 -167c-156.667 0 -290.667 55.667 -402 167
s-167 245.666 -167 402.999s55.667 291.666 167 402.999s245.333 167 402 167c134.667 0 252.667 -40.667 354 -122c16.667 -14 33 -29 49 -45c6.66699 -6.66699 25.667 -27.667 57 -63l-104 -105zM815.999 873.002c-23.333 18 -75.667 27.001 -157 27.001
c-98 0 -181.833 -34.833 -251.5 -104.5s-104.5 -153.834 -104.5 -252.501c0 -80.667 9 -133 27 -157zM347.998 1437h567v-207h-567v207z" />
    <glyph glyph-name="Ebreve" unicode="&#x114;" horiz-adv-x="1137" 
d="M1012 1600v-207h-655v-489h655v-207h-655v-489h655v-208h-862v1600h862zM493 1984c7.33301 -41.333 16.001 -66.999 26.001 -76.999c17.333 -17.333 38.333 -26 63 -26c24 0 44.667 9 62 27c10 9.33301 18.333 34.666 25 75.999h190
c-14.667 -82 -41.334 -142.667 -80.001 -182c-54 -54.667 -119.667 -82 -197 -82c-78 0 -144 27.333 -198 82c-42 42 -68.667 102.667 -80 182h189z" />
    <glyph glyph-name="ebreve" unicode="&#x115;" horiz-adv-x="1262" 
d="M470 233c34.667 -30.667 97.666 -45.998 188.999 -45.998c98.667 0 183 34.667 253 104c8.66699 9.33301 26.334 30 53.001 62l207 -74c-50.667 -70 -87.334 -116.333 -110.001 -139c-111.333 -111.333 -245.666 -167 -402.999 -167c-156.667 0 -290.667 55.667 -402 167
s-167 245.666 -167 402.999s55.667 291.666 167 402.999s245.333 167 402 167c134.667 0 252.667 -40.667 354 -122c16.667 -14 33 -29 49 -45c6.66699 -6.66699 25.667 -27.667 57 -63l-104 -105zM815.999 873.002c-23.333 18 -75.667 27.001 -157 27.001
c-98 0 -181.833 -34.833 -251.5 -104.5s-104.5 -153.834 -104.5 -252.501c0 -80.667 9 -133 27 -157zM542.998 1413c7.33301 -41.333 16.001 -66.999 26.001 -76.999c17.333 -17.333 38.333 -26 63 -26c24 0 44.667 9 62 27c10 9.33301 18.333 34.666 25 75.999h190
c-14.667 -82 -41.334 -142.667 -80.001 -182c-54 -54.667 -119.667 -82 -197 -82c-78 0 -144 27.333 -198 82c-42 42 -68.667 102.667 -80 182h189z" />
    <glyph glyph-name="Edotaccent" unicode="&#x116;" horiz-adv-x="1137" 
d="M1012 1600v-207h-655v-489h655v-207h-655v-489h655v-208h-862v1600h862zM675 1969c26 -25.333 39 -56.666 39 -93.999s-13 -68.666 -39 -93.999s-57 -38 -93 -38c-36.667 0 -68 12.667 -94 38s-39 56.666 -39 93.999s13 68.666 39 93.999s57.333 38 94 38
c36 0 67 -12.667 93 -38z" />
    <glyph glyph-name="edotaccent" unicode="&#x117;" horiz-adv-x="1262" 
d="M470 233c34.667 -30.667 97.666 -45.998 188.999 -45.998c98.667 0 183 34.667 253 104c8.66699 9.33301 26.334 30 53.001 62l207 -74c-50.667 -70 -87.334 -116.333 -110.001 -139c-111.333 -111.333 -245.666 -167 -402.999 -167c-156.667 0 -290.667 55.667 -402 167
s-167 245.666 -167 402.999s55.667 291.666 167 402.999s245.333 167 402 167c134.667 0 252.667 -40.667 354 -122c16.667 -14 33 -29 49 -45c6.66699 -6.66699 25.667 -27.667 57 -63l-104 -105zM815.999 873.002c-23.333 18 -75.667 27.001 -157 27.001
c-98 0 -181.833 -34.833 -251.5 -104.5s-104.5 -153.834 -104.5 -252.501c0 -80.667 9 -133 27 -157zM724.998 1398c26 -25.333 39 -56.666 39 -93.999s-13 -68.666 -39 -93.999s-57 -38 -93 -38c-36.667 0 -68 12.667 -94 38s-39 56.666 -39 93.999s13 68.666 39 93.999
s57.333 38 94 38c36 0 67 -12.667 93 -38z" />
    <glyph glyph-name="Eogonek" unicode="&#x118;" horiz-adv-x="1137" 
d="M679 0l-529 0.000976562v1600h862v-207h-655v-489h655v-207h-655v-489h655v-208h-155c-34 -47.333 -51 -87 -51 -119c0 -10.667 2 -20.334 6 -29.001c10 -24.667 25.333 -37 46 -37c24.667 0 56.667 17 96 51l58 -153c-81.333 -33.333 -143 -50 -185 -50
c-63.333 0 -114.666 22 -153.999 66c-32 36 -48 79.333 -48 130c0 11.333 0.666992 23 2 35c5.33301 36.667 22.666 72 51.999 106z" />
    <glyph glyph-name="eogonek" unicode="&#x119;" horiz-adv-x="1262" 
d="M816 873c-23.333 18 -75.667 27.001 -157 27.001c-98 0 -181.833 -34.833 -251.5 -104.5s-104.5 -153.834 -104.5 -252.501c0 -80.667 9 -133 27 -157zM731.999 -22.999c-24 -2.66699 -48.334 -3.99707 -73.001 -3.99707c-156.667 0 -290.667 55.667 -402 167
s-167 245.666 -167 402.999s55.667 291.666 167 402.999s245.333 167 402 167c134.667 0 252.667 -40.667 354 -122c16.667 -14 33 -29 49 -45c6.66699 -6.66699 25.667 -27.667 57 -63l-104 -105l-545 -545c34.667 -30.667 97.667 -46 189 -46c98.667 0 183 34.667 253 104
c8.66699 9.33301 26.334 30 53.001 62l207 -74c-50.667 -70 -87.334 -116.333 -110.001 -139c-20 -20 -40.333 -38 -61 -54c-83.333 -88 -125 -156.667 -125 -206c0 -10.667 2 -20.334 6 -29.001c10 -24.667 25.333 -37 46 -37c24.667 0 56.667 17 96 51l58 -153
c-81.333 -33.333 -143 -50 -185 -50c-63.333 0 -114.666 22 -153.999 66c-32 36 -48 79.333 -48 130c0 11.333 0.666992 23 2 35c4 28.667 15.667 56.667 35 84z" />
    <glyph glyph-name="Ecaron" unicode="&#x11a;" horiz-adv-x="1137" 
d="M1012 1600v-207h-655v-489h655v-207h-655v-489h655v-208h-862v1600h862zM892 1987l-241 -238h-147l-233 238h219l89 -82l92 82h221z" />
    <glyph glyph-name="ecaron" unicode="&#x11b;" horiz-adv-x="1262" 
d="M470 233c34.667 -30.667 97.666 -45.998 188.999 -45.998c98.667 0 183 34.667 253 104c8.66699 9.33301 26.334 30 53.001 62l207 -74c-50.667 -70 -87.334 -116.333 -110.001 -139c-111.333 -111.333 -245.666 -167 -402.999 -167c-156.667 0 -290.667 55.667 -402 167
s-167 245.666 -167 402.999s55.667 291.666 167 402.999s245.333 167 402 167c134.667 0 252.667 -40.667 354 -122c16.667 -14 33 -29 49 -45c6.66699 -6.66699 25.667 -27.667 57 -63l-104 -105zM815.999 873.002c-23.333 18 -75.667 27.001 -157 27.001
c-98 0 -181.833 -34.833 -251.5 -104.5s-104.5 -153.834 -104.5 -252.501c0 -80.667 9 -133 27 -157zM941.998 1416l-241 -238h-147l-233 238h219l89 -82l92 82h221z" />
    <glyph glyph-name="Gcircumflex" unicode="&#x11c;" horiz-adv-x="1668" 
d="M1507 219c-164.667 -157.333 -352.998 -235.999 -564.998 -235.999c-226 0 -418.667 79.667 -578 239s-239 352 -239 578c0 225.333 79.667 418 239 578s352 240 578 240c211.333 0 411.666 -86.333 600.999 -259l-155 -141c-142.667 126.667 -291.334 190 -446.001 190
c-167.333 0 -310.5 -59.333 -429.5 -178s-178.5 -262 -178.5 -430c0 -168.667 59.5 -312.334 178.5 -431.001s262.167 -178 429.5 -178c144 0 263.333 38 358 114v483h207v-569zM924.002 1749l-92 82l-89 -82h-219l233 238h147l241 -238h-221z" />
    <glyph glyph-name="gcircumflex" unicode="&#x11d;" horiz-adv-x="1405" 
d="M1042 623c-12.667 63.333 -44.667 120.668 -96 172.001c-69.333 70 -153.333 105 -252 105s-182.834 -35 -252.501 -105s-104.5 -154 -104.5 -252c0 -98.667 34.833 -182.834 104.5 -252.501s153.834 -104.5 252.501 -104.5s182.667 34.667 252 104
c51.333 51.333 83.333 108 96 170v163zM1043 958.002l-0.00195312 71h208v-765c0 -200 -54.333 -354.333 -163 -463c-111.333 -98 -245.666 -147 -402.999 -147s-291.666 49 -402.999 147c-22.667 22.667 -59 68.667 -109 138l206 74c26.667 -32 44.667 -52.667 54 -62
c70 -69.333 154 -104 252 -104c164.667 0 278.667 108 342 324c-64.667 -125.333 -175.667 -188 -333 -188s-291.5 54 -402.5 162s-166.5 240.667 -166.5 398s55.5 291.5 166.5 402.5s245.167 166.5 402.5 166.5c132.667 0 249 -51.333 349 -154zM777.998 1178l-92 82
l-89 -82h-219l233 238h147l241 -238h-221z" />
    <glyph glyph-name="Gbreve" unicode="&#x11e;" horiz-adv-x="1668" 
d="M1507 219c-164.667 -157.333 -352.998 -235.999 -564.998 -235.999c-226 0 -418.667 79.667 -578 239s-239 352 -239 578c0 225.333 79.667 418 239 578s352 240 578 240c211.333 0 411.666 -86.333 600.999 -259l-155 -141c-142.667 126.667 -291.334 190 -446.001 190
c-167.333 0 -310.5 -59.333 -429.5 -178s-178.5 -262 -178.5 -430c0 -168.667 59.5 -312.334 178.5 -431.001s262.167 -178 429.5 -178c144 0 263.333 38 358 114v483h207v-569zM746.002 1984c7.33301 -41.333 16.001 -66.999 26.001 -76.999
c17.333 -17.333 38.333 -26 63 -26c24 0 44.667 9 62 27c10 9.33301 18.333 34.666 25 75.999h190c-14.667 -82 -41.334 -142.667 -80.001 -182c-54 -54.667 -119.667 -82 -197 -82c-78 0 -144 27.333 -198 82c-42 42 -68.667 102.667 -80 182h189z" />
    <glyph glyph-name="gbreve" unicode="&#x11f;" horiz-adv-x="1405" 
d="M1042 623c-12.667 63.333 -44.667 120.668 -96 172.001c-69.333 70 -153.333 105 -252 105s-182.834 -35 -252.501 -105s-104.5 -154 -104.5 -252c0 -98.667 34.833 -182.834 104.5 -252.501s153.834 -104.5 252.501 -104.5s182.667 34.667 252 104
c51.333 51.333 83.333 108 96 170v163zM1043 958.002l-0.00195312 71h208v-765c0 -200 -54.333 -354.333 -163 -463c-111.333 -98 -245.666 -147 -402.999 -147s-291.666 49 -402.999 147c-22.667 22.667 -59 68.667 -109 138l206 74c26.667 -32 44.667 -52.667 54 -62
c70 -69.333 154 -104 252 -104c164.667 0 278.667 108 342 324c-64.667 -125.333 -175.667 -188 -333 -188s-291.5 54 -402.5 162s-166.5 240.667 -166.5 398s55.5 291.5 166.5 402.5s245.167 166.5 402.5 166.5c132.667 0 249 -51.333 349 -154zM599.998 1413
c7.33301 -41.333 16.001 -66.999 26.001 -76.999c17.333 -17.333 38.333 -26 63 -26c24 0 44.667 9 62 27c10 9.33301 18.333 34.666 25 75.999h190c-14.667 -82 -41.334 -142.667 -80.001 -182c-54 -54.667 -119.667 -82 -197 -82c-78 0 -144 27.333 -198 82
c-42 42 -68.667 102.667 -80 182h189z" />
    <glyph glyph-name="Gdotaccent" unicode="&#x120;" horiz-adv-x="1668" 
d="M1507 219c-164.667 -157.333 -352.998 -235.999 -564.998 -235.999c-226 0 -418.667 79.667 -578 239s-239 352 -239 578c0 225.333 79.667 418 239 578s352 240 578 240c211.333 0 411.666 -86.333 600.999 -259l-155 -141c-142.667 126.667 -291.334 190 -446.001 190
c-167.333 0 -310.5 -59.333 -429.5 -178s-178.5 -262 -178.5 -430c0 -168.667 59.5 -312.334 178.5 -431.001s262.167 -178 429.5 -178c144 0 263.333 38 358 114v483h207v-569zM928.002 1969c26 -25.333 39 -56.666 39 -93.999s-13 -68.666 -39 -93.999s-57 -38 -93 -38
c-36.667 0 -68 12.667 -94 38s-39 56.666 -39 93.999s13 68.666 39 93.999s57.333 38 94 38c36 0 67 -12.667 93 -38z" />
    <glyph glyph-name="gdotaccent" unicode="&#x121;" horiz-adv-x="1405" 
d="M1042 623c-12.667 63.333 -44.667 120.668 -96 172.001c-69.333 70 -153.333 105 -252 105s-182.834 -35 -252.501 -105s-104.5 -154 -104.5 -252c0 -98.667 34.833 -182.834 104.5 -252.501s153.834 -104.5 252.501 -104.5s182.667 34.667 252 104
c51.333 51.333 83.333 108 96 170v163zM1043 958.002l-0.00195312 71h208v-765c0 -200 -54.333 -354.333 -163 -463c-111.333 -98 -245.666 -147 -402.999 -147s-291.666 49 -402.999 147c-22.667 22.667 -59 68.667 -109 138l206 74c26.667 -32 44.667 -52.667 54 -62
c70 -69.333 154 -104 252 -104c164.667 0 278.667 108 342 324c-64.667 -125.333 -175.667 -188 -333 -188s-291.5 54 -402.5 162s-166.5 240.667 -166.5 398s55.5 291.5 166.5 402.5s245.167 166.5 402.5 166.5c132.667 0 249 -51.333 349 -154zM781.998 1398
c26 -25.333 39 -56.666 39 -93.999s-13 -68.666 -39 -93.999s-57 -38 -93 -38c-36.667 0 -68 12.667 -94 38s-39 56.666 -39 93.999s13 68.666 39 93.999s57.333 38 94 38c36 0 67 -12.667 93 -38z" />
    <glyph glyph-name="Gcommaaccent" unicode="&#x122;" horiz-adv-x="1668" 
d="M780 -2c-157.333 29.333 -295.996 103.998 -415.996 223.998c-159.333 159.333 -239 352 -239 578c0 225.333 79.667 418 239 578s352 240 578 240c211.333 0 411.666 -86.333 600.999 -259l-155 -141c-142.667 126.667 -291.334 190 -446.001 190
c-167.333 0 -310.5 -59.333 -429.5 -178s-178.5 -262 -178.5 -430c0 -168.667 59.5 -312.334 178.5 -431.001s262.167 -178 429.5 -178c144 0 263.333 38 358 114v483h207v-569c-164.667 -157.333 -353 -236 -565 -236h-19l-10 -27c49.333 -25.333 81 -55 95 -89
c2.66699 -9.33301 5 -18.333 7 -27s3 -17.334 3 -26.001c0 -28.667 -10.333 -55.667 -31 -81c-32.667 -39.333 -80.667 -63.666 -144 -72.999c-12.667 -2 -27.334 -3 -44.001 -3c-38.667 0 -88.334 5 -149.001 15l35 126c38 -17.333 69 -26 93 -26
c4 0 7.66699 0.333008 11 1c20.667 2.66699 34 14.334 40 35.001c2 4.66699 3 9.66699 3 15c0 2.66699 -0.333008 5.33398 -1 8.00098c-4 18.667 -34.667 37.334 -92 56.001z" />
    <glyph glyph-name="gcommaaccent" unicode="&#x123;" horiz-adv-x="1405" 
d="M1042 623c-12.667 63.333 -44.667 120.668 -96 172.001c-69.333 70 -153.333 105 -252 105s-182.834 -35 -252.501 -105s-104.5 -154 -104.5 -252c0 -98.667 34.833 -182.834 104.5 -252.501s153.834 -104.5 252.501 -104.5s182.667 34.667 252 104
c51.333 51.333 83.333 108 96 170v163zM1043 958.002l-0.00195312 71h208v-765c0 -200 -54.333 -354.333 -163 -463c-111.333 -98 -245.666 -147 -402.999 -147s-291.666 49 -402.999 147c-22.667 22.667 -59 68.667 -109 138l206 74c26.667 -32 44.667 -52.667 54 -62
c70 -69.333 154 -104 252 -104c164.667 0 278.667 108 342 324c-64.667 -125.333 -175.667 -188 -333 -188s-291.5 54 -402.5 162s-166.5 240.667 -166.5 398s55.5 291.5 166.5 402.5s245.167 166.5 402.5 166.5c132.667 0 249 -51.333 349 -154zM787.998 1432
c28 -28 42 -62.333 42 -103c0 -40 -14.167 -74 -42.5 -102s-62.5 -42 -102.5 -42c-39.333 0 -73.333 14 -102 42s-43 62 -43 102c0 21.333 4 42 12 62l108 219h189z" />
    <glyph glyph-name="Hcircumflex" unicode="&#x124;" horiz-adv-x="1208" 
d="M357 662v-662h-207v1600h207v-731h494v731h207v-1600h-207v662h-494zM694 1749l-92 82l-89 -82h-219l233 238h147l241 -238h-221z" />
    <glyph glyph-name="hcircumflex" unicode="&#x125;" horiz-adv-x="1125" 
d="M150 1600l208.001 0.000976562v-682c58 111.333 142 167 252 167s197.833 -39.5 263.5 -118.5s99.5 -178.167 101.5 -297.5v-669h-207v661c0 59.333 -16.833 110.166 -50.5 152.499s-86.834 63.5 -159.501 63.5c-86 0 -152.667 -46 -200 -138v-739h-208v1600z
M694.001 1749l-92 82l-89 -82h-219l233 238h147l241 -238h-221z" />
    <glyph glyph-name="Hbar" unicode="&#x126;" horiz-adv-x="1208" 
d="M1058 1194v-1194h-207v662h-494v-662h-207v1194h-138v206h138v200h207v-200h494v200h207v-200h138v-206h-138zM357 1194v-325h494v325h-494z" />
    <glyph glyph-name="hbar" unicode="&#x127;" horiz-adv-x="1125" 
d="M150 1431l0.000976562 169.001h208v-169h446v-206h-446v-307c58 111.333 142 167 252 167s197.833 -39.5 263.5 -118.5s99.5 -178.167 101.5 -297.5v-669h-207v661c0 59.333 -16.833 110.166 -50.5 152.499s-86.834 63.5 -159.501 63.5c-86 0 -152.667 -46 -200 -138
v-739h-208v1225h-140v206h140z" />
    <glyph glyph-name="Itilde" unicode="&#x128;" 
d="M377 1600v-1600h-207v1600h207zM386 1888l0.00195312 -1c20 0 30 13 30 39c0 17.333 -4.33301 40.333 -13 69h186c-25.333 -146.667 -74.333 -230.667 -147 -252c-18.667 -5.33301 -37.334 -8 -56.001 -8c-49.333 0 -93.833 19 -133.5 57s-68.834 57 -87.501 57h-4
c-20 -1.33301 -30 -14.333 -30 -39c0 -16.667 4.66699 -38.667 14 -66h-187c26 146.667 75.667 230.667 149 252c18.667 5.33301 37.334 8 56.001 8c48.667 0 93.667 -19.333 135 -58s70.666 -58 87.999 -58z" />
    <glyph glyph-name="itilde" unicode="&#x129;" 
d="M377 1030v-1030h-207v1030h207zM386 1317l0.00195312 -1c20 0 30 13 30 39c0 17.333 -4.33301 40.333 -13 69h186c-25.333 -146.667 -74.333 -230.667 -147 -252c-18.667 -5.33301 -37.334 -8 -56.001 -8c-49.333 0 -93.833 19 -133.5 57s-68.834 57 -87.501 57h-4
c-20 -1.33301 -30 -14.333 -30 -39c0 -16.667 4.66699 -38.667 14 -66h-187c26 146.667 75.667 230.667 149 252c18.667 5.33301 37.334 8 56.001 8c48.667 0 93.667 -19.333 135 -58s70.666 -58 87.999 -58z" />
    <glyph glyph-name="Imacron" unicode="&#x12a;" 
d="M377 1600v-1600h-207v1600h207zM-10 2008h567v-207h-567v207z" />
    <glyph glyph-name="imacron" unicode="&#x12b;" 
d="M377 1030v-1030h-207v1030h207zM-10 1437h567v-207h-567v207z" />
    <glyph glyph-name="Ibreve" unicode="&#x12c;" 
d="M377 1600v-1600h-207v1600h207zM185 1984c7.33301 -41.333 16.001 -66.999 26.001 -76.999c17.333 -17.333 38.333 -26 63 -26c24 0 44.667 9 62 27c10 9.33301 18.333 34.666 25 75.999h190c-14.667 -82 -41.334 -142.667 -80.001 -182
c-54 -54.667 -119.667 -82 -197 -82c-78 0 -144 27.333 -198 82c-42 42 -68.667 102.667 -80 182h189z" />
    <glyph glyph-name="ibreve" unicode="&#x12d;" 
d="M377 1030v-1030h-207v1030h207zM185 1413c7.33301 -41.333 16.001 -66.999 26.001 -76.999c17.333 -17.333 38.333 -26 63 -26c24 0 44.667 9 62 27c10 9.33301 18.333 34.666 25 75.999h190c-14.667 -82 -41.334 -142.667 -80.001 -182
c-54 -54.667 -119.667 -82 -197 -82c-78 0 -144 27.333 -198 82c-42 42 -68.667 102.667 -80 182h189z" />
    <glyph glyph-name="Iogonek" unicode="&#x12e;" 
d="M170 100l-0.000976562 1500h207v-1600h-155c-34 -47.333 -51 -87 -51 -119c0 -10.667 2 -20.334 6 -29.001c10 -24.667 25.333 -37 46 -37c24.667 0 56.667 17 96 51l58 -153c-81.333 -33.333 -143 -50 -185 -50c-63.333 0 -114.666 22 -153.999 66
c-32 36 -48 79.333 -48 130c0 11.333 0.666992 23 2 35c10.667 74 70 142.667 178 206z" />
    <glyph glyph-name="iogonek" unicode="&#x12f;" horiz-adv-x="541" 
d="M373 1410c28.667 -28 43 -62.333 43 -103s-14.333 -75 -43 -103s-63 -42 -103 -42c-39.333 0 -73.333 14 -102 42s-43 62.333 -43 103s14.333 75 43 103s62.667 42 102 42c40 0 74.333 -14 103 -42zM167 73v956.001h207v-1029h-113c-34 -47.333 -51 -87 -51 -119
c0 -10.667 2 -20.334 6 -29.001c10 -24.667 25.333 -37 46 -37c24.667 0 56.667 17 96 51l58 -153c-81.333 -33.333 -143 -50 -185 -50c-63.333 0 -114.666 22 -153.999 66c-32 36 -48 79.333 -48 130c0 11.333 0.666992 23 2 35c9.33301 63.333 54.666 123 135.999 179z
" />
    <glyph glyph-name="dotlessi" unicode="&#x131;" 
d="M377 1030v-1030h-207v1030h207z" />
    <glyph glyph-name="IJ" unicode="&#x132;" horiz-adv-x="1485" 
d="M377 1600v-1600h-207v1600h207zM1329 343c0 -110.667 -30.335 -196.668 -91.002 -258.001c-64.667 -65.333 -143 -98 -235 -98c-91.333 0 -169.166 32.5 -233.499 97.5s-96.5 151.5 -96.5 259.5l164 64c18.667 -101.333 42.334 -163.666 71.001 -186.999
c21.333 -18 50 -27 86 -27h4c38 0.666992 69.333 13 94 37c20 20.667 30 61 30 121v1248h207v-1257z" />
    <glyph glyph-name="ij" unicode="&#x133;" horiz-adv-x="1102" 
d="M374 1029v-1029h-207v1029h207zM373 1410c28.667 -28 43 -62.333 43 -103s-14.333 -75 -43 -103s-63 -42 -103 -42c-39.333 0 -73.333 14 -102 42s-43 62.333 -43 103s14.333 75 43 103s62.667 42 102 42c40 0 74.333 -14 103 -42zM590 -10
c74.667 8 112 31.334 112 70.001v969h207v-967c0 -168.667 -106.333 -261.334 -319 -278.001v206zM908 1410c28.667 -28 43 -62.333 43 -103s-14.333 -75 -43 -103s-63 -42 -103 -42c-39.333 0 -73.333 14 -102 42s-43 62.333 -43 103s14.333 75 43 103s62.667 42 102 42
c40 0 74.333 -14 103 -42z" />
    <glyph glyph-name="Jcircumflex" unicode="&#x134;" horiz-adv-x="937" 
d="M781 343c0 -110.667 -30.335 -196.668 -91.002 -258.001c-64.667 -65.333 -143 -98 -235 -98c-91.333 0 -169.166 32.5 -233.499 97.5s-96.5 151.5 -96.5 259.5l164 64c18.667 -101.333 42.334 -163.666 71.001 -186.999c21.333 -18 50 -27 86 -27h4
c38 0.666992 69.333 13 94 37c20 20.667 30 61 30 121v1248h207v-1257zM742.998 1749l-92 82l-89 -82h-219l233 238h147l241 -238h-221z" />
    <glyph glyph-name="jcircumflex" unicode="&#x135;" horiz-adv-x="685" 
d="M151 -10c74.667 8 112 31.334 112 70.001v969h207v-967c0 -168.667 -106.333 -261.334 -319 -278.001v206zM443 1149l-92 82l-89 -82h-219l233 238h147l241 -238h-221z" />
    <glyph glyph-name="Kcommaaccent" unicode="&#x136;" horiz-adv-x="1206" 
d="M357 755v-755h-207v1600h207v-504l378 504h262l-491 -658l611 -942h-251l-495 772zM670 17l-22.998 -61.0029c49.333 -25.333 81 -55 95 -89c2.66699 -9.33301 5 -18.333 7 -27s3 -17.334 3 -26.001c0 -28.667 -10.333 -55.667 -31 -81
c-32.667 -39.333 -80.667 -63.666 -144 -72.999c-12.667 -2 -27.334 -3 -44.001 -3c-38.667 0 -88.334 5 -149.001 15l35 126c38 -17.333 69 -26 93 -26c4 0 7.66699 0.333008 11 1c20.667 2.66699 34 14.334 40 35.001c2 4.66699 3 9.66699 3 15
c0 2.66699 -0.333008 5.33398 -1 8.00098c-4 18.667 -34.667 37.334 -92 56.001l48 130h149z" />
    <glyph glyph-name="kcommaaccent" unicode="&#x137;" horiz-adv-x="944" 
d="M785 1029l-279 -344l388 -685h-247l-280 513l-9 -11v-502h-208v1415h208v-582l160 196h267zM624 17l-22.998 -61.0029c49.333 -25.333 81 -55 95 -89c2.66699 -9.33301 5 -18.333 7 -27s3 -17.334 3 -26.001c0 -28.667 -10.333 -55.667 -31 -81
c-32.667 -39.333 -80.667 -63.666 -144 -72.999c-12.667 -2 -27.334 -3 -44.001 -3c-38.667 0 -88.334 5 -149.001 15l35 126c38 -17.333 69 -26 93 -26c4 0 7.66699 0.333008 11 1c20.667 2.66699 34 14.334 40 35.001c2 4.66699 3 9.66699 3 15
c0 2.66699 -0.333008 5.33398 -1 8.00098c-4 18.667 -34.667 37.334 -92 56.001l48 130h149z" />
    <glyph glyph-name="kgreenlandic" unicode="&#x138;" horiz-adv-x="943" 
d="M784 1030l-278 -345l387 -685h-247l-280 514l-9 -11v-503h-207v1030h207v-197l160 197h267z" />
    <glyph glyph-name="Lacute" unicode="&#x139;" horiz-adv-x="1019" 
d="M150 0v1600h207v-1392h572v-208h-779zM600 1937h189l-204 -279h-148z" />
    <glyph glyph-name="lacute" unicode="&#x13a;" horiz-adv-x="508" 
d="M359 1601v-1601h-208v1601h208zM300 1937h189l-204 -279h-148z" />
    <glyph glyph-name="Lcommaaccent" unicode="&#x13b;" horiz-adv-x="1019" 
d="M487 0l-336.998 -0.00292969v1600h207v-1392h572v-208h-293l-17 -44c49.333 -25.333 81 -55 95 -89c2.66699 -9.33301 5 -18.333 7 -27s3 -17.334 3 -26.001c0 -28.667 -10.333 -55.667 -31 -81c-32.667 -39.333 -80.667 -63.666 -144 -72.999
c-12.667 -2 -27.334 -3 -44.001 -3c-38.667 0 -88.334 5 -149.001 15l35 126c38 -17.333 69 -26 93 -26c4 0 7.66699 0.333008 11 1c20.667 2.66699 34 14.334 40 35.001c2 4.66699 3 9.66699 3 15c0 2.66699 -0.333008 5.33398 -1 8.00098
c-4 18.667 -34.667 37.334 -92 56.001z" />
    <glyph glyph-name="lcommaaccent" unicode="&#x13c;" horiz-adv-x="508" 
d="M187 0l-35.998 -0.00292969v1601h208v-1601h-23l-17 -44c49.333 -25.333 81 -55 95 -89c2.66699 -9.33301 5 -18.333 7 -27s3 -17.334 3 -26.001c0 -28.667 -10.333 -55.667 -31 -81c-32.667 -39.333 -80.667 -63.666 -144 -72.999c-12.667 -2 -27.334 -3 -44.001 -3
c-38.667 0 -88.334 5 -149.001 15l35 126c38 -17.333 69 -26 93 -26c4 0 7.66699 0.333008 11 1c20.667 2.66699 34 14.334 40 35.001c2 4.66699 3 9.66699 3 15c0 2.66699 -0.333008 5.33398 -1 8.00098c-4 18.667 -34.667 37.334 -92 56.001z" />
    <glyph glyph-name="Lcaron" unicode="&#x13d;" horiz-adv-x="956" 
d="M127 0v1600h208v-1392h562v-208h-770zM611 1363c-28 28 -42 62.333 -42 103c0 40 14.167 74 42.5 102s62.5 42 102.5 42c39.333 0 73.333 -14 102 -42s43 -62 43 -102c0 -21.333 -4 -42 -12 -62l-108 -219h-189z" />
    <glyph glyph-name="lcaron" unicode="&#x13e;" horiz-adv-x="679" 
d="M335 1600v-1600h-208v1600h208zM411 1363c-28 28 -42 62.333 -42 103c0 40 14.167 74 42.5 102s62.5 42 102.5 42c39.333 0 73.333 -14 102 -42s43 -62 43 -102c0 -21.333 -4 -42 -12 -62l-108 -219h-189z" />
    <glyph glyph-name="Ldot" unicode="&#x13f;" horiz-adv-x="956" 
d="M127 0v1600h208v-1392h562v-208h-770zM816 893.5c26 -25.667 39 -56.834 39 -93.501s-13 -67.834 -39 -93.501s-57 -38.5 -93 -38.5s-67.167 12.833 -93.5 38.5s-39.5 56.834 -39.5 93.501s13.167 67.834 39.5 93.501s57.5 38.5 93.5 38.5s67 -12.833 93 -38.5z" />
    <glyph glyph-name="ldot" unicode="&#x140;" horiz-adv-x="595" 
d="M320 1600v-1600h-208v1600h208zM605.5 893.5c26.333 -25.667 39.5 -56.834 39.5 -93.501s-13.167 -67.834 -39.5 -93.501s-57.166 -38.5 -92.499 -38.5c-36.667 0 -68 12.833 -94 38.5s-39 56.834 -39 93.501s13 67.834 39 93.501s57.333 38.5 94 38.5
c35.333 0 66.166 -12.833 92.499 -38.5z" />
    <glyph glyph-name="Lslash" unicode="&#x141;" horiz-adv-x="1038" 
d="M419 919l419 341v-258l-419 -341v-453h562v-208h-770v491l-211 -171v258l211 171v851h208v-681z" />
    <glyph glyph-name="lslash" unicode="&#x142;" horiz-adv-x="517" 
d="M154 835v765h208v-596l155 126v-258l-155 -127v-745h-208v576l-154 -126v258z" />
    <glyph glyph-name="Nacute" unicode="&#x143;" horiz-adv-x="1357" 
d="M150 1600h189l660 -1142v1142h208v-1600h-181l-669 1156v-1156h-207v1600zM739 1978h252l-272 -279h-197z" />
    <glyph glyph-name="nacute" unicode="&#x144;" horiz-adv-x="1139" 
d="M358 753l-0.000976562 -752.998h-208v1029h208v-120c43.333 117.333 130.333 176 261 176c111.333 0 199.833 -39.5 265.5 -118.5s99.5 -178.167 101.5 -297.5v-669h-207v661c0 59.333 -21.667 110.166 -65 152.499s-95 63.5 -155 63.5
c-59.333 0 -110.666 -20.667 -153.999 -62c-24 -24.667 -39.667 -45.334 -47 -62.001zM628.999 1407h252l-272 -279h-197z" />
    <glyph glyph-name="Ncommaaccent" unicode="&#x145;" horiz-adv-x="1357" 
d="M150 1600h189l660 -1142v1142h208v-1600h-181l-669 1156v-1156h-207v1600zM781 17l-22.998 -61.0029c49.333 -25.333 81 -55 95 -89c2.66699 -9.33301 5 -18.333 7 -27s3 -17.334 3 -26.001c0 -28.667 -10.333 -55.667 -31 -81
c-32.667 -39.333 -80.667 -63.666 -144 -72.999c-12.667 -2 -27.334 -3 -44.001 -3c-38.667 0 -88.334 5 -149.001 15l35 126c38 -17.333 69 -26 93 -26c4 0 7.66699 0.333008 11 1c20.667 2.66699 34 14.334 40 35.001c2 4.66699 3 9.66699 3 15
c0 2.66699 -0.333008 5.33398 -1 8.00098c-4 18.667 -34.667 37.334 -92 56.001l48 130h149z" />
    <glyph glyph-name="ncommaaccent" unicode="&#x146;" horiz-adv-x="1139" 
d="M358 753l-0.000976562 -752.998h-208v1029h208v-120c43.333 117.333 130.333 176 261 176c111.333 0 199.833 -39.5 265.5 -118.5s99.5 -178.167 101.5 -297.5v-669h-207v661c0 59.333 -21.667 110.166 -65 152.499s-95 63.5 -155 63.5
c-59.333 0 -110.666 -20.667 -153.999 -62c-24 -24.667 -39.667 -45.334 -47 -62.001zM669.999 17.002l-22.998 -61.0029c49.333 -25.333 81 -55 95 -89c2.66699 -9.33301 5 -18.333 7 -27s3 -17.334 3 -26.001c0 -28.667 -10.333 -55.667 -31 -81
c-32.667 -39.333 -80.667 -63.666 -144 -72.999c-12.667 -2 -27.334 -3 -44.001 -3c-38.667 0 -88.334 5 -149.001 15l35 126c38 -17.333 69 -26 93 -26c4 0 7.66699 0.333008 11 1c20.667 2.66699 34 14.334 40 35.001c2 4.66699 3 9.66699 3 15
c0 2.66699 -0.333008 5.33398 -1 8.00098c-4 18.667 -34.667 37.334 -92 56.001l48 130h149z" />
    <glyph glyph-name="Ncaron" unicode="&#x147;" horiz-adv-x="1357" 
d="M150 1600h189l660 -1142v1142h208v-1600h-181l-669 1156v-1156h-207v1600zM989 1987l-241 -238h-147l-233 238h219l89 -82l92 82h221z" />
    <glyph glyph-name="ncaron" unicode="&#x148;" horiz-adv-x="1139" 
d="M358 753l-0.000976562 -752.998h-208v1029h208v-120c43.333 117.333 130.333 176 261 176c111.333 0 199.833 -39.5 265.5 -118.5s99.5 -178.167 101.5 -297.5v-669h-207v661c0 59.333 -21.667 110.166 -65 152.499s-95 63.5 -155 63.5
c-59.333 0 -110.666 -20.667 -153.999 -62c-24 -24.667 -39.667 -45.334 -47 -62.001zM878.999 1416l-241 -238h-147l-233 238h219l89 -82l92 82h221z" />
    <glyph glyph-name="napostrophe" unicode="&#x149;" horiz-adv-x="1139" 
d="M358 753l-0.000976562 -752.998h-208v1029h208v-120c43.333 117.333 130.333 176 261 176c111.333 0 199.833 -39.5 265.5 -118.5s99.5 -178.167 101.5 -297.5v-669h-207v661c0 59.333 -21.667 110.166 -65 152.499s-95 63.5 -155 63.5
c-59.333 0 -110.666 -20.667 -153.999 -62c-24 -24.667 -39.667 -45.334 -47 -62.001zM-89.001 1363c-28 28 -42 62.333 -42 103c0 40 14.167 74 42.5 102s62.5 42 102.5 42c39.333 0 73.333 -14 102 -42s43 -62 43 -102c0 -21.333 -4 -42 -12 -62l-108 -219h-189z" />
    <glyph glyph-name="Eng" unicode="&#x14a;" horiz-adv-x="1357" 
d="M1000 45l-643 1111v-1156h-207v1600h189l659 -1141v536h1v605h208v-1600h-4c-5.33301 -154.667 -76.333 -265.667 -213 -333l-112 122c82 74 123 149.333 123 226c0 13.333 -0.333008 23.333 -1 30z" />
    <glyph glyph-name="eng" unicode="&#x14b;" horiz-adv-x="1136" 
d="M778 626l-0.00195312 35.002c0 59.333 -21.667 110.166 -65 152.499s-94.666 63.5 -153.999 63.5s-110.666 -20.667 -153.999 -62c-24.667 -24.667 -40.667 -45.334 -48 -62.001v-753h-207v1030h207v-121c37.333 117.333 118 176 242 176
c97.333 0 185.5 -39.5 264.5 -118.5s119.5 -178.167 121.5 -297.5v-669h-5c-11.333 -133.333 -79 -246 -203 -338l-127 127c74.667 52 117 131.667 127 239v598h1z" />
    <glyph glyph-name="Omacron" unicode="&#x14c;" horiz-adv-x="1889" 
d="M1523 1381c160 -160 240 -353 240 -579s-80 -419 -240 -579s-353 -240 -579 -240s-419 80 -579 240s-240 353 -240 579s80 419 240 579s353 240 579 240s419 -80 579 -240zM944 1412c-168.667 0 -312.5 -59.5 -431.5 -178.5s-178.5 -262.833 -178.5 -431.5
s59.667 -312.667 179 -432s263 -179 431 -179c168.667 0 312.5 59.667 431.5 179s178.5 263.333 178.5 432s-59.5 312.5 -178.5 431.5s-262.833 178.5 -431.5 178.5zM661 2008h567v-207h-567v207z" />
    <glyph glyph-name="omacron" unicode="&#x14d;" horiz-adv-x="1318" 
d="M659 1113c157.333 0 291.5 -55.667 402.5 -167s166.5 -245.666 166.5 -402.999s-55.5 -291.666 -166.5 -402.999s-245.167 -167 -402.5 -167c-156.667 0 -290.667 55.667 -402 167s-167 245.666 -167 402.999s55.667 291.666 167 402.999s245.333 167 402 167zM406.5 795
c-69.667 -70 -104.5 -154 -104.5 -252c0 -98.667 34.833 -182.667 104.5 -252s153.834 -104 252.501 -104s182.834 34.667 252.501 104s104.5 153.333 104.5 252c0 98 -34.833 182 -104.5 252s-153.834 105 -252.501 105s-182.834 -35 -252.501 -105zM376 1437h567v-207
h-567v207z" />
    <glyph glyph-name="Obreve" unicode="&#x14e;" horiz-adv-x="1889" 
d="M1523 1381c160 -160 240 -353 240 -579s-80 -419 -240 -579s-353 -240 -579 -240s-419 80 -579 240s-240 353 -240 579s80 419 240 579s353 240 579 240s419 -80 579 -240zM944 1412c-168.667 0 -312.5 -59.5 -431.5 -178.5s-178.5 -262.833 -178.5 -431.5
s59.667 -312.667 179 -432s263 -179 431 -179c168.667 0 312.5 59.667 431.5 179s178.5 263.333 178.5 432s-59.5 312.5 -178.5 431.5s-262.833 178.5 -431.5 178.5zM856 1984c7.33301 -41.333 16.001 -66.999 26.001 -76.999c17.333 -17.333 38.333 -26 63 -26
c24 0 44.667 9 62 27c10 9.33301 18.333 34.666 25 75.999h190c-14.667 -82 -41.334 -142.667 -80.001 -182c-54 -54.667 -119.667 -82 -197 -82c-78 0 -144 27.333 -198 82c-42 42 -68.667 102.667 -80 182h189z" />
    <glyph glyph-name="obreve" unicode="&#x14f;" horiz-adv-x="1318" 
d="M659 1113c157.333 0 291.5 -55.667 402.5 -167s166.5 -245.666 166.5 -402.999s-55.5 -291.666 -166.5 -402.999s-245.167 -167 -402.5 -167c-156.667 0 -290.667 55.667 -402 167s-167 245.666 -167 402.999s55.667 291.666 167 402.999s245.333 167 402 167zM406.5 795
c-69.667 -70 -104.5 -154 -104.5 -252c0 -98.667 34.833 -182.667 104.5 -252s153.834 -104 252.501 -104s182.834 34.667 252.501 104s104.5 153.333 104.5 252c0 98 -34.833 182 -104.5 252s-153.834 105 -252.501 105s-182.834 -35 -252.501 -105zM571 1413
c7.33301 -41.333 16.001 -66.999 26.001 -76.999c17.333 -17.333 38.333 -26 63 -26c24 0 44.667 9 62 27c10 9.33301 18.333 34.666 25 75.999h190c-14.667 -82 -41.334 -142.667 -80.001 -182c-54 -54.667 -119.667 -82 -197 -82c-78 0 -144 27.333 -198 82
c-42 42 -68.667 102.667 -80 182h189z" />
    <glyph glyph-name="Ohungarumlaut" unicode="&#x150;" horiz-adv-x="1889" 
d="M1523 1381c160 -160 240 -353 240 -579s-80 -419 -240 -579s-353 -240 -579 -240s-419 80 -579 240s-240 353 -240 579s80 419 240 579s353 240 579 240s419 -80 579 -240zM944 1412c-168.667 0 -312.5 -59.5 -431.5 -178.5s-178.5 -262.833 -178.5 -431.5
s59.667 -312.667 179 -432s263 -179 431 -179c168.667 0 312.5 59.667 431.5 179s178.5 263.333 178.5 432s-59.5 312.5 -178.5 431.5s-262.833 178.5 -431.5 178.5zM967 2003l-221 -271h-185l91 271h315zM1328 2003l-221 -271h-185l91 271h315z" />
    <glyph glyph-name="ohungarumlaut" unicode="&#x151;" horiz-adv-x="1318" 
d="M659 1113c157.333 0 291.5 -55.667 402.5 -167s166.5 -245.666 166.5 -402.999s-55.5 -291.666 -166.5 -402.999s-245.167 -167 -402.5 -167c-156.667 0 -290.667 55.667 -402 167s-167 245.666 -167 402.999s55.667 291.666 167 402.999s245.333 167 402 167zM406.5 795
c-69.667 -70 -104.5 -154 -104.5 -252c0 -98.667 34.833 -182.667 104.5 -252s153.834 -104 252.501 -104s182.834 34.667 252.501 104s104.5 153.333 104.5 252c0 98 -34.833 182 -104.5 252s-153.834 105 -252.501 105s-182.834 -35 -252.501 -105zM682 1432l-221 -271
h-185l91 271h315zM1043 1432l-221 -271h-185l91 271h315z" />
    <glyph glyph-name="OE" unicode="&#x152;" horiz-adv-x="2258" 
d="M1488 1393c150 -158 228.999 -321 236.999 -489h407v-207h-408c-8.66699 -167.333 -88 -330.333 -238 -489h646v-208h-979c-74.667 -11.333 -156 -17 -244 -17c-226 0 -419 80 -579 240s-240 353 -240 579s80 419 240 579s353 240 579 240
c88.667 0 170.334 -7 245.001 -21h978v-207h-644zM1518 839c-7.33301 152 -66.333 283.668 -177 395.001c-43.333 43.333 -90 78.666 -140 105.999c-24.667 13.333 -49.667 25 -75 35c-66.667 24.667 -139 37 -217 37c-168.667 0 -312.5 -59.5 -431.5 -178.5
s-178.5 -262.833 -178.5 -431.5s59.667 -312.667 179 -432s263 -179 431 -179c78 0 150.333 12.333 217 37c25.333 10 50.333 22 75 36c49.333 26.667 96 62 140 106c109.333 110 168.333 240.667 177 392c0.666992 12.667 1 26 1 40c0 12.667 -0.333008 25 -1 37z" />
    <glyph glyph-name="oe" unicode="&#x153;" horiz-adv-x="2184" 
d="M1227 582c0.666992 -12.667 0.999023 -25.667 0.999023 -39c0 -16 -0.666992 -32 -2 -48c3.33301 -54 12 -90.333 26 -109l486 487c-23.333 18 -75.666 27 -156.999 27c-98 0 -181.667 -34.667 -251 -104c-60.667 -60.667 -95 -132 -103 -214zM1014 498
c-1.33301 14.667 -2 29.667 -2 45c0 14.667 0.666992 29.334 2 44.001c-9.33301 79.333 -43.333 148.666 -102 207.999c-70 70 -154.333 105 -253 105s-182.834 -35 -252.501 -105s-104.5 -154 -104.5 -252c0 -98.667 34.833 -182.667 104.5 -252s153.834 -104 252.501 -104
s183 34.667 253 104c58.667 58.667 92.667 127.667 102 207zM1120 208c-17.333 -23.333 -36.667 -45.998 -58 -67.998c-111.333 -111.333 -245.666 -167 -402.999 -167c-156.667 0 -290.667 55.667 -402 167s-167 245.666 -167 402.999s55.667 291.666 167 402.999
s245.333 167 402 167c157.333 0 291.666 -55.667 402.999 -167c21.333 -22 40.666 -44.667 57.999 -68c17.333 23.333 37 46 59 68c111.333 111.333 245.333 167 402 167c134.667 0 252.667 -40.667 354 -122c16.667 -14 33 -29 49 -45
c6.66699 -6.66699 25.667 -27.667 57 -63l-104 -105l-545 -545c34.667 -30.667 97.667 -46 189 -46c98.667 0 183 34.667 253 104c8.66699 9.33301 26.334 30 53.001 62l207 -74c-50.667 -70 -87.334 -116.333 -110.001 -139c-111.333 -111.333 -245.666 -167 -402.999 -167
c-156.667 0 -290.667 55.667 -402 167c-22 22 -41.667 44.667 -59 68z" />
    <glyph glyph-name="Racute" unicode="&#x154;" horiz-adv-x="1171" 
d="M357 1392v-672h189c92 0 170.833 32.833 236.5 98.5s98.5 145.167 98.5 238.5c0 92.667 -32.833 171.667 -98.5 237s-144.5 98 -236.5 98h-189zM546 512h-189.001v-512h-207v1600h454c128.667 -17.333 237.334 -70.333 326.001 -159c106 -106.667 159 -234.667 159 -384
c0 -150.667 -53 -279.334 -159 -386.001c-73.333 -73.333 -129.333 -114.666 -168 -123.999l355 -547h-251zM693.999 1978h252l-272 -279h-197z" />
    <glyph glyph-name="racute" unicode="&#x155;" horiz-adv-x="693" 
d="M357 890c77.333 104.667 172.333 159.667 285 165v-215c-75.333 -4 -135.333 -28.333 -180 -73c-67.333 -66.667 -102.333 -146 -105 -238v-529h-207v1029h207v-139zM457 1407h252l-272 -279h-197z" />
    <glyph glyph-name="Rcommaaccent" unicode="&#x156;" horiz-adv-x="1171" 
d="M357 1392v-672h189c92 0 170.833 32.833 236.5 98.5s98.5 145.167 98.5 238.5c0 92.667 -32.833 171.667 -98.5 237s-144.5 98 -236.5 98h-189zM546 512h-189.001v-512h-207v1600h454c128.667 -17.333 237.334 -70.333 326.001 -159c106 -106.667 159 -234.667 159 -384
c0 -150.667 -53 -279.334 -159 -386.001c-73.333 -73.333 -129.333 -114.666 -168 -123.999l355 -547h-251zM752.999 -133c2.66699 -9.33301 5.00098 -18.3359 7.00098 -27.0029s3 -17.334 3 -26.001c0 -28.667 -10.333 -55.667 -31 -81
c-32.667 -39.333 -80.667 -63.666 -144 -72.999c-12.667 -2 -27.334 -3 -44.001 -3c-38.667 0 -88.334 5 -149.001 15l35 126c38 -17.333 69 -26 93 -26c4 0 7.66699 0.333008 11 1c20.667 2.66699 34 14.334 40 35.001c2 4.66699 3 9.66699 3 15
c0 2.66699 -0.333008 5.33398 -1 8.00098c-4 18.667 -34.667 37.334 -92 56.001l48 130c126.667 -39.333 200.334 -89.333 221.001 -150z" />
    <glyph glyph-name="rcommaaccent" unicode="&#x157;" horiz-adv-x="693" 
d="M358 890c77.333 104.667 172.333 159.667 285 165v-215c-75.333 -4 -135.333 -28.333 -180 -73c-67.333 -66.667 -102.333 -146 -105 -238v-529h-207v1029h207v-139zM603 -133c2.66699 -9.33301 5.00098 -18.3359 7.00098 -27.0029s3 -17.334 3 -26.001
c0 -28.667 -10.333 -55.667 -31 -81c-32.667 -39.333 -80.667 -63.666 -144 -72.999c-12.667 -2 -27.334 -3 -44.001 -3c-38.667 0 -88.334 5 -149.001 15l35 126c38 -17.333 69 -26 93 -26c4 0 7.66699 0.333008 11 1c20.667 2.66699 34 14.334 40 35.001
c2 4.66699 3 9.66699 3 15c0 2.66699 -0.333008 5.33398 -1 8.00098c-4 18.667 -34.667 37.334 -92 56.001l48 130c126.667 -39.333 200.334 -89.333 221.001 -150z" />
    <glyph glyph-name="Rcaron" unicode="&#x158;" horiz-adv-x="1171" 
d="M357 1392v-672h189c92 0 170.833 32.833 236.5 98.5s98.5 145.167 98.5 238.5c0 92.667 -32.833 171.667 -98.5 237s-144.5 98 -236.5 98h-189zM546 512h-189.001v-512h-207v1600h454c128.667 -17.333 237.334 -70.333 326.001 -159c106 -106.667 159 -234.667 159 -384
c0 -150.667 -53 -279.334 -159 -386.001c-73.333 -73.333 -129.333 -114.666 -168 -123.999l355 -547h-251zM943.999 1987l-241 -238h-147l-233 238h219l89 -82l92 82h221z" />
    <glyph glyph-name="rcaron" unicode="&#x159;" horiz-adv-x="693" 
d="M358 890c77.333 104.667 172.333 159.667 285 165v-215c-75.333 -4 -135.333 -28.333 -180 -73c-67.333 -66.667 -102.333 -146 -105 -238v-529h-207v1029h207v-139zM707 1416l-241 -238h-147l-233 238h219l89 -82l92 82h221z" />
    <glyph glyph-name="Sacute" unicode="&#x15a;" horiz-adv-x="1101" 
d="M557 821c-113.333 38 -205.165 92.168 -275.498 162.501s-105.5 157.5 -105.5 261.5c0 102 36.5 189.667 109.5 263s161.5 110 265.5 110c102.667 0 190.667 -36.333 264 -109c41.333 -40 76 -103.667 104 -191l-188 -74c-22.667 61.333 -43.334 101.333 -62.001 120
c-32.667 32 -72 48 -118 48c-46.667 0 -86.334 -16.167 -119.001 -48.5s-49 -71.833 -49 -118.5s16.333 -86.334 49 -119.001c36.667 -36 87.334 -69 152.001 -99c125.333 -40.667 231.666 -104.667 318.999 -192c98 -96.667 147 -214 147 -352
s-48.833 -255.833 -146.5 -353.5s-215.167 -146.5 -352.5 -146.5c-138 0 -255.667 49 -353 147c-78 78 -127.333 185.667 -148 323l201 73c12.667 -118 43.667 -201.667 93 -251c57.333 -57.333 126.333 -86 207 -86s149.667 28.667 207 86s86 126.666 86 207.999
c0 80.667 -28.667 149.667 -86 207c-54.667 54.667 -121.667 98.334 -201 131.001zM611.001 1978h252l-272 -279h-197z" />
    <glyph glyph-name="sacute" unicode="&#x15b;" horiz-adv-x="882" 
d="M358 221c24.667 -24 54.002 -36.0029 88.002 -36.0029s63.167 12 87.5 36s36.5 53.667 36.5 89c0 34 -12 63 -36 87c-16.667 16.667 -52.334 42.334 -107.001 77.001c-74.667 40.667 -127.667 76.667 -159 108c-54.667 54.667 -82 120.334 -82 197.001
c0 77.333 27.333 143.5 82 198.5s120.667 82.5 198 82.5s141.666 -26 192.999 -78c36.667 -36.667 60 -77.667 70 -123l-201 -58c-4.66699 16.667 -9.33398 27.667 -14.001 33c-12 12 -28 18 -48 18s-37.167 -7.16699 -51.5 -21.5s-21.5 -31.5 -21.5 -51.5s7 -37 21 -51
c12.667 -12 41.334 -32.333 86.001 -61c82.667 -45.333 142.667 -86.666 180 -123.999c64.667 -65.333 97 -143 97 -233c0 -92 -32.167 -170.5 -96.5 -235.5s-142.5 -97.5 -234.5 -97.5c-91.333 0 -169.333 32.667 -234 98c-44.667 44.667 -74 100.334 -88 167.001l206 44
c6 -30.667 15.333 -52.334 28 -65.001zM511.002 1407h252l-272 -279h-197z" />
    <glyph glyph-name="Scircumflex" unicode="&#x15c;" horiz-adv-x="1101" 
d="M557 821c-113.333 38 -205.165 92.168 -275.498 162.501s-105.5 157.5 -105.5 261.5c0 102 36.5 189.667 109.5 263s161.5 110 265.5 110c102.667 0 190.667 -36.333 264 -109c41.333 -40 76 -103.667 104 -191l-188 -74c-22.667 61.333 -43.334 101.333 -62.001 120
c-32.667 32 -72 48 -118 48c-46.667 0 -86.334 -16.167 -119.001 -48.5s-49 -71.833 -49 -118.5s16.333 -86.334 49 -119.001c36.667 -36 87.334 -69 152.001 -99c125.333 -40.667 231.666 -104.667 318.999 -192c98 -96.667 147 -214 147 -352
s-48.833 -255.833 -146.5 -353.5s-215.167 -146.5 -352.5 -146.5c-138 0 -255.667 49 -353 147c-78 78 -127.333 185.667 -148 323l201 73c12.667 -118 43.667 -201.667 93 -251c57.333 -57.333 126.333 -86 207 -86s149.667 28.667 207 86s86 126.666 86 207.999
c0 80.667 -28.667 149.667 -86 207c-54.667 54.667 -121.667 98.334 -201 131.001zM640.001 1749l-92 82l-89 -82h-219l233 238h147l241 -238h-221z" />
    <glyph glyph-name="scircumflex" unicode="&#x15d;" horiz-adv-x="882" 
d="M358 221c24.667 -24 54.002 -36.0029 88.002 -36.0029s63.167 12 87.5 36s36.5 53.667 36.5 89c0 34 -12 63 -36 87c-16.667 16.667 -52.334 42.334 -107.001 77.001c-74.667 40.667 -127.667 76.667 -159 108c-54.667 54.667 -82 120.334 -82 197.001
c0 77.333 27.333 143.5 82 198.5s120.667 82.5 198 82.5s141.666 -26 192.999 -78c36.667 -36.667 60 -77.667 70 -123l-201 -58c-4.66699 16.667 -9.33398 27.667 -14.001 33c-12 12 -28 18 -48 18s-37.167 -7.16699 -51.5 -21.5s-21.5 -31.5 -21.5 -51.5s7 -37 21 -51
c12.667 -12 41.334 -32.333 86.001 -61c82.667 -45.333 142.667 -86.666 180 -123.999c64.667 -65.333 97 -143 97 -233c0 -92 -32.167 -170.5 -96.5 -235.5s-142.5 -97.5 -234.5 -97.5c-91.333 0 -169.333 32.667 -234 98c-44.667 44.667 -74 100.334 -88 167.001l206 44
c6 -30.667 15.333 -52.334 28 -65.001zM540.002 1178l-92 82l-89 -82h-219l233 238h147l241 -238h-221z" />
    <glyph glyph-name="Scedilla" unicode="&#x15e;" horiz-adv-x="1101" 
d="M492 -14c-112.667 12.667 -210.664 60.665 -293.997 143.998c-78 78 -127.333 185.667 -148 323l201 73c12.667 -118 43.667 -201.667 93 -251c57.333 -57.333 126.333 -86 207 -86s149.667 28.667 207 86s86 126.666 86 207.999c0 80.667 -28.667 149.667 -86 207
c-54.667 54.667 -121.667 98.334 -201 131.001c-113.333 38 -205.166 92.167 -275.499 162.5s-105.5 157.5 -105.5 261.5c0 102 36.5 189.667 109.5 263s161.5 110 265.5 110c102.667 0 190.667 -36.333 264 -109c41.333 -40 76 -103.667 104 -191l-188 -74
c-22.667 61.333 -43.334 101.333 -62.001 120c-32.667 32 -72 48 -118 48c-46.667 0 -86.334 -16.167 -119.001 -48.5s-49 -71.833 -49 -118.5s16.333 -86.334 49 -119.001c36.667 -36 87.334 -69 152.001 -99c125.333 -40.667 231.666 -104.667 318.999 -192
c98 -96.667 147 -214 147 -352s-48.667 -255.667 -146 -353c-76 -76 -163.333 -122.333 -262 -139l-13 -35c49.333 -25.333 81 -55 95 -89c2.66699 -9.33301 5 -18.333 7 -27s3 -17.334 3 -26.001c0 -28.667 -10.333 -55.667 -31 -81
c-32.667 -39.333 -80.667 -63.666 -144 -72.999c-12.667 -2 -27.334 -3 -44.001 -3c-38.667 0 -88.334 5 -149.001 15l35 126c38 -17.333 69 -26 93 -26c4 0 7.66699 0.333008 11 1c20.667 2.66699 34 14.334 40 35.001c2 4.66699 3 9.66699 3 15
c0 2.66699 -0.333008 5.33398 -1 8.00098c-4 18.667 -34.667 37.334 -92 56.001z" />
    <glyph glyph-name="scedilla" unicode="&#x15f;" horiz-adv-x="882" 
d="M391 -19c-68 10.667 -127.663 41.9941 -178.996 93.9941c-44.667 44.667 -74 100.334 -88 167.001l206 44c6 -30.667 15.333 -52.334 28 -65.001c24.667 -24 54 -36 88 -36s63.167 12 87.5 36s36.5 53.667 36.5 89c0 34 -12 63 -36 87
c-16.667 16.667 -52.334 42.334 -107.001 77.001c-74.667 40.667 -127.667 76.667 -159 108c-54.667 54.667 -82 120.334 -82 197.001c0 77.333 27.333 143.5 82 198.5s120.667 82.5 198 82.5s141.666 -26 192.999 -78c36.667 -36.667 60 -77.667 70 -123l-201 -58
c-4.66699 16.667 -9.33398 27.667 -14.001 33c-12 12 -28 18 -48 18s-37.167 -7.16699 -51.5 -21.5s-21.5 -31.5 -21.5 -51.5s7 -37 21 -51c12.667 -12 41.334 -32.333 86.001 -61c82.667 -45.333 142.667 -86.666 180 -123.999c64.667 -65.333 97 -143 97 -233
c0 -92 -32 -170.333 -96 -235c-40.667 -41.333 -86.667 -69.333 -138 -84l-13 -35c49.333 -25.333 81 -55 95 -89c2.66699 -9.33301 5 -18.333 7 -27s3 -17.334 3 -26.001c0 -28.667 -10.333 -55.667 -31 -81c-32.667 -39.333 -80.667 -63.666 -144 -72.999
c-12.667 -2 -27.334 -3 -44.001 -3c-38.667 0 -88.334 5 -149.001 15l35 126c38 -17.333 69 -26 93 -26c4 0 7.66699 0.333008 11 1c20.667 2.66699 34 14.334 40 35.001c2 4.66699 3 9.66699 3 15c0 2.66699 -0.333008 5.33398 -1 8.00098
c-4 18.667 -34.667 37.334 -92 56.001z" />
    <glyph glyph-name="Scaron" unicode="&#x160;" horiz-adv-x="1101" 
d="M557 821c-113.333 38 -205.165 92.168 -275.498 162.501s-105.5 157.5 -105.5 261.5c0 102 36.5 189.667 109.5 263s161.5 110 265.5 110c102.667 0 190.667 -36.333 264 -109c41.333 -40 76 -103.667 104 -191l-188 -74c-22.667 61.333 -43.334 101.333 -62.001 120
c-32.667 32 -72 48 -118 48c-46.667 0 -86.334 -16.167 -119.001 -48.5s-49 -71.833 -49 -118.5s16.333 -86.334 49 -119.001c36.667 -36 87.334 -69 152.001 -99c125.333 -40.667 231.666 -104.667 318.999 -192c98 -96.667 147 -214 147 -352
s-48.833 -255.833 -146.5 -353.5s-215.167 -146.5 -352.5 -146.5c-138 0 -255.667 49 -353 147c-78 78 -127.333 185.667 -148 323l201 73c12.667 -118 43.667 -201.667 93 -251c57.333 -57.333 126.333 -86 207 -86s149.667 28.667 207 86s86 126.666 86 207.999
c0 80.667 -28.667 149.667 -86 207c-54.667 54.667 -121.667 98.334 -201 131.001zM861.001 1987l-241 -238h-147l-233 238h219l89 -82l92 82h221z" />
    <glyph glyph-name="scaron" unicode="&#x161;" horiz-adv-x="882" 
d="M358 221c24.667 -24 54.002 -36.0029 88.002 -36.0029s63.167 12 87.5 36s36.5 53.667 36.5 89c0 34 -12 63 -36 87c-16.667 16.667 -52.334 42.334 -107.001 77.001c-74.667 40.667 -127.667 76.667 -159 108c-54.667 54.667 -82 120.334 -82 197.001
c0 77.333 27.333 143.5 82 198.5s120.667 82.5 198 82.5s141.666 -26 192.999 -78c36.667 -36.667 60 -77.667 70 -123l-201 -58c-4.66699 16.667 -9.33398 27.667 -14.001 33c-12 12 -28 18 -48 18s-37.167 -7.16699 -51.5 -21.5s-21.5 -31.5 -21.5 -51.5s7 -37 21 -51
c12.667 -12 41.334 -32.333 86.001 -61c82.667 -45.333 142.667 -86.666 180 -123.999c64.667 -65.333 97 -143 97 -233c0 -92 -32.167 -170.5 -96.5 -235.5s-142.5 -97.5 -234.5 -97.5c-91.333 0 -169.333 32.667 -234 98c-44.667 44.667 -74 100.334 -88 167.001l206 44
c6 -30.667 15.333 -52.334 28 -65.001zM761.002 1416l-241 -238h-147l-233 238h219l89 -82l92 82h221z" />
    <glyph glyph-name="Tcommaaccent" unicode="&#x162;" horiz-adv-x="1054" 
d="M474 0l-50.998 -0.00292969v1393h-373v207h954v-207h-373v-1393h-8l-17 -44c49.333 -25.333 81 -55 95 -89c2.66699 -9.33301 5 -18.333 7 -27s3 -17.334 3 -26.001c0 -28.667 -10.333 -55.667 -31 -81c-32.667 -39.333 -80.667 -63.666 -144 -72.999
c-12.667 -2 -27.334 -3 -44.001 -3c-38.667 0 -88.334 5 -149.001 15l35 126c38 -17.333 69 -26 93 -26c4 0 7.66699 0.333008 11 1c20.667 2.66699 34 14.334 40 35.001c2 4.66699 3 9.66699 3 15c0 2.66699 -0.333008 5.33398 -1 8.00098
c-4 18.667 -34.667 37.334 -92 56.001z" />
    <glyph glyph-name="tcommaaccent" unicode="&#x163;" horiz-adv-x="758" 
d="M326 0l-50.998 -0.00292969v822h-185v207h185v386h207v-386h185v-207h-185v-822h-7l-17 -44c49.333 -25.333 81 -55 95 -89c2.66699 -9.33301 5 -18.333 7 -27s3 -17.334 3 -26.001c0 -28.667 -10.333 -55.667 -31 -81c-32.667 -39.333 -80.667 -63.666 -144 -72.999
c-12.667 -2 -27.334 -3 -44.001 -3c-38.667 0 -88.334 5 -149.001 15l35 126c38 -17.333 69 -26 93 -26c4 0 7.66699 0.333008 11 1c20.667 2.66699 34 14.334 40 35.001c2 4.66699 3 9.66699 3 15c0 2.66699 -0.333008 5.33398 -1 8.00098
c-4 18.667 -34.667 37.334 -92 56.001z" />
    <glyph glyph-name="Tcaron" unicode="&#x164;" horiz-adv-x="1054" 
d="M631 1393v-1393h-208v1393h-373v207h954v-207h-373zM838 1987l-241 -238h-147l-233 238h219l89 -82l92 82h221z" />
    <glyph glyph-name="tcaron" unicode="&#x165;" horiz-adv-x="758" 
d="M275 1029v386h207v-386h185v-207h-185v-822h-207v822h-185v207h185zM611 1363c-28 28 -42 62.333 -42 103c0 40 14.167 74 42.5 102s62.5 42 102.5 42c39.333 0 73.333 -14 102 -42s43 -62 43 -102c0 -21.333 -4 -42 -12 -62l-108 -219h-189z" />
    <glyph glyph-name="Tbar" unicode="&#x166;" horiz-adv-x="1054" 
d="M423 903v490h-373v207h954v-207h-373v-490h218v-206h-218v-697h-208v697h-218v206h218z" />
    <glyph glyph-name="tbar" unicode="&#x167;" horiz-adv-x="637" 
d="M215 669v153h-185v207h185v386h207v-386h185v-207h-185v-153h185v-206h-185v-463h-207v463h-185v206h185z" />
    <glyph glyph-name="Utilde" unicode="&#x168;" horiz-adv-x="1388" 
d="M1030 1600l208 0.000976562v-1127c-18 -128.667 -71 -237.334 -159 -326.001c-106.667 -106.667 -235 -160 -385 -160s-278.167 53.167 -384.5 159.5s-159.5 234.5 -159.5 384.5v1069h208v-1069c0 -92 32.833 -170.833 98.5 -236.5s144.834 -98.5 237.501 -98.5
c93.333 0 172.666 32.667 237.999 98s98 144.333 98 237v1069zM807 1888l0.00195312 -1c20 0 30 13 30 39c0 17.333 -4.33301 40.333 -13 69h186c-25.333 -146.667 -74.333 -230.667 -147 -252c-18.667 -5.33301 -37.334 -8 -56.001 -8c-49.333 0 -93.833 19 -133.5 57
s-68.834 57 -87.501 57h-4c-20 -1.33301 -30 -14.333 -30 -39c0 -16.667 4.66699 -38.667 14 -66h-187c26 146.667 75.667 230.667 149 252c18.667 5.33301 37.334 8 56.001 8c48.667 0 93.667 -19.333 135 -58s70.666 -58 87.999 -58z" />
    <glyph glyph-name="utilde" unicode="&#x169;" horiz-adv-x="1162" 
d="M586 -14c-130 0 -234.667 39.667 -314 119s-120 178.666 -122 297.999v626h208v-618c0 -59.333 21.667 -110.333 65 -153s97.333 -64 162 -64c59.333 0 110.833 21.167 154.5 63.5s65.5 93.5 65.5 153.5v618h207v-626c-2 -119.333 -42.333 -218.666 -121 -297.999
c-79.333 -79.333 -181 -119 -305 -119zM694 1317l0.00195312 -1c20 0 30 13 30 39c0 17.333 -4.33301 40.333 -13 69h186c-25.333 -146.667 -74.333 -230.667 -147 -252c-18.667 -5.33301 -37.334 -8 -56.001 -8c-49.333 0 -93.833 19 -133.5 57s-68.834 57 -87.501 57h-4
c-20 -1.33301 -30 -14.333 -30 -39c0 -16.667 4.66699 -38.667 14 -66h-187c26 146.667 75.667 230.667 149 252c18.667 5.33301 37.334 8 56.001 8c48.667 0 93.667 -19.333 135 -58s70.666 -58 87.999 -58z" />
    <glyph glyph-name="Umacron" unicode="&#x16a;" horiz-adv-x="1388" 
d="M1030 1600l208 0.000976562v-1127c-18 -128.667 -71 -237.334 -159 -326.001c-106.667 -106.667 -235 -160 -385 -160s-278.167 53.167 -384.5 159.5s-159.5 234.5 -159.5 384.5v1069h208v-1069c0 -92 32.833 -170.833 98.5 -236.5s144.834 -98.5 237.501 -98.5
c93.333 0 172.666 32.667 237.999 98s98 144.333 98 237v1069zM411 2008h567v-207h-567v207z" />
    <glyph glyph-name="umacron" unicode="&#x16b;" horiz-adv-x="1162" 
d="M586 -14c-130 0 -234.667 39.667 -314 119s-120 178.666 -122 297.999v626h208v-618c0 -59.333 21.667 -110.333 65 -153s97.333 -64 162 -64c59.333 0 110.833 21.167 154.5 63.5s65.5 93.5 65.5 153.5v618h207v-626c-2 -119.333 -42.333 -218.666 -121 -297.999
c-79.333 -79.333 -181 -119 -305 -119zM298 1437h567v-207h-567v207z" />
    <glyph glyph-name="Ubreve" unicode="&#x16c;" horiz-adv-x="1388" 
d="M1030 1600l208 0.000976562v-1127c-18 -128.667 -71 -237.334 -159 -326.001c-106.667 -106.667 -235 -160 -385 -160s-278.167 53.167 -384.5 159.5s-159.5 234.5 -159.5 384.5v1069h208v-1069c0 -92 32.833 -170.833 98.5 -236.5s144.834 -98.5 237.501 -98.5
c93.333 0 172.666 32.667 237.999 98s98 144.333 98 237v1069zM606 1984c7.33301 -41.333 16.001 -66.999 26.001 -76.999c17.333 -17.333 38.333 -26 63 -26c24 0 44.667 9 62 27c10 9.33301 18.333 34.666 25 75.999h190c-14.667 -82 -41.334 -142.667 -80.001 -182
c-54 -54.667 -119.667 -82 -197 -82c-78 0 -144 27.333 -198 82c-42 42 -68.667 102.667 -80 182h189z" />
    <glyph glyph-name="ubreve" unicode="&#x16d;" horiz-adv-x="1162" 
d="M586 -14c-130 0 -234.667 39.667 -314 119s-120 178.666 -122 297.999v626h208v-618c0 -59.333 21.667 -110.333 65 -153s97.333 -64 162 -64c59.333 0 110.833 21.167 154.5 63.5s65.5 93.5 65.5 153.5v618h207v-626c-2 -119.333 -42.333 -218.666 -121 -297.999
c-79.333 -79.333 -181 -119 -305 -119zM493 1413c7.33301 -41.333 16.001 -66.999 26.001 -76.999c17.333 -17.333 38.333 -26 63 -26c24 0 44.667 9 62 27c10 9.33301 18.333 34.666 25 75.999h190c-14.667 -82 -41.334 -142.667 -80.001 -182
c-54 -54.667 -119.667 -82 -197 -82c-78 0 -144 27.333 -198 82c-42 42 -68.667 102.667 -80 182h189z" />
    <glyph glyph-name="Uring" unicode="&#x16e;" horiz-adv-x="1388" 
d="M1030 1600l208 0.000976562v-1127c-18 -128.667 -71 -237.334 -159 -326.001c-106.667 -106.667 -235 -160 -385 -160s-278.167 53.167 -384.5 159.5s-159.5 234.5 -159.5 384.5v1069h208v-1069c0 -92 32.833 -170.833 98.5 -236.5s144.834 -98.5 237.501 -98.5
c93.333 0 172.666 32.667 237.999 98s98 144.333 98 237v1069zM814 1907c33.333 -33.333 50 -73.666 50 -120.999c0 -46.667 -16.667 -86.667 -50 -120s-73.333 -50 -120 -50c-47.333 0 -87.666 16.667 -120.999 50s-50 73.333 -50 120c0 47.333 16.667 87.666 50 120.999
s73.666 50 120.999 50c46.667 0 86.667 -16.667 120 -50zM696 1730c14.667 0 27.334 5.16699 38.001 15.5s16 23.166 16 38.499c0 18.667 -5.33301 33.167 -16 43.5s-23.334 15.5 -38.001 15.5c-18.667 0 -33.167 -5.16699 -43.5 -15.5s-15.5 -24.833 -15.5 -43.5
c0 -15.333 5.16699 -28.166 15.5 -38.499s24.833 -15.5 43.5 -15.5z" />
    <glyph glyph-name="uring" unicode="&#x16f;" horiz-adv-x="1162" 
d="M586 -14c-130 0 -234.667 39.667 -314 119s-120 178.666 -122 297.999v626h208v-618c0 -59.333 21.667 -110.333 65 -153s97.333 -64 162 -64c59.333 0 110.833 21.167 154.5 63.5s65.5 93.5 65.5 153.5v618h207v-626c-2 -119.333 -42.333 -218.666 -121 -297.999
c-79.333 -79.333 -181 -119 -305 -119zM701 1336c33.333 -33.333 50 -73.666 50 -120.999c0 -46.667 -16.667 -86.667 -50 -120s-73.333 -50 -120 -50c-47.333 0 -87.666 16.667 -120.999 50s-50 73.333 -50 120c0 47.333 16.667 87.666 50 120.999s73.666 50 120.999 50
c46.667 0 86.667 -16.667 120 -50zM583 1159c14.667 0 27.334 5.16699 38.001 15.5s16 23.166 16 38.499c0 18.667 -5.33301 33.167 -16 43.5s-23.334 15.5 -38.001 15.5c-18.667 0 -33.167 -5.16699 -43.5 -15.5s-15.5 -24.833 -15.5 -43.5
c0 -15.333 5.16699 -28.166 15.5 -38.499s24.833 -15.5 43.5 -15.5z" />
    <glyph glyph-name="Uhungarumlaut" unicode="&#x170;" horiz-adv-x="1388" 
d="M1030 1600l208 0.000976562v-1127c-18 -128.667 -71 -237.334 -159 -326.001c-106.667 -106.667 -235 -160 -385 -160s-278.167 53.167 -384.5 159.5s-159.5 234.5 -159.5 384.5v1069h208v-1069c0 -92 32.833 -170.833 98.5 -236.5s144.834 -98.5 237.501 -98.5
c93.333 0 172.666 32.667 237.999 98s98 144.333 98 237v1069zM717 2003l-221 -271h-185l91 271h315zM1078 2003l-221 -271h-185l91 271h315z" />
    <glyph glyph-name="uhungarumlaut" unicode="&#x171;" horiz-adv-x="1162" 
d="M586 -14c-130 0 -234.667 39.667 -314 119s-120 178.666 -122 297.999v626h208v-618c0 -59.333 21.667 -110.333 65 -153s97.333 -64 162 -64c59.333 0 110.833 21.167 154.5 63.5s65.5 93.5 65.5 153.5v618h207v-626c-2 -119.333 -42.333 -218.666 -121 -297.999
c-79.333 -79.333 -181 -119 -305 -119zM604 1432l-221 -271h-185l91 271h315zM965 1432l-221 -271h-185l91 271h315z" />
    <glyph glyph-name="Uogonek" unicode="&#x172;" horiz-adv-x="1388" 
d="M668 -12c-138.667 5.33301 -258.001 58.333 -358.001 159c-106.667 106 -160 234 -160 384v1069h208v-1069c0 -92 32.833 -170.833 98.5 -236.5s144.834 -98.5 237.501 -98.5c93.333 0 172.666 32.667 237.999 98s98 144.333 98 237v1069h208v-1127
c-18 -128.667 -71 -237.334 -159 -326.001c-63.333 -63.333 -134 -107.666 -212 -132.999c-44.667 -57.333 -67 -104 -67 -140c0 -10.667 2 -20.334 6 -29.001c10 -24.667 25.333 -37 46 -37c24.667 0 56.667 17 96 51l58 -153c-81.333 -33.333 -143 -50 -185 -50
c-63.333 0 -114.666 22 -153.999 66c-32 36 -48 79.333 -48 130c0 11.333 0.666992 23 2 35c5.33301 34.667 21 68.334 47 101.001z" />
    <glyph glyph-name="uogonek" unicode="&#x173;" horiz-adv-x="1162" 
d="M608 -14l-22.002 0.00195312c-130 0 -234.667 39.667 -314 119s-120 178.666 -122 297.999v626h208v-618c0 -59.333 21.667 -110.333 65 -153s97.333 -64 162 -64c59.333 0 110.833 21.167 154.5 63.5s65.5 93.5 65.5 153.5v618h207v-626
c-2 -119.333 -42.333 -218.666 -121 -297.999c-8 -8 -16.667 -16 -26 -24c-79.333 -84.667 -119 -151.334 -119 -200.001c0 -10.667 2 -20.334 6 -29.001c10 -24.667 25.333 -37 46 -37c24.667 0 56.667 17 96 51l58 -153c-81.333 -33.333 -143 -50 -185 -50
c-63.333 0 -114.666 22 -153.999 66c-32 36 -48 79.333 -48 130c0 11.333 0.666992 23 2 35c4.66699 32 18.334 62.667 41.001 92z" />
    <glyph glyph-name="Wcircumflex" unicode="&#x174;" horiz-adv-x="1686" 
d="M739 299l0.00292969 1301h207v-1301c6.66699 -11.333 18 -25.333 34 -42c43.333 -41.333 94.666 -62 153.999 -62s110.666 21.167 153.999 63.5s65 93.166 65 152.499v1189h208v-1197c-2.66699 -112.667 -44.334 -209.334 -125.001 -290.001
c-83.333 -84 -184 -126 -302 -126c-117.333 0 -214.333 41.333 -291 124c-77.333 -82.667 -174.666 -124 -291.999 -124c-118 0 -218.333 42 -301 126c-81.333 80 -123 176.667 -125 290v1197h207v-1189c0 -59.333 21.667 -110.166 65 -152.499s94.666 -63.5 153.999 -63.5
c60 0 111.333 20.667 154 62c16.667 16.667 28 30.667 34 42zM933.003 1749l-92 82l-89 -82h-219l233 238h147l241 -238h-221z" />
    <glyph glyph-name="wcircumflex" unicode="&#x175;" horiz-adv-x="1418" 
d="M604 305l-0.00195312 724h207v-707c0 -36.667 12.333 -67.167 37 -91.5s54 -36.5 88 -36.5c82 0 123 51 123 153v682h208v-721c-3.33301 -88 -35.666 -162.667 -96.999 -224c-64.667 -65.333 -142.667 -98 -234 -98c-92 0 -167.667 32 -227 96
c-60.667 -64 -136.667 -96 -228 -96c-92 0 -170.333 32.667 -235 98c-61.333 61.333 -93.333 136 -96 224v721h207v-682c0 -102 41.333 -153 124 -153c34 0 63.333 12 88 36c20.667 20.667 32.334 45.667 35.001 75zM797.998 1178l-92 82l-89 -82h-219l233 238h147l241 -238
h-221z" />
    <glyph glyph-name="Ycircumflex" unicode="&#x176;" horiz-adv-x="1414" 
d="M603 642l-553 958h238l418 -724l419 724h239l-554 -958v-642h-207v642zM797 1749l-92 82l-89 -82h-219l233 238h147l241 -238h-221z" />
    <glyph glyph-name="ycircumflex" unicode="&#x177;" horiz-adv-x="1139" 
d="M403 -346h-219l274 575l-383 800h233l261 -563l261 563h232zM658 1178l-92 82l-89 -82h-219l233 238h147l241 -238h-221z" />
    <glyph glyph-name="Ydieresis" unicode="&#x178;" horiz-adv-x="1414" 
d="M603 642l-553 958h238l418 -724l419 724h239l-554 -958v-642h-207v642zM621 1967c28.667 -28 43 -62 43 -102c0 -40.667 -14.333 -75 -43 -103s-62.667 -42 -102 -42c-40 0 -74.167 14 -102.5 42s-42.5 62.333 -42.5 103c0 40 14.167 74 42.5 102s62.5 42 102.5 42
c39.333 0 73.333 -14 102 -42zM997 1967c28.667 -28 43 -62 43 -102c0 -40.667 -14.333 -75 -43 -103s-62.667 -42 -102 -42c-40 0 -74.167 14 -102.5 42s-42.5 62.333 -42.5 103c0 40 14.167 74 42.5 102s62.5 42 102.5 42c39.333 0 73.333 -14 102 -42z" />
    <glyph glyph-name="Zacute" unicode="&#x179;" horiz-adv-x="1463" 
d="M954 1393h-758v207h1116l-805 -1392h760v-208h-1117zM792 1978h252l-272 -279h-197z" />
    <glyph glyph-name="zacute" unicode="&#x17a;" horiz-adv-x="1125" 
d="M618 822h-423v207h780l-469 -821h459v-208h-815zM623 1407h252l-272 -279h-197z" />
    <glyph glyph-name="Zdotaccent" unicode="&#x17b;" horiz-adv-x="1463" 
d="M954 1393h-758v207h1116l-805 -1392h760v-208h-1117zM825 1969c26 -25.333 39 -56.666 39 -93.999s-13 -68.666 -39 -93.999s-57 -38 -93 -38c-36.667 0 -68 12.667 -94 38s-39 56.666 -39 93.999s13 68.666 39 93.999s57.333 38 94 38c36 0 67 -12.667 93 -38z" />
    <glyph glyph-name="zdotaccent" unicode="&#x17c;" horiz-adv-x="1125" 
d="M618 822h-423v207h780l-469 -821h459v-208h-815zM656 1398c26 -25.333 39 -56.666 39 -93.999s-13 -68.666 -39 -93.999s-57 -38 -93 -38c-36.667 0 -68 12.667 -94 38s-39 56.666 -39 93.999s13 68.666 39 93.999s57.333 38 94 38c36 0 67 -12.667 93 -38z" />
    <glyph glyph-name="Zcaron" unicode="&#x17d;" horiz-adv-x="1463" 
d="M954 1393h-758v207h1116l-805 -1392h760v-208h-1117zM1042 1987l-241 -238h-147l-233 238h219l89 -82l92 82h221z" />
    <glyph glyph-name="zcaron" unicode="&#x17e;" horiz-adv-x="1125" 
d="M618 822h-423v207h780l-469 -821h459v-208h-815zM873 1416l-241 -238h-147l-233 238h219l89 -82l92 82h221z" />
    <glyph glyph-name="longs" unicode="&#x17f;" horiz-adv-x="543" 
d="M332 0h-207.999v1215c5.33301 84.667 37.666 157.667 96.999 219c63.333 58.667 136 88 218 88c41.333 0 104.333 -14.667 189 -44l-69 -196c-58.667 25.333 -96 38 -112 38c-27.333 0 -54 -11.667 -80 -35c-22 -22 -33.667 -48.333 -35 -79v-1206z" />
    <glyph glyph-name="florin" unicode="&#x192;" horiz-adv-x="541" 
d="M330 0h-1v-12c-8 -215.333 -138.333 -323 -391 -323v202c118.667 0 180.334 40.667 185.001 122v832h-92v208h92v186c4.66699 84.667 37 157.667 97 219c63.333 58.667 135.666 88 216.999 88c42 0 105 -14.667 189 -44l-69 -196c-58.667 25.333 -95.667 38 -111 38
c-27.333 0 -54.333 -11.667 -81 -35c-22 -22 -33.667 -48.333 -35 -79v-177h185v-208h-185v-821z" />
    <glyph glyph-name="Aringacute" unicode="&#x1fa;" horiz-adv-x="1346" 
d="M819 783l-145 382l-146 -382h291zM676 1522c10 0 19.333 4.33301 28 13s13 18 13 28c0 16.667 -4.33301 29.334 -13 38.001s-18 13 -28 13c-16.667 0 -29.334 -4.33301 -38.001 -13s-13 -21.334 -13 -38.001c0 -10 4.33301 -19.333 13 -28s21.334 -13 38.001 -13z
M610 1734l104 146h359l-277 -188c34 -35.333 51 -77 51 -125s-16.667 -94 -50 -138l545 -1429h-220l-226 576h-446l-230 -576h-221l551 1428c-36 44.667 -54 91 -54 139c0 48.667 17.333 90 52 124c24 24.667 44.667 39 62 43z" />
    <glyph glyph-name="aringacute" unicode="&#x1fb;" horiz-adv-x="1401" 
d="M1042 466v151.998c-12 64.667 -44 123.334 -96 176.001c-70 69.333 -154 104 -252 104c-98.667 0 -182.834 -34.667 -252.501 -104s-104.5 -153.333 -104.5 -252c0 -98 34.833 -181.833 104.5 -251.5s153.834 -104.5 252.501 -104.5c98 0 182 34.667 252 104
c52 52.667 84 111.334 96 176.001zM690 1159c14.667 0 27.334 5.16699 38.001 15.5s16 23.166 16 38.499c0 18.667 -5.33301 33.167 -16 43.5s-23.334 15.5 -38.001 15.5c-18.667 0 -33.167 -5.16699 -43.5 -15.5s-15.5 -24.833 -15.5 -43.5
c0 -15.333 5.16699 -28.166 15.5 -38.499s24.833 -15.5 43.5 -15.5zM810 1097c85.333 -22 162.666 -68.666 231.999 -139.999v72h208v-1030h-208v129c-100 -103.333 -216 -155 -348 -155c-157.333 0 -291.5 55.5 -402.5 166.5s-166.5 245.167 -166.5 402.5
s55.667 291.666 167 402.999c78.667 78.667 169.667 129.334 273 152.001c-32 33.333 -48 72.666 -48 117.999c0 47.333 16.667 87.666 50 120.999c18.667 18.667 39.334 32 62.001 40h-73l217 279h252l-272 -279h-6c22 -8 42.333 -21.333 61 -40
c33.333 -33.333 50 -73.666 50 -120.999c0 -46 -16 -85.333 -48 -118z" />
    <glyph glyph-name="AEacute" unicode="&#x1fc;" horiz-adv-x="1715" 
d="M1591 1600v-207h-655v-489h655v-207h-655v-489h655v-208h-862v566h-194l-242 -566h-253l689 1548v52h862zM729 1028l-110 -255h110v255zM876 1978h252l-272 -279h-197z" />
    <glyph glyph-name="aeacute" unicode="&#x1fd;" horiz-adv-x="2142" 
d="M972 714c-16 28.667 -36.667 55.667 -62 81c-69.333 69.333 -153.333 104 -252 104c-98 0 -181.833 -34.667 -251.5 -104s-104.5 -153.333 -104.5 -252s34.833 -182.667 104.5 -252s153.5 -104 251.5 -104c98.667 0 182.667 35 252 105c26 25.333 46.667 52 62 80
c18 31.333 30 63 36 95v152c-6 32 -18 63.667 -36 95zM1804 736l-58.999 59c-69.333 69.333 -153.333 104 -252 104s-182.667 -34.667 -252 -104c-14.667 -14.667 -23.334 -24 -26.001 -28v-31h589zM1008 992v38h207c37.333 54.667 130 82 278 82
c157.333 0 291.666 -55.667 402.999 -167c98.667 -99.333 150.667 -238.333 156 -417l-837 1v-210c2.66699 -4 11 -13 25 -27c70 -70 154.333 -105 253 -105s182.667 35 252 105c12.667 12.667 33.667 37 63 73l202 -71c-39.333 -65.333 -77.333 -116.333 -114 -153
c-111.333 -110.667 -245.666 -166 -402.999 -166c-148 0 -240.667 17.333 -278 52v-27h-207v95c-100 -80 -216.667 -120 -350 -120c-156.667 0 -290.5 55.5 -401.5 166.5s-166.5 244.833 -166.5 401.5c0 157.333 55.5 291.5 166.5 402.5s244.833 166.5 401.5 166.5
c133.333 0 250 -40 350 -120zM1132 1407h252l-272 -279h-197z" />
    <glyph glyph-name="Oslashacute" unicode="&#x1fe;" horiz-adv-x="1889" 
d="M1106 1396c-27.333 10.667 -81.333 16 -162 16c-168.667 0 -312.5 -59.5 -431.5 -178.5s-178.5 -262.833 -178.5 -431.5s59.667 -312.667 179 -432c43.333 -43.333 70.333 -68 81 -74zM781 208c28 -11.333 82.332 -17 162.999 -17c168.667 0 312.5 59.667 431.5 179
s178.5 263.333 178.5 432s-59.333 312.667 -178 432c-43.333 43.333 -70.666 68 -81.999 74zM1383 1498c34 -18.667 81 -57.333 141 -116c159.333 -160.667 239 -354 239 -580s-80 -419 -240 -579s-353 -240 -579 -240c-109.333 0 -193 11.667 -251 35l-80 -173l-189 88
l81 173c-34 18.667 -80.667 57.667 -140 117c-160 160 -240 353 -240 579s80 419 240 579s353 240 579 240c109.333 0 193 -11.667 251 -35l81 173l188 -88zM1005 1978h252l-272 -279h-197z" />
    <glyph glyph-name="oslashacute" unicode="&#x1ff;" horiz-adv-x="1317" 
d="M744 898c-3.33301 1.33301 -32 2.00098 -86 2.00098c-98 0 -181.833 -34.833 -251.5 -104.5s-104.5 -153.5 -104.5 -251.5c0 -98.667 31 -182.334 93 -251.001zM573 190.001c3.33301 -1.33301 31.666 -2 84.999 -2c98.667 0 182.834 34.667 252.501 104
s104.5 153.333 104.5 252c0 98 -35 182 -105 252zM294 105.001l-37 37c-111.333 111.333 -167 245.333 -167 402c0 157.333 55.5 291.5 166.5 402.5s244.833 166.5 401.5 166.5c89.333 0 154 -9.66699 194 -29l113 197l184 -95l-125 -202l37 -38
c110.667 -110.667 166 -244.667 166 -402c0 -156.667 -55.5 -290.667 -166.5 -402s-245.167 -167 -402.5 -167c-88.667 0 -152.667 9.66699 -192 29l-114 -196l-185 89zM719 1407h252l-272 -279h-197z" />
    <glyph glyph-name="circumflex" unicode="&#x2c6;" horiz-adv-x="1066" 
d="M621 1178l-92 82l-89 -82h-219l233 238h147l241 -238h-221z" />
    <glyph glyph-name="caron" unicode="&#x2c7;" horiz-adv-x="1066" 
d="M842 1416l-241 -238h-147l-233 238h219l89 -82l92 82h221z" />
    <glyph glyph-name="uni02C9" unicode="&#x2c9;" horiz-adv-x="717" 
d="M75 1437h567v-207h-567v207z" />
    <glyph glyph-name="breve" unicode="&#x2d8;" horiz-adv-x="978" 
d="M399 1413c7.33301 -41.333 16.001 -66.999 26.001 -76.999c17.333 -17.333 38.333 -26 63 -26c24 0 44.667 9 62 27c10 9.33301 18.333 34.666 25 75.999h190c-14.667 -82 -41.334 -142.667 -80.001 -182c-54 -54.667 -119.667 -82 -197 -82c-78 0 -144 27.333 -198 82
c-42 42 -68.667 102.667 -80 182h189z" />
    <glyph glyph-name="dotaccent" unicode="&#x2d9;" horiz-adv-x="516" 
d="M351 1398c26 -25.333 39 -56.666 39 -93.999s-13 -68.666 -39 -93.999s-57 -38 -93 -38c-36.667 0 -68 12.667 -94 38s-39 56.666 -39 93.999s13 68.666 39 93.999s57.333 38 94 38c36 0 67 -12.667 93 -38z" />
    <glyph glyph-name="ring" unicode="&#x2da;" horiz-adv-x="869" 
d="M556 1336c33.333 -33.333 50 -73.666 50 -120.999c0 -46.667 -16.667 -86.667 -50 -120s-73.333 -50 -120 -50c-47.333 0 -87.666 16.667 -120.999 50s-50 73.333 -50 120c0 47.333 16.667 87.666 50 120.999s73.666 50 120.999 50c46.667 0 86.667 -16.667 120 -50z
M438 1159c14.667 0 27.334 5.16699 38.001 15.5s16 23.166 16 38.499c0 18.667 -5.33301 33.167 -16 43.5s-23.334 15.5 -38.001 15.5c-18.667 0 -33.167 -5.16699 -43.5 -15.5s-15.5 -24.833 -15.5 -43.5c0 -15.333 5.16699 -28.166 15.5 -38.499s24.833 -15.5 43.5 -15.5z
" />
    <glyph glyph-name="ogonek" unicode="&#x2db;" horiz-adv-x="437" 
d="M347 104c-94 -96 -141.001 -170.332 -141.001 -222.999c0 -10.667 2 -20.334 6 -29.001c10 -24.667 25.333 -37 46 -37c24.667 0 56.667 17 96 51l58 -153c-81.333 -33.333 -143 -50 -185 -50c-63.333 0 -114.666 22 -153.999 66c-32 36 -48 79.333 -48 130
c0 11.333 0.666992 23 2 35c12.667 86 91 165 235 237z" />
    <glyph glyph-name="tilde" unicode="&#x2dc;" horiz-adv-x="931" 
d="M578 1317l0.00195312 -1c20 0 30 13 30 39c0 17.333 -4.33301 40.333 -13 69h186c-25.333 -146.667 -74.333 -230.667 -147 -252c-18.667 -5.33301 -37.334 -8 -56.001 -8c-49.333 0 -93.833 19 -133.5 57s-68.834 57 -87.501 57h-4c-20 -1.33301 -30 -14.333 -30 -39
c0 -16.667 4.66699 -38.667 14 -66h-187c26 146.667 75.667 230.667 149 252c18.667 5.33301 37.334 8 56.001 8c48.667 0 93.667 -19.333 135 -58s70.666 -58 87.999 -58z" />
    <glyph glyph-name="hungarumlaut" unicode="&#x2dd;" horiz-adv-x="817" 
d="M431 1432l-221 -271h-185l91 271h315zM792 1432l-221 -271h-185l91 271h315z" />
    <glyph glyph-name="tonos" unicode="&#x384;" horiz-adv-x="669" 
d="M317 1407h252l-272 -279h-197z" />
    <glyph glyph-name="dieresistonos" unicode="&#x385;" horiz-adv-x="887" 
d="M805 1406.5c24 -23 36 -50.833 36 -83.5c0 -34 -12 -62.667 -36 -86s-52 -35 -84 -35c-32.667 0 -61 11.667 -85 35s-36 52 -36 86c0 32.667 12 60.5 36 83.5s52.333 34.5 85 34.5c32 0 60 -11.5 84 -34.5zM278.5 1406.5c23.667 -23 35.5 -50.833 35.5 -83.5
c0 -34 -11.833 -62.667 -35.5 -86s-51.5 -35 -83.5 -35c-33.333 0 -61.833 11.667 -85.5 35s-35.5 52 -35.5 86c0 32.667 11.833 60.5 35.5 83.5s52.167 34.5 85.5 34.5c32 0 59.833 -11.5 83.5 -34.5zM447 1516h203l-176 -338h-159z" />
    <glyph glyph-name="Alphatonos" unicode="&#x386;" horiz-adv-x="1376" 
d="M377 1407h252l-272 -279h-197zM925 773l-137 375l-136 -375h273zM844 1600l582 -1600h-220l-206 566h-424l-205 -566h-221l582 1600h112z" />
    <glyph glyph-name="anoteleia" unicode="&#x387;" horiz-adv-x="389" 
d="M288 1131.5c26 -25.667 39 -56.834 39 -93.501c0 -37.333 -13 -68.666 -39 -93.999s-57 -38 -93 -38s-67.167 12.667 -93.5 38s-39.5 56.666 -39.5 93.999c0 36.667 13.167 67.834 39.5 93.501s57.5 38.5 93.5 38.5s67 -12.833 93 -38.5z" />
    <glyph glyph-name="Epsilontonos" unicode="&#x388;" horiz-adv-x="1556" 
d="M317 1407h252l-272 -279h-197zM1816 1600v-207h-655v-489h655v-207h-655v-489h655v-208h-862v1600h862z" />
    <glyph glyph-name="Etatonos" unicode="&#x389;" horiz-adv-x="1627" 
d="M317 1407h252l-272 -279h-197zM1161 662v-662h-207v1600h207v-731h494v731h207v-1600h-207v662h-494z" />
    <glyph glyph-name="Iotatonos" unicode="&#x38a;" horiz-adv-x="1150" 
d="M317 1407h252l-272 -279h-197zM1012 1600v-1600h-208v1600h208z" />
    <glyph glyph-name="Omicrontonos" unicode="&#x38c;" horiz-adv-x="2333" 
d="M317 1407h252l-272 -279h-197zM1858 1381c160 -160 240 -353 240 -579s-80 -419 -240 -579s-353 -240 -579 -240s-419 80 -579 240s-240 353 -240 579s80 419 240 579s353 240 579 240s419 -80 579 -240zM1279 1412c-168.667 0 -312.5 -59.5 -431.5 -178.5
s-178.5 -262.833 -178.5 -431.5s59.667 -312.667 179 -432s263 -179 431 -179c168.667 0 312.5 59.667 431.5 179s178.5 263.333 178.5 432s-59.5 312.5 -178.5 431.5s-262.833 178.5 -431.5 178.5z" />
    <glyph glyph-name="Upsilontonos" unicode="&#x38e;" horiz-adv-x="1933" 
d="M317 1407h252l-272 -279h-197zM1407 642l-553 958h238l418 -724l419 724h239l-554 -958v-642h-207v642z" />
    <glyph glyph-name="Omegatonos" unicode="&#x38f;" horiz-adv-x="1910" 
d="M267 1407h252l-272 -279h-197zM663 207c-34 21.333 -75.332 55 -123.999 101c-136 126.667 -204 283.334 -204 470.001c0 247.333 64.333 446.166 193 596.499s299.667 225.5 513 225.5h15c212.667 0 383.5 -75.167 512.5 -225.5s193.5 -349.166 193.5 -596.499
c0 -186.667 -68 -343.334 -204 -470.001c-49.333 -46 -91 -79.667 -125 -101h235v-207h-518v194c86.667 35.333 175.667 101.5 267 198.5s137 225.5 137 385.5c0 194.667 -45.833 348 -137.5 460s-213.834 168 -366.501 168h-4c-152.667 0 -274.834 -56 -366.501 -168
s-137.5 -265.333 -137.5 -460c0 -160 45.833 -288.5 137.5 -385.5s180.834 -163.167 267.501 -198.5v-194h-519v207h235z" />
    <glyph glyph-name="iotadieresistonos" unicode="&#x390;" horiz-adv-x="535" 
d="M371 1030v-1030h-207v1030h207zM615 1406.5c24 -23 36 -50.833 36 -83.5c0 -34 -12 -62.667 -36 -86s-52 -35 -84 -35c-32.667 0 -61 11.667 -85 35s-36 52 -36 86c0 32.667 12 60.5 36 83.5s52.333 34.5 85 34.5c32 0 60 -11.5 84 -34.5zM88.5 1406.5
c23.667 -23 35.5 -50.833 35.5 -83.5c0 -34 -11.833 -62.667 -35.5 -86s-51.5 -35 -83.5 -35c-33.333 0 -61.833 11.667 -85.5 35s-35.5 52 -35.5 86c0 32.667 11.833 60.5 35.5 83.5s52.167 34.5 85.5 34.5c32 0 59.833 -11.5 83.5 -34.5zM257 1516h203l-176 -338h-159z
" />
    <glyph glyph-name="Alpha" unicode="&#x391;" horiz-adv-x="1376" 
d="M825 773l-137 375l-136 -375h273zM744 1600l582 -1600h-220l-206 566h-424l-205 -566h-221l582 1600h112z" />
    <glyph glyph-name="Beta" unicode="&#x392;" horiz-adv-x="1126" 
d="M474 1600c92.667 0 172.001 -32.832 238.001 -98.499s99 -144.834 99 -237.501c0 -95.333 -48 -154.333 -144 -177c69.333 -10 148.166 -59.333 236.499 -148s132.5 -211.334 132.5 -368.001s-55 -292 -165 -406c-103.333 -107.333 -207 -161.666 -311 -162.999v-2h-410
v1600h324zM357.001 927.001v-719h203v3c42.667 2.66699 95.667 37 159 103c70 72 105 157.667 105 257c0 98 -34.833 181.833 -104.5 251.5s-153.5 104.5 -251.5 104.5h-111zM357.001 1393v-253h135c30.667 2.66699 57 14.334 79 35.001c24 22 36 51.667 36 89
s-12.5 68.166 -37.5 92.499s-56.833 36.5 -95.5 36.5h-117z" />
    <glyph glyph-name="Gamma" unicode="&#x393;" horiz-adv-x="922" 
d="M897 1600v-208h-562v-1392h-208v1600h770z" />
    <glyph glyph-name="uni0394" unicode="&#x394;" horiz-adv-x="1326" 
d="M55 1h-89l583 1599h188l589 -1600h-1271v1zM1029 208l-386 1045l-382 -1045h768z" />
    <glyph glyph-name="Epsilon" unicode="&#x395;" horiz-adv-x="1137" 
d="M1012 1600v-207h-655v-489h655v-207h-655v-489h655v-208h-862v1600h862z" />
    <glyph glyph-name="Zeta" unicode="&#x396;" horiz-adv-x="1463" 
d="M954 1393h-758v207h1116l-805 -1392h760v-208h-1117z" />
    <glyph glyph-name="Eta" unicode="&#x397;" horiz-adv-x="1208" 
d="M357 662v-662h-207v1600h207v-731h494v731h207v-1600h-207v662h-494z" />
    <glyph glyph-name="Theta" unicode="&#x398;" horiz-adv-x="1778" 
d="M1468 1381c160 -160 240 -353 240 -579c0 -226.667 -80 -420 -240 -580s-353 -240 -579 -240s-419 80 -579 240s-240 353.333 -240 580c0 226 80 419 240 579s353 240 579 240s419 -80 579 -240zM889 1412c-168 0 -311.667 -59.667 -431 -179s-179 -263 -179 -431
c0 -168.667 59.667 -312.667 179 -432s263 -179 431 -179s311.667 59.667 431 179s179 263.333 179 432c0 168 -59.667 311.667 -179 431s-263 179 -431 179zM410 906h959v-208h-959v208z" />
    <glyph glyph-name="Iota" unicode="&#x399;" horiz-adv-x="484" 
d="M346 1600v-1600h-208v1600h208z" />
    <glyph glyph-name="Kappa" unicode="&#x39a;" horiz-adv-x="1206" 
d="M357 755v-755h-207v1600h207v-504l378 504h262l-491 -658l611 -942h-251l-495 772z" />
    <glyph glyph-name="Lambda" unicode="&#x39b;" horiz-adv-x="1360" 
d="M771 1600l589 -1600h-220l-463 1253l-457 -1252h-220l583 1599h188z" />
    <glyph glyph-name="Mu" unicode="&#x39c;" horiz-adv-x="1812" 
d="M388 1600l519 -897l517 897h189v-1600h-207v1156l-499 -864l-501 864v-1156h-207v1600h189z" />
    <glyph glyph-name="Nu" unicode="&#x39d;" horiz-adv-x="1357" 
d="M150 1600h189l660 -1142v1142h208v-1600h-181l-669 1156v-1156h-207v1600z" />
    <glyph glyph-name="Xi" unicode="&#x39e;" horiz-adv-x="1282" 
d="M160 906h959v-208h-959v208zM57 1600h1168v-208h-1168v208zM57 208h1168v-208h-1168v208z" />
    <glyph glyph-name="Omicron" unicode="&#x39f;" horiz-adv-x="1889" 
d="M1523 1381c160 -160 240 -353 240 -579s-80 -419 -240 -579s-353 -240 -579 -240s-419 80 -579 240s-240 353 -240 579s80 419 240 579s353 240 579 240s419 -80 579 -240zM944 1412c-168.667 0 -312.5 -59.5 -431.5 -178.5s-178.5 -262.833 -178.5 -431.5
s59.667 -312.667 179 -432s263 -179 431 -179c168.667 0 312.5 59.667 431.5 179s178.5 263.333 178.5 432s-59.5 312.5 -178.5 431.5s-262.833 178.5 -431.5 178.5z" />
    <glyph glyph-name="Pi" unicode="&#x3a0;" horiz-adv-x="1260" 
d="M314 1392v-1392h-208v1600h1047v-1600h-208v1392h-631z" />
    <glyph glyph-name="Rho" unicode="&#x3a1;" horiz-adv-x="1145" 
d="M357 512l-0.000976562 -512h-207v1600h454c128.667 -17.333 237.334 -70.333 326.001 -159c106 -106.667 159 -234.667 159 -384c0 -150.667 -53 -279.167 -159 -385.5s-234 -159.5 -384 -159.5h-189zM356.999 1392v-672h189c92 0 170.833 32.833 236.5 98.5
s98.5 145.167 98.5 238.5c0 92.667 -32.833 171.667 -98.5 237s-144.5 98 -236.5 98h-189z" />
    <glyph glyph-name="Sigma" unicode="&#x3a3;" horiz-adv-x="1236" 
d="M27 1600h1182v-208h-898l488 -593l-488 -591h898v-208h-1182v206l502 593l-502 595v206z" />
    <glyph glyph-name="Tau" unicode="&#x3a4;" horiz-adv-x="1054" 
d="M631 1393v-1393h-208v1393h-373v207h954v-207h-373z" />
    <glyph glyph-name="Upsilon" unicode="&#x3a5;" horiz-adv-x="1414" 
d="M603 642l-553 958h238l418 -724l419 724h239l-554 -958v-642h-207v642z" />
    <glyph glyph-name="Phi" unicode="&#x3a6;" horiz-adv-x="1784" 
d="M787 434v706.998c-133.333 -3.33301 -249 -39.333 -347 -108c-98.667 -70 -148 -152 -148 -246c0 -93.333 49.333 -174.666 148 -243.999c98 -69.333 213.667 -105.666 347 -108.999zM995 221.998v-222h-208v222c-185.333 4.66699 -345.666 57.667 -480.999 159
c-151.333 110.667 -227 246.667 -227 408c0 160.667 75.667 296.334 227 407.001c135.333 100 295.666 152.333 480.999 157v247h208v-247c186 -4.66699 347.333 -57 484 -157c150.667 -110.667 226 -246.334 226 -407.001c0 -161.333 -75.333 -297.333 -226 -408
c-136 -101.333 -297.333 -154.333 -484 -159zM995 1141v-706.998c134 3.33301 250.333 39.666 349 108.999s148 150.666 148 243.999c0 94 -49.333 176 -148 246c-98 68.667 -214.333 104.667 -349 108z" />
    <glyph glyph-name="Chi" unicode="&#x3a7;" horiz-adv-x="1347" 
d="M50 0l503 873l-419 727h238l300 -521l302 521h238l-421 -727l505 -873h-238l-386 667l-384 -667h-238z" />
    <glyph glyph-name="Psi" unicode="&#x3a8;" horiz-adv-x="1824" 
d="M1013 326v-325.999h-208v326c-185.333 5.33301 -346 58.666 -482 159.999c-143.333 110.667 -217 247 -221 409v705h208v-708c0 -94 49.333 -175.667 148 -245c98 -69.333 213.667 -105.666 347 -108.999v1062h208v-1062c134 3.33301 250.333 39.666 349 108.999
s148 173 148 311h5v642h207v-709c-0.666992 -160 -75.667 -295.333 -225 -406c-136.667 -100.667 -298 -153.667 -484 -159z" />
    <glyph glyph-name="uni03A9" unicode="&#x3a9;" horiz-adv-x="1723" 
d="M476 207c-34 21.333 -75.332 55 -123.999 101c-136 126.667 -204 283.334 -204 470.001c0 247.333 64.333 446.166 193 596.499s299.667 225.5 513 225.5h15c212.667 0 383.5 -75.167 512.5 -225.5s193.5 -349.166 193.5 -596.499c0 -186.667 -68 -343.334 -204 -470.001
c-48.667 -46 -90 -79.667 -124 -101h234v-207h-518v194c86.667 35.333 175.667 101.5 267 198.5s137 225.5 137 385.5c0 194.667 -45.833 348 -137.5 460s-213.834 168 -366.501 168h-4c-152.667 0 -274.834 -56 -366.501 -168s-137.5 -265.333 -137.5 -460
c0 -160 45.833 -288.5 137.5 -385.5s180.834 -163.167 267.501 -198.5v-194h-519v207h235z" />
    <glyph glyph-name="Iotadieresis" unicode="&#x3aa;" horiz-adv-x="484" 
d="M346 1600v-1600h-208v1600h208zM156 1967c28.667 -28 43 -62 43 -102c0 -40.667 -14.333 -75 -43 -103s-62.667 -42 -102 -42c-40 0 -74.167 14 -102.5 42s-42.5 62.333 -42.5 103c0 40 14.167 74 42.5 102s62.5 42 102.5 42c39.333 0 73.333 -14 102 -42zM532 1967
c28.667 -28 43 -62 43 -102c0 -40.667 -14.333 -75 -43 -103s-62.667 -42 -102 -42c-40 0 -74.167 14 -102.5 42s-42.5 62.333 -42.5 103c0 40 14.167 74 42.5 102s62.5 42 102.5 42c39.333 0 73.333 -14 102 -42z" />
    <glyph glyph-name="Upsilondieresis" unicode="&#x3ab;" horiz-adv-x="1414" 
d="M603 642l-553 958h238l418 -724l419 724h239l-554 -958v-642h-207v642zM621 1967c28.667 -28 43 -62 43 -102c0 -40.667 -14.333 -75 -43 -103s-62.667 -42 -102 -42c-40 0 -74.167 14 -102.5 42s-42.5 62.333 -42.5 103c0 40 14.167 74 42.5 102s62.5 42 102.5 42
c39.333 0 73.333 -14 102 -42zM997 1967c28.667 -28 43 -62 43 -102c0 -40.667 -14.333 -75 -43 -103s-62.667 -42 -102 -42c-40 0 -74.167 14 -102.5 42s-42.5 62.333 -42.5 103c0 40 14.167 74 42.5 102s62.5 42 102.5 42c39.333 0 73.333 -14 102 -42z" />
    <glyph glyph-name="alphatonos" unicode="&#x3ac;" horiz-adv-x="1364" 
d="M911 795c-69.333 70 -153.333 104.999 -252 104.999c-98 0 -181.833 -35 -251.5 -105s-104.5 -154.333 -104.5 -253c0 -98 34.833 -181.667 104.5 -251s153.5 -104 251.5 -104c98.667 0 183 34.667 253 104c50.667 50.667 76.667 127 78 229
c0 128.667 -26.333 220.334 -79 275.001zM1066 940.999l46 88h206l-138 -514l138 -515h-206l-50 144v-2c-110.667 -112 -245 -168 -403 -168c-156 0 -289.667 55.667 -401 167s-167 245 -167 401c0 158 55.667 292.5 167 403.5s245 166.5 401 166.5
c158 0 292.333 -55.667 403 -167zM765 1407h252l-272 -279h-197z" />
    <glyph glyph-name="epsilontonos" unicode="&#x3ad;" horiz-adv-x="930" 
d="M488 833c-64 0 -110.832 -7.33105 -140.499 -21.998s-44.5 -32.334 -44.5 -53.001c0 -45.333 14.167 -78 42.5 -98s47.5 -31.333 57.5 -34h282v-206h-284c-10 -2 -28.833 -13 -56.5 -33s-41.5 -49.333 -41.5 -88c0 -24.667 15.667 -48.5 47 -71.5
s76.666 -34.5 135.999 -34.5c68.667 2.66699 129.667 25 183 67l155 -118c-106 -107.333 -218 -161 -336 -161c-105.333 0 -196 28.667 -272 86s-114 138.666 -114 243.999c0 106 30 177.333 90 214c-60 36 -90 110.667 -90 224c0 108 38.667 184.333 116 229
s167.333 67 270 67c114.667 0 226.667 -50.667 336 -152l-163 -106c-50 30.667 -107.667 46 -173 46zM524.001 1407h252l-272 -279h-197z" />
    <glyph glyph-name="etatonos" unicode="&#x3ae;" horiz-adv-x="1016" 
d="M310 753l-0.00195312 -753h-208v1030h208v-130c50 122.667 142 184 276 184s225.5 -39.5 274.5 -118.5s74.5 -177.833 76.5 -296.5v-1014h-207v1005c0 60 -21.667 111.167 -65 153.5s-94.666 63.5 -153.999 63.5s-110.666 -21 -153.999 -63
c-24 -24 -39.667 -44.333 -47 -61zM579.998 1407h252l-272 -279h-197z" />
    <glyph glyph-name="iotatonos" unicode="&#x3af;" horiz-adv-x="535" 
d="M371 1030v-1030h-207v1030h207zM328 1407h252l-272 -279h-197z" />
    <glyph glyph-name="upsilondieresistonos" unicode="&#x3b0;" horiz-adv-x="1161" 
d="M586 -13c-130.667 0 -235.5 39.501 -314.5 118.501s-119.5 178.167 -121.5 297.5v626h207v-618c0 -59.333 21.667 -110 65 -152c44 -42.667 98.333 -64 163 -64c59.333 0 110.666 21.167 153.999 63.5s65 93.166 65 152.499v618h207v-626
c-2 -119.333 -42.333 -218.333 -121 -297c-79.333 -79.333 -180.666 -119 -303.999 -119zM928 1406.5c24 -23 36 -50.833 36 -83.5c0 -34 -12 -62.667 -36 -86s-52 -35 -84 -35c-32.667 0 -61 11.667 -85 35s-36 52 -36 86c0 32.667 12 60.5 36 83.5s52.333 34.5 85 34.5
c32 0 60 -11.5 84 -34.5zM401.5 1406.5c23.667 -23 35.5 -50.833 35.5 -83.5c0 -34 -11.833 -62.667 -35.5 -86s-51.5 -35 -83.5 -35c-33.333 0 -61.833 11.667 -85.5 35s-35.5 52 -35.5 86c0 32.667 11.833 60.5 35.5 83.5s52.167 34.5 85.5 34.5
c32 0 59.833 -11.5 83.5 -34.5zM570 1516h203l-176 -338h-159z" />
    <glyph glyph-name="alpha" unicode="&#x3b1;" horiz-adv-x="1364" 
d="M911 795c-69.333 70 -153.333 104.999 -252 104.999c-98 0 -181.833 -35 -251.5 -105s-104.5 -154.333 -104.5 -253c0 -98 34.833 -181.667 104.5 -251s153.5 -104 251.5 -104c98.667 0 183 34.667 253 104c50.667 50.667 76.667 127 78 229
c0 128.667 -26.333 220.334 -79 275.001zM1066 940.999l46 88h206l-138 -514l138 -515h-206l-50 144v-2c-110.667 -112 -245 -168 -403 -168c-156 0 -289.667 55.667 -401 167s-167 245 -167 401c0 158 55.667 292.5 167 403.5s245 166.5 401 166.5
c158 0 292.333 -55.667 403 -167z" />
    <glyph glyph-name="beta" unicode="&#x3b2;" horiz-adv-x="1091" 
d="M344 1031c88 1.33301 146.333 7.66699 175 19s60 35 94 71s51 77 51 123c0 46.667 -16 85.834 -48 117.501s-70.667 47.5 -116 47.5c-44 0 -81 -16.833 -111 -50.5s-45 -81.834 -45 -144.501v-183zM344 827.001l-0.00195312 -1169h-208v1567
c0 115.333 34.333 210 103 284s155.667 111 261 111c104.667 0 193.667 -37 267 -111s110 -162.333 110 -265c0 -123.333 -78.667 -224.666 -236 -303.999c93.333 -1.33301 173 -34 239 -98c95.333 -102 143 -221.667 143 -359c0 -139.333 -49 -258 -147 -356
s-216.333 -147 -355 -147c-45.333 0 -82 8.33301 -110 25l90 188c6.66699 -0.666992 13.334 -1 20.001 -1c80.667 0 149.334 28.333 206.001 85s85 125.334 85 206.001c0 81.333 -28.5 153 -85.5 215s-144.167 104 -261.5 126z" />
    <glyph glyph-name="gamma" unicode="&#x3b3;" horiz-adv-x="1127" 
d="M456 50l-411 979h232l284 -677l289 677h232l-414 -974v-399h-212v394z" />
    <glyph glyph-name="delta" unicode="&#x3b4;" horiz-adv-x="1299" 
d="M293 542c0 -98 34.833 -181.667 104.5 -251s153.5 -104 251.5 -104c98.667 0 182.667 34.667 252 104s104 153 104 251c0 98.667 -34.667 183 -104 253s-153.333 105 -252 105c-98 0 -181.833 -35 -251.5 -105s-104.5 -154.333 -104.5 -253zM1078.5 918
c92.333 -92.667 138.5 -218 138.5 -376c0 -156 -55.167 -289.667 -165.5 -401s-244.5 -167 -402.5 -167c-156 0 -289.667 55.667 -401 167s-167 245 -167 401c0 158 55.667 292.333 167 403c97.333 97.333 195 151.333 293 162l-404 493h851v-208h-400
c119.333 -167.333 207.833 -265 265.5 -293s132.667 -88.333 225 -181z" />
    <glyph glyph-name="epsilon" unicode="&#x3b5;" horiz-adv-x="930" 
d="M488 833c-64 0 -110.832 -7.33105 -140.499 -21.998s-44.5 -32.334 -44.5 -53.001c0 -45.333 14.167 -78 42.5 -98s47.5 -31.333 57.5 -34h282v-206h-284c-10 -2 -28.833 -13 -56.5 -33s-41.5 -49.333 -41.5 -88c0 -24.667 15.667 -48.5 47 -71.5
s76.666 -34.5 135.999 -34.5c68.667 2.66699 129.667 25 183 67l155 -118c-106 -107.333 -218 -161 -336 -161c-105.333 0 -196 28.667 -272 86s-114 138.666 -114 243.999c0 106 30 177.333 90 214c-60 36 -90 110.667 -90 224c0 108 38.667 184.333 116 229
s167.333 67 270 67c114.667 0 226.667 -50.667 336 -152l-163 -106c-50 30.667 -107.667 46 -173 46z" />
    <glyph glyph-name="zeta" unicode="&#x3b6;" horiz-adv-x="956" 
d="M978 1485c-381.333 -383.333 -597.334 -701.999 -648.001 -955.999c-7.33301 -38 -11 -73 -11 -105c0 -150 98.333 -228.333 295 -235c212 -6.66699 318 -95.667 318 -267c-27.333 -148 -131.333 -225 -312 -231v213c68 0 102.667 12.333 104 37v3
c0 24 -35.333 36 -106 36c-336.667 7.33301 -505 150.666 -505 429.999c0 31.333 2.66699 64.333 8 99c40.667 312 206.334 606.333 497.001 883h-466v208h826v-115z" />
    <glyph glyph-name="eta" unicode="&#x3b7;" horiz-adv-x="1016" 
d="M310 753l-0.00195312 -753h-208v1030h208v-130c50 122.667 142 184 276 184s225.5 -39.5 274.5 -118.5s74.5 -177.833 76.5 -296.5v-1014h-207v1005c0 60 -21.667 111.167 -65 153.5s-94.666 63.5 -153.999 63.5s-110.666 -21 -153.999 -63
c-24 -24 -39.667 -44.333 -47 -61z" />
    <glyph glyph-name="theta" unicode="&#x3b8;" horiz-adv-x="1318" 
d="M1015 787c0 196 -35.833 345 -107.5 447s-154.5 153 -248.5 153s-176.833 -51 -248.5 -153s-107.5 -251 -107.5 -447s35.833 -345 107.5 -447s154.5 -153 248.5 -153s176.833 51 248.5 153s107.5 251 107.5 447zM1227 787c0 -246 -54.333 -443.001 -163 -591.001
s-243.334 -222 -404.001 -222s-295.667 73.833 -405 221.5s-164 344.834 -164 591.501c0 246 54.667 443 164 591s244.333 222 405 222s295.334 -74 404.001 -222s163 -345 163 -591zM354 890.999h611v-207h-611v207z" />
    <glyph glyph-name="iota" unicode="&#x3b9;" horiz-adv-x="535" 
d="M371 1030v-1030h-207v1030h207z" />
    <glyph glyph-name="kappa" unicode="&#x3ba;" horiz-adv-x="947" 
d="M851 1030l-279 -345l388 -685h-246l-283 518l-110 -122v-396h-208v1030h208v-309l265 309h265z" />
    <glyph glyph-name="lambda" unicode="&#x3bb;" horiz-adv-x="1092" 
d="M1034 0h-230l-259 549l-258 -549h-230l373 800l-289 616h231z" />
    <glyph glyph-name="uni03BC" unicode="&#x3bc;" horiz-adv-x="1110" 
d="M755 81c-60 -58 -129.331 -87 -207.998 -87c-114.667 0 -178 22.333 -190 67v-404h-207v1372h207v-720c5.33301 -12 17.333 -27.333 36 -46c43.333 -41.333 94.666 -62 153.999 -62s110.666 21.333 153.999 64c28 27.333 46 55.333 54 84v680h205v-1027h-205v79z" />
    <glyph glyph-name="nu" unicode="&#x3bd;" horiz-adv-x="1188" 
d="M541 0l-491 1029h234l309 -668l310 668h234l-492 -1029h-104z" />
    <glyph glyph-name="xi" unicode="&#x3be;" horiz-adv-x="1063" 
d="M238 143c-98 86 -147.001 199.332 -147.001 339.999c0 210.667 99.667 364.334 299 461.001c-102 80.667 -153 174.334 -153 281.001c13.333 250 168 375 464 375h288v-201h-258c-180.667 0 -271 -56 -271 -168v-7c0 -45.333 15.167 -82.833 45.5 -112.5
s74.5 -55.834 132.5 -78.501l344 -1v-207l-333 3c-117.333 -24.667 -204.5 -68 -261.5 -130s-85.5 -133.667 -85.5 -215c0 -78.667 28.333 -142 85 -190s185.334 -83.333 386.001 -106s301 -119.667 301 -291v-28c-29.333 -116.667 -136 -184 -320 -202v228
c74 0 111.333 5.33301 112 16v3c0 41.333 -80.167 68.5 -240.5 81.5s-289.5 62.5 -387.5 148.5z" />
    <glyph glyph-name="omicron" unicode="&#x3bf;" horiz-adv-x="1318" 
d="M659 1113c157.333 0 291.5 -55.667 402.5 -167s166.5 -245.666 166.5 -402.999s-55.5 -291.666 -166.5 -402.999s-245.167 -167 -402.5 -167c-156.667 0 -290.667 55.667 -402 167s-167 245.666 -167 402.999s55.667 291.666 167 402.999s245.333 167 402 167zM406.5 795
c-69.667 -70 -104.5 -154 -104.5 -252c0 -98.667 34.833 -182.667 104.5 -252s153.834 -104 252.501 -104s182.834 34.667 252.501 104s104.5 153.333 104.5 252c0 98 -34.833 182 -104.5 252s-153.834 105 -252.501 105s-182.834 -35 -252.501 -105z" />
    <glyph glyph-name="pi" unicode="&#x3c0;" horiz-adv-x="1299" 
d="M544 822v-822h-207v822h-269v208h1162v-208h-269v-822h-206v822h-211z" />
    <glyph glyph-name="rho" unicode="&#x3c1;" horiz-adv-x="1296" 
d="M312 623v-161c12 -63.333 43.667 -120.333 95 -171c70 -70 154.333 -105 253 -105c98 0 181.833 34.833 251.5 104.5s104.5 153.5 104.5 251.5c0 98.667 -34.833 183 -104.5 253s-153.5 105 -251.5 105c-98.667 0 -183 -35 -253 -105c-51.333 -52 -83 -109.333 -95 -172z
M312 93l-0.00195312 -438h-208v1018c30.667 117.333 91.834 219.5 183.501 306.5s215.834 130.5 372.501 130.5s290.5 -55.167 401.5 -165.5s166.5 -244.5 166.5 -402.5c0 -156 -55.5 -289.667 -166.5 -401s-244.833 -167 -401.5 -167c-132.667 0 -248.667 39.667 -348 119z
" />
    <glyph glyph-name="sigma1" unicode="&#x3c2;" horiz-adv-x="1083" 
d="M281 147c-112 80.667 -168 192.664 -168 335.997c0 137.333 47.667 257 143 359c102.667 114 264.334 176.333 485.001 187h263v-203h-213c-172.667 -5.33301 -293.667 -43.666 -363 -114.999s-104 -147.333 -104 -228c0 -76 35.167 -137.167 105.5 -183.5
s181.666 -86.666 333.999 -120.999s228.5 -117.833 228.5 -250.5v-28c-28.667 -131.333 -135.667 -205.666 -321 -222.999v227c74 0 111.667 12.333 113 37v3c0 10.667 -55.833 27 -167.5 49s-223.5 73.333 -335.5 154z" />
    <glyph glyph-name="sigma" unicode="&#x3c3;" horiz-adv-x="1388" 
d="M305 542c0 -98 34.833 -181.667 104.5 -251s153.5 -104 251.5 -104c98.667 0 182.667 34.667 252 104s104 153 104 251c0 98.667 -34.667 183 -104 253s-153.333 105 -252 105c-98 0 -181.833 -35 -251.5 -105s-104.5 -154.333 -104.5 -253zM1177 822
c34.667 -37.333 52 -130.667 52 -280c0 -156 -55.167 -289.667 -165.5 -401s-244.5 -167 -402.5 -167c-156 0 -289.667 55.667 -401 167s-167 245 -167 401c0 158 55.667 292.5 167 403.5s245 166.5 401 166.5c117.333 0 216.333 -27.667 297 -83h350v-207h-131z" />
    <glyph glyph-name="tau" unicode="&#x3c4;" horiz-adv-x="1094" 
d="M650 821v-821h-206v821h-374v208h954v-208h-374z" />
    <glyph glyph-name="upsilon" unicode="&#x3c5;" horiz-adv-x="1161" 
d="M586 -13c-130.667 0 -235.5 39.501 -314.5 118.501s-119.5 178.167 -121.5 297.5v626h207v-618c0 -59.333 21.667 -110 65 -152c44 -42.667 98.333 -64 163 -64c59.333 0 110.666 21.167 153.999 63.5s65 93.166 65 152.499v618h207v-626
c-2 -119.333 -42.333 -218.333 -121 -297c-79.333 -79.333 -180.666 -119 -303.999 -119z" />
    <glyph glyph-name="phi" unicode="&#x3c6;" horiz-adv-x="1319" 
d="M769 861l-1.00098 -634c56.667 9.33301 104.667 33.333 144 72c69.333 70 104 154.333 104 253c0 119.333 -50 207.666 -150 264.999c-43.333 24.667 -75.666 39.334 -96.999 44.001zM560.999 206l0.00195312 711.001c16 103.333 73.667 155 173 155
c53.333 0 119.666 -17.333 198.999 -52c196.667 -89.333 295 -245.333 295 -468c0 -156.667 -55.333 -290.334 -166 -401.001c-96.667 -97.333 -192.334 -150.666 -287.001 -159.999v-331h-208v328c-103.333 5.33301 -206.333 59.666 -309 162.999
c-111.333 110.667 -167 244.334 -167 401.001c0 157.333 55.667 291.333 167 402c36.667 37.333 87.667 75.666 153 114.999l71 -202c-36 -29.333 -60.333 -50.333 -73 -63c-70 -70 -105 -154 -105 -252c0 -98.667 34.667 -182.667 104 -252c50 -50 101 -81.333 153 -94z
" />
    <glyph glyph-name="chi" unicode="&#x3c7;" horiz-adv-x="1241" 
d="M620 191l-324 -531h-239l443 728l-391 641h241l270 -443l270 443h240l-390 -641l443 -728h-240z" />
    <glyph glyph-name="psi" unicode="&#x3c8;" horiz-adv-x="1356" 
d="M786 206c51.333 12.667 102.001 44 152.001 94c69.333 69.333 104 153.333 104 252v477h213v-477c0 -156.667 -55.667 -290.334 -167 -401.001c-100.667 -101.333 -201.334 -155.333 -302.001 -162v-319h-214v319c-101.333 6.66699 -202.333 60.667 -303 162
c-111.333 110.667 -167 244.334 -167 401.001v477h213v-477c0 -98.667 34.667 -182.667 104 -252c50 -50 101 -81.333 153 -94v823h214v-823z" />
    <glyph glyph-name="omega" unicode="&#x3c9;" horiz-adv-x="1556" 
d="M1033 176c73.333 0 130.167 29.334 170.5 88.001s60.5 160 60.5 304c0 131.333 -36.667 285 -110 461h179c95.333 -162 143 -315.667 143 -461c0 -187.333 -36.833 -333.166 -110.5 -437.499s-180.5 -156.5 -320.5 -156.5c-141.333 0 -230 30 -266 90
c-36.667 -60 -125.334 -90 -266.001 -90s-248.167 52.167 -322.5 156.5s-111.5 250.166 -111.5 437.499c0 148 50.667 301.667 152 461h180c-80 -164.667 -120 -318.334 -120 -461.001c0 -144 20.333 -245.333 61 -304s97.334 -88 170.001 -88c68 0 119 34.333 153 103v539
h206v-541c19.333 -67.333 70 -101 152 -101z" />
    <glyph glyph-name="iotadieresis" unicode="&#x3ca;" horiz-adv-x="535" 
d="M372 1030v-1030h-207v1030h207zM182 1396c28.667 -28 43 -62 43 -102c0 -40.667 -14.333 -75 -43 -103s-62.667 -42 -102 -42c-40 0 -74.167 14 -102.5 42s-42.5 62.333 -42.5 103c0 40 14.167 74 42.5 102s62.5 42 102.5 42c39.333 0 73.333 -14 102 -42zM558 1396
c28.667 -28 43 -62 43 -102c0 -40.667 -14.333 -75 -43 -103s-62.667 -42 -102 -42c-40 0 -74.167 14 -102.5 42s-42.5 62.333 -42.5 103c0 40 14.167 74 42.5 102s62.5 42 102.5 42c39.333 0 73.333 -14 102 -42z" />
    <glyph glyph-name="upsilondieresis" unicode="&#x3cb;" horiz-adv-x="1161" 
d="M586 -13c-130.667 0 -235.5 39.501 -314.5 118.501s-119.5 178.167 -121.5 297.5v626h207v-618c0 -59.333 21.667 -110 65 -152c44 -42.667 98.333 -64 163 -64c59.333 0 110.666 21.167 153.999 63.5s65 93.166 65 152.499v618h207v-626
c-2 -119.333 -42.333 -218.333 -121 -297c-79.333 -79.333 -180.666 -119 -303.999 -119zM495 1396c28.667 -28 43 -62 43 -102c0 -40.667 -14.333 -75 -43 -103s-62.667 -42 -102 -42c-40 0 -74.167 14 -102.5 42s-42.5 62.333 -42.5 103c0 40 14.167 74 42.5 102
s62.5 42 102.5 42c39.333 0 73.333 -14 102 -42zM871 1396c28.667 -28 43 -62 43 -102c0 -40.667 -14.333 -75 -43 -103s-62.667 -42 -102 -42c-40 0 -74.167 14 -102.5 42s-42.5 62.333 -42.5 103c0 40 14.167 74 42.5 102s62.5 42 102.5 42c39.333 0 73.333 -14 102 -42z
" />
    <glyph glyph-name="omicrontonos" unicode="&#x3cc;" horiz-adv-x="1318" 
d="M659 1113c157.333 0 291.5 -55.667 402.5 -167s166.5 -245.666 166.5 -402.999s-55.5 -291.666 -166.5 -402.999s-245.167 -167 -402.5 -167c-156.667 0 -290.667 55.667 -402 167s-167 245.666 -167 402.999s55.667 291.666 167 402.999s245.333 167 402 167zM406.5 795
c-69.667 -70 -104.5 -154 -104.5 -252c0 -98.667 34.833 -182.667 104.5 -252s153.834 -104 252.501 -104s182.834 34.667 252.501 104s104.5 153.333 104.5 252c0 98 -34.833 182 -104.5 252s-153.834 105 -252.501 105s-182.834 -35 -252.501 -105zM720 1407h252
l-272 -279h-197z" />
    <glyph glyph-name="upsilontonos" unicode="&#x3cd;" horiz-adv-x="1161" 
d="M586 -13c-130.667 0 -235.5 39.501 -314.5 118.501s-119.5 178.167 -121.5 297.5v626h207v-618c0 -59.333 21.667 -110 65 -152c44 -42.667 98.333 -64 163 -64c59.333 0 110.666 21.167 153.999 63.5s65 93.166 65 152.499v618h207v-626
c-2 -119.333 -42.333 -218.333 -121 -297c-79.333 -79.333 -180.666 -119 -303.999 -119zM641 1407h252l-272 -279h-197z" />
    <glyph glyph-name="omegatonos" unicode="&#x3ce;" horiz-adv-x="1556" 
d="M1033 176c73.333 0 130.167 29.334 170.5 88.001s60.5 160 60.5 304c0 131.333 -36.667 285 -110 461h179c95.333 -162 143 -315.667 143 -461c0 -187.333 -36.833 -333.166 -110.5 -437.499s-180.5 -156.5 -320.5 -156.5c-141.333 0 -230 30 -266 90
c-36.667 -60 -125.334 -90 -266.001 -90s-248.167 52.167 -322.5 156.5s-111.5 250.166 -111.5 437.499c0 148 50.667 301.667 152 461h180c-80 -164.667 -120 -318.334 -120 -461.001c0 -144 20.333 -245.333 61 -304s97.334 -88 170.001 -88c68 0 119 34.333 153 103v539
h206v-541c19.333 -67.333 70 -101 152 -101zM838.001 1407h252l-272 -279h-197z" />
    <glyph glyph-name="afii10023" unicode="&#x401;" horiz-adv-x="1137" 
d="M1012 1600v-207h-655v-489h655v-207h-655v-489h655v-208h-862v1600h862zM495 1967c28.667 -28 43 -62 43 -102c0 -40.667 -14.333 -75 -43 -103s-62.667 -42 -102 -42c-40 0 -74.167 14 -102.5 42s-42.5 62.333 -42.5 103c0 40 14.167 74 42.5 102s62.5 42 102.5 42
c39.333 0 73.333 -14 102 -42zM871 1967c28.667 -28 43 -62 43 -102c0 -40.667 -14.333 -75 -43 -103s-62.667 -42 -102 -42c-40 0 -74.167 14 -102.5 42s-42.5 62.333 -42.5 103c0 40 14.167 74 42.5 102s62.5 42 102.5 42c39.333 0 73.333 -14 102 -42z" />
    <glyph glyph-name="afii10051" unicode="&#x402;" horiz-adv-x="1646" 
d="M648 883c96 116.667 212.332 175.001 348.999 175.001c159.333 0 292.333 -47 399 -141c106.667 -80.667 160 -221 160 -421c0 -199.333 -53 -342.666 -159 -429.999c-28.667 -25.333 -73.667 -56 -135 -92l-141 153c63.333 38.667 104.333 66 123 82
c68 59.333 102.667 151.666 104 276.999c-1.33301 124 -36 216 -104 276c-71.333 62.667 -156.666 94 -255.999 94s-181 -31 -245 -93c-58 -54.667 -89.667 -116.334 -95 -185.001v-578h-206v1392h-374v208h954v-208h-374v-509z" />
    <glyph glyph-name="afii10052" unicode="&#x403;" horiz-adv-x="956" 
d="M897 1600v-208h-562v-1392h-208v1600h770zM573 1978h252l-272 -279h-197z" />
    <glyph glyph-name="afii10053" unicode="&#x404;" horiz-adv-x="1781" 
d="M1229 906v-208.001h-906c6 -108 64.333 -217.333 175 -328c119.333 -119.333 263 -179 431 -179s311.667 59.667 431 179c64 64 116 148.333 156 253h220c-57.333 -172.667 -133 -306 -227 -400c-160.667 -160.667 -354 -241 -580 -241s-419 80 -579 240
s-240 353.333 -240 580c0 226 80 419 240 579s353 240 579 240s419.333 -80 580 -240c46.667 -47.333 105.667 -128.666 177 -243.999h-245c-30.667 40.667 -57.667 72.667 -81 96c-119.333 119.333 -263 179 -431 179s-311.667 -59.667 -431 -179
c-110.667 -110.667 -169 -219.667 -175 -327h906z" />
    </font>
</defs>
</svg>
